<svg xmlns="http://www.w3.org/2000/svg" width="566.383" height="446" viewBox="0 0 566.383 446">
  <g id="Grupo_1103061" data-name="Grupo 1103061" transform="translate(-516.051 -2510.919)">
    <path id="Trazado_894652" data-name="Trazado 894652" d="M223,0C346.159,0,446,99.841,446,223S346.159,446,223,446,0,346.159,0,223,99.841,0,223,0Z" transform="translate(516.051 2510.919)" fill="#e9f2e5"/>
    <path id="Trazado_892601" data-name="Trazado 892601" d="M-1382.9-9042.746h22.164" transform="translate(1979.051 11643.919)" fill="none" stroke="#12263f" stroke-width="2"/>
    <path id="Trazado_892608" data-name="Trazado 892608" d="M-1382.9-9042.746h22.164" transform="translate(1979.051 11755.919)" fill="none" stroke="#12263f" stroke-width="2"/>
    <path id="Trazado_892604" data-name="Trazado 892604" d="M-1382.9-9042.746h22.164" transform="translate(1979.051 11699.919)" fill="none" stroke="#12263f" stroke-width="2"/>
    <path id="Trazado_892606" data-name="Trazado 892606" d="M-1382.9-9042.746h22.164" transform="translate(1979.051 11811.919)" fill="none" stroke="#12263f" stroke-width="2"/>
    <path id="Trazado_892609" data-name="Trazado 892609" d="M-1382.9-9042.746h22.164" transform="translate(1979.051 11867.919)" fill="none" stroke="#12263f" stroke-width="2"/>
    <path id="Trazado_892602" data-name="Trazado 892602" d="M-1382.9-9042.746h22.164" transform="translate(1979.051 11671.919)" fill="none" stroke="#12263f" stroke-width="2"/>
    <path id="Trazado_892607" data-name="Trazado 892607" d="M-1382.9-9042.746h22.164" transform="translate(1979.051 11783.919)" fill="none" stroke="#12263f" stroke-width="2"/>
    <path id="Trazado_892603" data-name="Trazado 892603" d="M-1382.9-9042.746h22.164" transform="translate(1979.051 11727.919)" fill="none" stroke="#12263f" stroke-width="2"/>
    <path id="Trazado_892610" data-name="Trazado 892610" d="M-1382.9-9042.746h22.164" transform="translate(1979.051 11895.919)" fill="none" stroke="#12263f" stroke-width="2"/>
    <path id="Trazado_892611" data-name="Trazado 892611" d="M-1360.409-8759.4l414.926-320.863" transform="translate(1979.051 11642.919)" fill="none" stroke="#e8397c" stroke-width="2"/>
    <path id="Trazado_892612" data-name="Trazado 892612" d="M-1112.558-8950.9v216.274" transform="translate(1979.051 11643.919)" fill="none" stroke="#12263f" stroke-width="2"/>
    <path id="Trazado_892613" data-name="Trazado 892613" d="M-1334.109-8759.4v24.771" transform="translate(1979.051 11643.919)" fill="none" stroke="#12263f" stroke-width="2"/>
    <path id="Trazado_892614" data-name="Trazado 892614" d="M-1334.109-8759.4v24.771" transform="translate(2034.051 11643.919)" fill="none" stroke="#12263f" stroke-width="2"/>
    <path id="Trazado_892615" data-name="Trazado 892615" d="M-1334.109-8759.4v24.771" transform="translate(2089.051 11643.919)" fill="none" stroke="#12263f" stroke-width="2"/>
    <path id="Trazado_892616" data-name="Trazado 892616" d="M-1334.109-8759.4v24.771" transform="translate(2144.051 11643.919)" fill="none" stroke="#12263f" stroke-width="2"/>
    <path id="Trazado_892617" data-name="Trazado 892617" d="M-1334.109-8759.4v24.771" transform="translate(2257.152 11643.919)" fill="none" stroke="#12263f" stroke-width="2"/>
    <path id="Trazado_894653" data-name="Trazado 894653" d="M10,0H67A10,10,0,0,1,77,10V34A10,10,0,0,1,67,44H10A10,10,0,0,1,0,34V10A10,10,0,0,1,10,0Z" transform="translate(993.051 2662.919)" fill="#275470"/>
    <path id="Trazado_894669" data-name="Trazado 894669" d="M10,0H83A10,10,0,0,1,93,10V34A10,10,0,0,1,83,44H10A10,10,0,0,1,0,34V10A10,10,0,0,1,10,0Z" transform="translate(920.051 2528.919)" fill="#275470"/>
    <path id="Trazado_894660" data-name="Trazado 894660" d="M10,0H83A10,10,0,0,1,93,10V34A10,10,0,0,1,83,44H10A10,10,0,0,1,0,34V10A10,10,0,0,1,10,0Z" transform="translate(789.051 2626.255)" fill="#275470"/>
    <path id="Trazado_894661" data-name="Trazado 894661" d="M6.508-2.051h-3.6L2.229,0H.048L3.753-9.953h1.9L9.379,0H7.2ZM3.466-3.712H5.954L4.7-7.437Zm1.661-8.907H7.28L5.387-10.5H3.78Zm9.208,7.075a5.367,5.367,0,0,0-.711-.055,1.447,1.447,0,0,0-1.47.759V0H10.179V-7.4h1.866l.055.882a1.831,1.831,0,0,1,1.647-1.019,2.07,2.07,0,0,1,.615.089ZM18.56.137a3.631,3.631,0,0,1-2.649-1,3.548,3.548,0,0,1-1.022-2.659v-.191A4.468,4.468,0,0,1,15.319-5.7a3.161,3.161,0,0,1,1.22-1.354,3.425,3.425,0,0,1,1.8-.475,3.07,3.07,0,0,1,2.389.957A3.889,3.889,0,0,1,21.6-3.862v.807h-4.71a1.835,1.835,0,0,0,.578,1.162,1.746,1.746,0,0,0,1.22.438,2.132,2.132,0,0,0,1.784-.827L21.444-1.2a2.966,2.966,0,0,1-1.2.981A3.947,3.947,0,0,1,18.56.137ZM18.334-5.94a1.234,1.234,0,0,0-.954.4,2.062,2.062,0,0,0-.468,1.14H19.66V-4.56A1.471,1.471,0,0,0,19.3-5.58,1.274,1.274,0,0,0,18.334-5.94ZM27.009,0a2.194,2.194,0,0,1-.2-.663,2.39,2.39,0,0,1-1.866.8,2.626,2.626,0,0,1-1.8-.629,2.023,2.023,0,0,1-.714-1.586,2.09,2.09,0,0,1,.872-1.8,4.3,4.3,0,0,1,2.519-.636h.909v-.424a1.219,1.219,0,0,0-.263-.82,1.035,1.035,0,0,0-.831-.308,1.177,1.177,0,0,0-.783.239.813.813,0,0,0-.284.656H22.593a1.984,1.984,0,0,1,.4-1.189,2.621,2.621,0,0,1,1.121-.858,4.086,4.086,0,0,1,1.627-.311,3.228,3.228,0,0,1,2.17.687,2.4,2.4,0,0,1,.8,1.931v3.206A3.536,3.536,0,0,0,29-.116V0ZM25.375-1.374a1.7,1.7,0,0,0,.807-.195,1.28,1.28,0,0,0,.547-.523V-3.363H25.99q-1.483,0-1.579,1.025l-.007.116a.791.791,0,0,0,.26.608A1.009,1.009,0,0,0,25.375-1.374Zm8.032-2.379a4.457,4.457,0,0,1,.776-2.755,2.517,2.517,0,0,1,2.123-1.025,2.265,2.265,0,0,1,1.784.807V-10.5h1.982V0H38.288l-.1-.786a2.325,2.325,0,0,1-1.9.923A2.511,2.511,0,0,1,34.2-.892,4.6,4.6,0,0,1,33.407-3.753Zm1.976.141a2.936,2.936,0,0,0,.362,1.6,1.179,1.179,0,0,0,1.053.556,1.321,1.321,0,0,0,1.292-.776V-5.164a1.3,1.3,0,0,0-1.278-.776Q35.383-5.94,35.383-3.612ZM45.008.137a3.631,3.631,0,0,1-2.649-1,3.548,3.548,0,0,1-1.022-2.659v-.191A4.468,4.468,0,0,1,41.768-5.7a3.161,3.161,0,0,1,1.22-1.354,3.425,3.425,0,0,1,1.8-.475,3.07,3.07,0,0,1,2.389.957,3.889,3.889,0,0,1,.872,2.714v.807H43.34a1.835,1.835,0,0,0,.578,1.162,1.746,1.746,0,0,0,1.22.438,2.132,2.132,0,0,0,1.784-.827L47.893-1.2a2.966,2.966,0,0,1-1.2.981A3.947,3.947,0,0,1,45.008.137ZM44.782-5.94a1.234,1.234,0,0,0-.954.4A2.062,2.062,0,0,0,43.36-4.4h2.748V-4.56a1.471,1.471,0,0,0-.355-1.02A1.274,1.274,0,0,0,44.782-5.94ZM8.764,16.742A3.56,3.56,0,0,1,7.2,17.771a6.556,6.556,0,0,1-2.242.366,4.442,4.442,0,0,1-2.266-.564,3.762,3.762,0,0,1-1.5-1.637,5.762,5.762,0,0,1-.543-2.522v-.677a6.119,6.119,0,0,1,.5-2.581A3.717,3.717,0,0,1,2.594,8.488,4.174,4.174,0,0,1,4.813,7.91a4.157,4.157,0,0,1,2.769.844,3.608,3.608,0,0,1,1.183,2.458h-2a1.985,1.985,0,0,0-.6-1.251,1.932,1.932,0,0,0-1.289-.4,1.818,1.818,0,0,0-1.593.786,4.134,4.134,0,0,0-.554,2.338v.636a3.935,3.935,0,0,0,.595,2.365,2.037,2.037,0,0,0,1.743.8A2.275,2.275,0,0,0,6.713,16V14.281H4.847V12.771H8.764ZM14.581,18a2.194,2.194,0,0,1-.2-.663,2.39,2.39,0,0,1-1.866.8,2.626,2.626,0,0,1-1.8-.629A2.023,2.023,0,0,1,10,15.922a2.09,2.09,0,0,1,.872-1.8,4.3,4.3,0,0,1,2.519-.636H14.3v-.424a1.219,1.219,0,0,0-.263-.82,1.035,1.035,0,0,0-.831-.308,1.177,1.177,0,0,0-.783.239.813.813,0,0,0-.284.656H10.165a1.984,1.984,0,0,1,.4-1.189,2.621,2.621,0,0,1,1.121-.858,4.086,4.086,0,0,1,1.627-.311,3.228,3.228,0,0,1,2.17.687,2.4,2.4,0,0,1,.8,1.931v3.206a3.536,3.536,0,0,0,.294,1.593V18Zm-1.634-1.374a1.7,1.7,0,0,0,.807-.195,1.28,1.28,0,0,0,.547-.523V14.637h-.738q-1.483,0-1.579,1.025l-.007.116a.791.791,0,0,0,.26.608A1.009,1.009,0,0,0,12.947,16.626ZM19.619,10.6l.062.854a2.582,2.582,0,0,1,2.126-.991,2.146,2.146,0,0,1,1.75.69,3.221,3.221,0,0,1,.588,2.064V18H22.169V13.259a1.287,1.287,0,0,0-.273-.915,1.222,1.222,0,0,0-.909-.284,1.359,1.359,0,0,0-1.251.713V18H17.76V10.6ZM29.928,18a2.194,2.194,0,0,1-.2-.663,2.39,2.39,0,0,1-1.866.8,2.626,2.626,0,0,1-1.8-.629,2.023,2.023,0,0,1-.714-1.586,2.09,2.09,0,0,1,.872-1.8,4.3,4.3,0,0,1,2.519-.636h.909v-.424a1.219,1.219,0,0,0-.263-.82,1.035,1.035,0,0,0-.831-.308,1.177,1.177,0,0,0-.783.239.813.813,0,0,0-.284.656H25.512a1.984,1.984,0,0,1,.4-1.189,2.621,2.621,0,0,1,1.121-.858,4.086,4.086,0,0,1,1.627-.311,3.228,3.228,0,0,1,2.17.687,2.4,2.4,0,0,1,.8,1.931v3.206a3.536,3.536,0,0,0,.294,1.593V18Zm-1.634-1.374a1.7,1.7,0,0,0,.807-.195,1.28,1.28,0,0,0,.547-.523V14.637h-.738q-1.483,0-1.579,1.025l-.007.116a.791.791,0,0,0,.26.608A1.009,1.009,0,0,0,28.294,16.626ZM34.966,10.6l.062.854a2.582,2.582,0,0,1,2.126-.991,2.146,2.146,0,0,1,1.75.69,3.221,3.221,0,0,1,.588,2.064V18H37.516V13.259a1.287,1.287,0,0,0-.273-.915,1.222,1.222,0,0,0-.909-.284,1.359,1.359,0,0,0-1.251.713V18H33.106V10.6Zm9.1,5.94a1.3,1.3,0,0,0,.889-.3,1.054,1.054,0,0,0,.355-.8h1.853a2.534,2.534,0,0,1-.41,1.377,2.706,2.706,0,0,1-1.1.971,3.455,3.455,0,0,1-1.548.345,3.211,3.211,0,0,1-2.5-1.008,3.99,3.99,0,0,1-.916-2.786v-.13a3.944,3.944,0,0,1,.909-2.728,3.174,3.174,0,0,1,2.5-1.019,3.111,3.111,0,0,1,2.225.79,2.8,2.8,0,0,1,.851,2.1H45.309a1.358,1.358,0,0,0-.355-.938,1.321,1.321,0,0,0-1.945.142,2.916,2.916,0,0,0-.352,1.633V14.4A2.953,2.953,0,0,0,43,16.044,1.2,1.2,0,0,0,44.064,16.544ZM50.374,18H48.392V10.6h1.982Zm-2.1-9.311a.973.973,0,0,1,.3-.731,1.281,1.281,0,0,1,1.617,0,1.044,1.044,0,0,1,0,1.47,1.267,1.267,0,0,1-1.606,0A.97.97,0,0,1,48.275,8.689ZM56.287,18a2.194,2.194,0,0,1-.2-.663,2.39,2.39,0,0,1-1.866.8,2.626,2.626,0,0,1-1.8-.629,2.023,2.023,0,0,1-.714-1.586,2.09,2.09,0,0,1,.872-1.8,4.3,4.3,0,0,1,2.519-.636h.909v-.424a1.219,1.219,0,0,0-.263-.82,1.035,1.035,0,0,0-.831-.308,1.177,1.177,0,0,0-.783.239.813.813,0,0,0-.284.656H51.871a1.984,1.984,0,0,1,.4-1.189,2.621,2.621,0,0,1,1.121-.858,4.086,4.086,0,0,1,1.627-.311,3.228,3.228,0,0,1,2.17.687,2.4,2.4,0,0,1,.8,1.931v3.206a3.536,3.536,0,0,0,.294,1.593V18Zm-1.634-1.374a1.7,1.7,0,0,0,.807-.195,1.28,1.28,0,0,0,.547-.523V14.637h-.738q-1.483,0-1.579,1.025l-.007.116a.791.791,0,0,0,.26.608A1.009,1.009,0,0,0,54.653,16.626Zm8.859-.67a.637.637,0,0,0-.359-.571A4.077,4.077,0,0,0,62,15.013q-2.639-.554-2.639-2.242a2.032,2.032,0,0,1,.817-1.644,3.3,3.3,0,0,1,2.136-.66,3.547,3.547,0,0,1,2.252.663,2.09,2.09,0,0,1,.844,1.723H63.438a.956.956,0,0,0-.273-.7,1.157,1.157,0,0,0-.854-.277,1.182,1.182,0,0,0-.772.226.712.712,0,0,0-.273.574.609.609,0,0,0,.311.53,3.2,3.2,0,0,0,1.049.349,8.571,8.571,0,0,1,1.244.332,2.044,2.044,0,0,1,1.565,1.989,1.929,1.929,0,0,1-.868,1.637,3.745,3.745,0,0,1-2.242.625,3.912,3.912,0,0,1-1.651-.332,2.77,2.77,0,0,1-1.131-.909,2.113,2.113,0,0,1-.41-1.248H61a1.031,1.031,0,0,0,.39.807,1.546,1.546,0,0,0,.971.28,1.43,1.43,0,0,0,.858-.215A.67.67,0,0,0,63.513,15.956Z" transform="translate(1017 2592.919)" fill="#12263f"/>
    <path id="Trazado_894654" data-name="Trazado 894654" d="M8.7-3.315A3.522,3.522,0,0,1,7.516-.786,4.165,4.165,0,0,1,4.7.137,3.745,3.745,0,0,1,1.685-1.152a5.284,5.284,0,0,1-1.1-3.538V-5.3a5.966,5.966,0,0,1,.506-2.529A3.791,3.791,0,0,1,2.54-9.505a4.05,4.05,0,0,1,2.184-.584A4.058,4.058,0,0,1,7.5-9.167,3.785,3.785,0,0,1,8.716-6.576H6.665a2.079,2.079,0,0,0-.537-1.4,1.987,1.987,0,0,0-1.4-.434,1.742,1.742,0,0,0-1.535.735,4.118,4.118,0,0,0-.523,2.28v.752a4.408,4.408,0,0,0,.489,2.358A1.71,1.71,0,0,0,4.7-1.538a2.025,2.025,0,0,0,1.418-.434,1.961,1.961,0,0,0,.537-1.343Zm.909-.451a4.387,4.387,0,0,1,.424-1.962,3.1,3.1,0,0,1,1.22-1.333A3.56,3.56,0,0,1,13.1-7.533a3.368,3.368,0,0,1,2.444.916A3.676,3.676,0,0,1,16.6-4.129l.014.506a3.866,3.866,0,0,1-.95,2.731A3.3,3.3,0,0,1,13.118.137,3.319,3.319,0,0,1,10.565-.889a3.934,3.934,0,0,1-.954-2.789Zm1.976.14a2.765,2.765,0,0,0,.4,1.612,1.308,1.308,0,0,0,1.135.558,1.311,1.311,0,0,0,1.121-.551,3.025,3.025,0,0,0,.4-1.763,2.737,2.737,0,0,0-.4-1.6A1.311,1.311,0,0,0,13.1-5.94a1.29,1.29,0,0,0-1.121.565A3.076,3.076,0,0,0,11.587-3.626ZM21.841-2.044a.637.637,0,0,0-.359-.571,4.077,4.077,0,0,0-1.152-.373q-2.639-.554-2.639-2.242a2.032,2.032,0,0,1,.817-1.644,3.3,3.3,0,0,1,2.136-.66A3.547,3.547,0,0,1,22.9-6.87a2.09,2.09,0,0,1,.844,1.723H21.766a.956.956,0,0,0-.273-.7,1.157,1.157,0,0,0-.854-.277,1.182,1.182,0,0,0-.772.226.712.712,0,0,0-.273.574.609.609,0,0,0,.311.53,3.2,3.2,0,0,0,1.049.349,8.571,8.571,0,0,1,1.244.332,2.044,2.044,0,0,1,1.565,1.989,1.929,1.929,0,0,1-.868,1.637,3.745,3.745,0,0,1-2.242.625A3.912,3.912,0,0,1,19-.195,2.77,2.77,0,0,1,17.869-1.1a2.113,2.113,0,0,1-.41-1.248h1.873a1.031,1.031,0,0,0,.39.807,1.546,1.546,0,0,0,.971.28,1.43,1.43,0,0,0,.858-.215A.67.67,0,0,0,21.841-2.044ZM27.4-9.215V-7.4h1.265v1.449H27.4v3.691a.881.881,0,0,0,.157.588.79.79,0,0,0,.6.178,3.151,3.151,0,0,0,.581-.048v1.5a4.067,4.067,0,0,1-1.2.178,1.886,1.886,0,0,1-2.119-2.1V-5.947h-1.08V-7.4h1.08V-9.215Zm1.853,5.448a4.387,4.387,0,0,1,.424-1.962A3.1,3.1,0,0,1,30.9-7.062a3.56,3.56,0,0,1,1.849-.472,3.368,3.368,0,0,1,2.444.916,3.676,3.676,0,0,1,1.056,2.488l.014.506a3.866,3.866,0,0,1-.95,2.731A3.3,3.3,0,0,1,32.758.137,3.319,3.319,0,0,1,30.2-.889a3.934,3.934,0,0,1-.954-2.789Zm1.976.14a2.765,2.765,0,0,0,.4,1.612,1.308,1.308,0,0,0,1.135.558,1.311,1.311,0,0,0,1.121-.551,3.025,3.025,0,0,0,.4-1.763,2.737,2.737,0,0,0-.4-1.6,1.311,1.311,0,0,0-1.135-.568,1.29,1.29,0,0,0-1.121.565A3.076,3.076,0,0,0,31.227-3.626ZM41.48-2.044a.637.637,0,0,0-.359-.571,4.077,4.077,0,0,0-1.152-.373q-2.639-.554-2.639-2.242a2.032,2.032,0,0,1,.817-1.644,3.3,3.3,0,0,1,2.136-.66,3.547,3.547,0,0,1,2.252.663,2.09,2.09,0,0,1,.844,1.723H41.405a.956.956,0,0,0-.273-.7,1.157,1.157,0,0,0-.854-.277A1.182,1.182,0,0,0,39.5-5.9a.712.712,0,0,0-.273.574.609.609,0,0,0,.311.53,3.2,3.2,0,0,0,1.049.349,8.571,8.571,0,0,1,1.244.332A2.044,2.044,0,0,1,43.4-2.126a1.929,1.929,0,0,1-.868,1.637,3.745,3.745,0,0,1-2.242.625A3.912,3.912,0,0,1,38.64-.195,2.77,2.77,0,0,1,37.509-1.1a2.113,2.113,0,0,1-.41-1.248h1.873a1.031,1.031,0,0,0,.39.807,1.546,1.546,0,0,0,.971.28,1.43,1.43,0,0,0,.858-.215A.67.67,0,0,0,41.48-2.044Zm10.486-.424,2.256-7.485h2.283L53.04,0H50.9L47.448-9.953h2.276ZM61.284,0a2.194,2.194,0,0,1-.2-.663,2.39,2.39,0,0,1-1.866.8,2.626,2.626,0,0,1-1.8-.629A2.023,2.023,0,0,1,56.7-2.078a2.09,2.09,0,0,1,.872-1.8,4.3,4.3,0,0,1,2.519-.636H61v-.424a1.219,1.219,0,0,0-.263-.82,1.035,1.035,0,0,0-.831-.308,1.177,1.177,0,0,0-.783.239.813.813,0,0,0-.284.656H56.868a1.984,1.984,0,0,1,.4-1.189,2.621,2.621,0,0,1,1.121-.858,4.086,4.086,0,0,1,1.627-.311,3.228,3.228,0,0,1,2.17.687,2.4,2.4,0,0,1,.8,1.931v3.206A3.536,3.536,0,0,0,63.28-.116V0ZM59.65-1.374a1.7,1.7,0,0,0,.807-.195A1.28,1.28,0,0,0,61-2.092V-3.363h-.738q-1.483,0-1.579,1.025l-.007.116a.791.791,0,0,0,.26.608A1.009,1.009,0,0,0,59.65-1.374Zm9.01-4.17a5.367,5.367,0,0,0-.711-.055,1.447,1.447,0,0,0-1.47.759V0H64.5V-7.4H66.37l.055.882a1.831,1.831,0,0,1,1.647-1.019,2.07,2.07,0,0,1,.615.089ZM71.7,0H69.713V-7.4H71.7ZM69.6-9.311a.973.973,0,0,1,.3-.731,1.117,1.117,0,0,1,.81-.287,1.12,1.12,0,0,1,.807.287.967.967,0,0,1,.3.731.97.97,0,0,1-.3.738,1.122,1.122,0,0,1-.8.287,1.122,1.122,0,0,1-.8-.287A.97.97,0,0,1,69.6-9.311ZM77.608,0a2.194,2.194,0,0,1-.2-.663,2.39,2.39,0,0,1-1.866.8,2.626,2.626,0,0,1-1.8-.629,2.023,2.023,0,0,1-.714-1.586,2.09,2.09,0,0,1,.872-1.8,4.3,4.3,0,0,1,2.519-.636h.909v-.424a1.219,1.219,0,0,0-.263-.82,1.035,1.035,0,0,0-.831-.308,1.177,1.177,0,0,0-.783.239.813.813,0,0,0-.284.656H73.192a1.985,1.985,0,0,1,.4-1.189,2.621,2.621,0,0,1,1.121-.858,4.086,4.086,0,0,1,1.627-.311,3.228,3.228,0,0,1,2.17.687,2.4,2.4,0,0,1,.8,1.931v3.206A3.536,3.536,0,0,0,79.6-.116V0ZM75.975-1.374a1.7,1.7,0,0,0,.807-.195,1.28,1.28,0,0,0,.547-.523V-3.363H76.59q-1.483,0-1.579,1.025L75-2.222a.791.791,0,0,0,.26.608A1.009,1.009,0,0,0,75.975-1.374ZM87.493-3.63a4.479,4.479,0,0,1-.759,2.772,2.513,2.513,0,0,1-2.119.995,2.309,2.309,0,0,1-1.921-.923L82.605,0H80.828V-10.5H82.8v3.767a2.25,2.25,0,0,1,1.8-.8,2.534,2.534,0,0,1,2.123.995,4.485,4.485,0,0,1,.769,2.8ZM85.518-3.78a2.959,2.959,0,0,0-.355-1.642A1.2,1.2,0,0,0,84.1-5.94a1.3,1.3,0,0,0-1.3.775v2.928a1.32,1.32,0,0,0,1.313.782A1.22,1.22,0,0,0,85.374-2.4,4.9,4.9,0,0,0,85.518-3.78ZM90.795,0H88.813V-10.5h1.982Zm5.031.137a3.631,3.631,0,0,1-2.649-1,3.548,3.548,0,0,1-1.022-2.659v-.191A4.468,4.468,0,0,1,92.586-5.7a3.161,3.161,0,0,1,1.22-1.354,3.425,3.425,0,0,1,1.8-.475A3.07,3.07,0,0,1,98-6.576a3.889,3.889,0,0,1,.872,2.714v.807h-4.71a1.835,1.835,0,0,0,.578,1.162,1.746,1.746,0,0,0,1.22.438,2.132,2.132,0,0,0,1.784-.827L98.711-1.2a2.966,2.966,0,0,1-1.2.981A3.947,3.947,0,0,1,95.826.137ZM95.6-5.94a1.234,1.234,0,0,0-.954.4,2.062,2.062,0,0,0-.468,1.14h2.748V-4.56a1.471,1.471,0,0,0-.355-1.02A1.274,1.274,0,0,0,95.6-5.94ZM104-2.044a.637.637,0,0,0-.359-.571,4.077,4.077,0,0,0-1.152-.373q-2.639-.554-2.639-2.242a2.032,2.032,0,0,1,.817-1.644,3.3,3.3,0,0,1,2.136-.66,3.547,3.547,0,0,1,2.252.663,2.09,2.09,0,0,1,.844,1.723H103.92a.956.956,0,0,0-.273-.7,1.157,1.157,0,0,0-.854-.277,1.182,1.182,0,0,0-.772.226.712.712,0,0,0-.273.574.609.609,0,0,0,.311.53,3.2,3.2,0,0,0,1.049.349,8.571,8.571,0,0,1,1.244.332,2.044,2.044,0,0,1,1.565,1.989,1.929,1.929,0,0,1-.868,1.637,3.745,3.745,0,0,1-2.242.625,3.912,3.912,0,0,1-1.651-.332,2.77,2.77,0,0,1-1.131-.909,2.113,2.113,0,0,1-.41-1.248h1.873a1.031,1.031,0,0,0,.39.807,1.546,1.546,0,0,0,.971.28,1.43,1.43,0,0,0,.858-.215A.67.67,0,0,0,104-2.044ZM.451,14.247a4.457,4.457,0,0,1,.776-2.755A2.517,2.517,0,0,1,3.35,10.467a2.265,2.265,0,0,1,1.784.807V7.5H7.116V18H5.332l-.1-.786a2.325,2.325,0,0,1-1.9.923,2.511,2.511,0,0,1-2.1-1.029A4.6,4.6,0,0,1,.451,14.247Zm1.976.141a2.936,2.936,0,0,0,.362,1.6,1.179,1.179,0,0,0,1.053.556,1.321,1.321,0,0,0,1.292-.776V12.836a1.3,1.3,0,0,0-1.278-.776Q2.427,12.06,2.427,14.388Zm9.625,3.749a3.631,3.631,0,0,1-2.649-1,3.548,3.548,0,0,1-1.022-2.659v-.191A4.468,4.468,0,0,1,8.812,12.3a3.161,3.161,0,0,1,1.22-1.354,3.425,3.425,0,0,1,1.8-.475,3.07,3.07,0,0,1,2.389.957,3.889,3.889,0,0,1,.872,2.714v.807h-4.71a1.835,1.835,0,0,0,.578,1.162,1.746,1.746,0,0,0,1.22.438,2.132,2.132,0,0,0,1.784-.827l.971,1.087a2.966,2.966,0,0,1-1.2.981A3.947,3.947,0,0,1,12.052,18.137Zm-.226-6.077a1.234,1.234,0,0,0-.954.4A2.062,2.062,0,0,0,10.4,13.6h2.748V13.44a1.471,1.471,0,0,0-.355-1.02A1.274,1.274,0,0,0,11.826,12.06Zm7.567,2.174a4.387,4.387,0,0,1,.424-1.962,3.1,3.1,0,0,1,1.22-1.333,3.56,3.56,0,0,1,1.849-.472,3.368,3.368,0,0,1,2.444.916,3.676,3.676,0,0,1,1.056,2.488l.014.506a3.866,3.866,0,0,1-.95,2.731,3.3,3.3,0,0,1-2.55,1.029,3.319,3.319,0,0,1-2.553-1.025,3.934,3.934,0,0,1-.954-2.789Zm1.976.14a2.765,2.765,0,0,0,.4,1.612,1.424,1.424,0,0,0,2.256.007,3.025,3.025,0,0,0,.4-1.763,2.737,2.737,0,0,0-.4-1.6,1.311,1.311,0,0,0-1.135-.568,1.29,1.29,0,0,0-1.121.565A3.076,3.076,0,0,0,21.369,14.374Zm12.906,0a4.436,4.436,0,0,1-.776,2.738,2.488,2.488,0,0,1-2.1,1.029,2.3,2.3,0,0,1-1.812-.779v3.486H27.617V10.6h1.832l.068.725a2.322,2.322,0,0,1,1.873-.861,2.5,2.5,0,0,1,2.126,1.012,4.556,4.556,0,0,1,.759,2.789ZM32.3,14.22a2.927,2.927,0,0,0-.366-1.6,1.19,1.19,0,0,0-1.063-.562,1.293,1.293,0,0,0-1.278.713V15.81a1.315,1.315,0,0,0,1.292.734Q32.3,16.544,32.3,14.22Zm6.6,3.917a3.631,3.631,0,0,1-2.649-1,3.548,3.548,0,0,1-1.022-2.659v-.191a4.468,4.468,0,0,1,.431-1.993,3.161,3.161,0,0,1,1.22-1.354,3.425,3.425,0,0,1,1.8-.475,3.07,3.07,0,0,1,2.389.957,3.889,3.889,0,0,1,.872,2.714v.807h-4.71a1.835,1.835,0,0,0,.578,1.162,1.746,1.746,0,0,0,1.22.438,2.132,2.132,0,0,0,1.784-.827l.971,1.087a2.966,2.966,0,0,1-1.2.981A3.947,3.947,0,0,1,38.9,18.137Zm-.226-6.077a1.234,1.234,0,0,0-.954.4,2.062,2.062,0,0,0-.468,1.14H40V13.44a1.471,1.471,0,0,0-.355-1.02A1.274,1.274,0,0,0,38.678,12.06Zm8.545.4a5.367,5.367,0,0,0-.711-.055,1.447,1.447,0,0,0-1.47.759V18H43.066V10.6h1.866l.055.882a1.831,1.831,0,0,1,1.647-1.019,2.07,2.07,0,0,1,.615.089ZM52.254,18a2.194,2.194,0,0,1-.2-.663,2.39,2.39,0,0,1-1.866.8,2.626,2.626,0,0,1-1.8-.629,2.023,2.023,0,0,1-.714-1.586,2.09,2.09,0,0,1,.872-1.8,4.3,4.3,0,0,1,2.519-.636h.909v-.424a1.219,1.219,0,0,0-.263-.82,1.035,1.035,0,0,0-.831-.308,1.177,1.177,0,0,0-.783.239.813.813,0,0,0-.284.656H47.838a1.984,1.984,0,0,1,.4-1.189,2.621,2.621,0,0,1,1.121-.858,4.086,4.086,0,0,1,1.627-.311,3.228,3.228,0,0,1,2.17.687,2.4,2.4,0,0,1,.8,1.931v3.206a3.536,3.536,0,0,0,.294,1.593V18ZM50.62,16.626a1.7,1.7,0,0,0,.807-.195,1.28,1.28,0,0,0,.547-.523V14.637h-.738q-1.483,0-1.579,1.025l-.007.116a.791.791,0,0,0,.26.608A1.009,1.009,0,0,0,50.62,16.626Zm7.93-.082a1.3,1.3,0,0,0,.889-.3,1.054,1.054,0,0,0,.355-.8h1.853a2.534,2.534,0,0,1-.41,1.377,2.706,2.706,0,0,1-1.1.971,3.455,3.455,0,0,1-1.548.345,3.211,3.211,0,0,1-2.5-1.008,3.99,3.99,0,0,1-.916-2.786v-.13a3.944,3.944,0,0,1,.909-2.728,3.174,3.174,0,0,1,2.5-1.019,3.111,3.111,0,0,1,2.225.79,2.8,2.8,0,0,1,.851,2.1H59.794a1.358,1.358,0,0,0-.355-.938,1.321,1.321,0,0,0-1.945.142,2.916,2.916,0,0,0-.352,1.633V14.4a2.953,2.953,0,0,0,.349,1.643A1.2,1.2,0,0,0,58.55,16.544ZM64.859,18H62.877V10.6h1.982Zm-2.1-9.311a.973.973,0,0,1,.3-.731,1.281,1.281,0,0,1,1.617,0,1.044,1.044,0,0,1,0,1.47,1.267,1.267,0,0,1-1.606,0A.97.97,0,0,1,62.761,8.689Zm3.418,5.544a4.387,4.387,0,0,1,.424-1.962,3.1,3.1,0,0,1,1.22-1.333,3.56,3.56,0,0,1,1.849-.472,3.368,3.368,0,0,1,2.444.916,3.676,3.676,0,0,1,1.056,2.488l.014.506a3.866,3.866,0,0,1-.95,2.731,3.683,3.683,0,0,1-5.1,0,3.934,3.934,0,0,1-.954-2.789Zm1.976.14a2.765,2.765,0,0,0,.4,1.612,1.424,1.424,0,0,0,2.256.007,3.025,3.025,0,0,0,.4-1.763,2.737,2.737,0,0,0-.4-1.6,1.311,1.311,0,0,0-1.135-.568,1.29,1.29,0,0,0-1.121.565A3.076,3.076,0,0,0,68.154,14.374ZM70.062,7.5h2.153L70.321,9.619H68.715Zm6.159,3.1.062.854a2.582,2.582,0,0,1,2.126-.991,2.146,2.146,0,0,1,1.75.69,3.221,3.221,0,0,1,.588,2.064V18H78.771V13.259a1.287,1.287,0,0,0-.273-.915,1.222,1.222,0,0,0-.909-.284,1.359,1.359,0,0,0-1.251.713V18H74.361V10.6Z" transform="translate(923 2730.919)" fill="#12263f"/>
    <path id="Trazado_894655" data-name="Trazado 894655" d="M6.508-2.051h-3.6L2.229,0H.048L3.753-9.953h1.9L9.379,0H7.2ZM3.466-3.712H5.954L4.7-7.437Zm1.661-8.907H7.28L5.387-10.5H3.78Zm9.208,7.075a5.367,5.367,0,0,0-.711-.055,1.447,1.447,0,0,0-1.47.759V0H10.179V-7.4h1.866l.055.882a1.831,1.831,0,0,1,1.647-1.019,2.07,2.07,0,0,1,.615.089ZM18.56.137a3.631,3.631,0,0,1-2.649-1,3.548,3.548,0,0,1-1.022-2.659v-.191A4.468,4.468,0,0,1,15.319-5.7a3.161,3.161,0,0,1,1.22-1.354,3.425,3.425,0,0,1,1.8-.475,3.07,3.07,0,0,1,2.389.957A3.889,3.889,0,0,1,21.6-3.862v.807h-4.71a1.835,1.835,0,0,0,.578,1.162,1.746,1.746,0,0,0,1.22.438,2.132,2.132,0,0,0,1.784-.827L21.444-1.2a2.966,2.966,0,0,1-1.2.981A3.947,3.947,0,0,1,18.56.137ZM18.334-5.94a1.234,1.234,0,0,0-.954.4,2.062,2.062,0,0,0-.468,1.14H19.66V-4.56A1.471,1.471,0,0,0,19.3-5.58,1.274,1.274,0,0,0,18.334-5.94ZM27.009,0a2.194,2.194,0,0,1-.2-.663,2.39,2.39,0,0,1-1.866.8,2.626,2.626,0,0,1-1.8-.629,2.023,2.023,0,0,1-.714-1.586,2.09,2.09,0,0,1,.872-1.8,4.3,4.3,0,0,1,2.519-.636h.909v-.424a1.219,1.219,0,0,0-.263-.82,1.035,1.035,0,0,0-.831-.308,1.177,1.177,0,0,0-.783.239.813.813,0,0,0-.284.656H22.593a1.984,1.984,0,0,1,.4-1.189,2.621,2.621,0,0,1,1.121-.858,4.086,4.086,0,0,1,1.627-.311,3.228,3.228,0,0,1,2.17.687,2.4,2.4,0,0,1,.8,1.931v3.206A3.536,3.536,0,0,0,29-.116V0ZM25.375-1.374a1.7,1.7,0,0,0,.807-.195,1.28,1.28,0,0,0,.547-.523V-3.363H25.99q-1.483,0-1.579,1.025l-.007.116a.791.791,0,0,0,.26.608A1.009,1.009,0,0,0,25.375-1.374Zm8.032-2.379a4.457,4.457,0,0,1,.776-2.755,2.517,2.517,0,0,1,2.123-1.025,2.265,2.265,0,0,1,1.784.807V-10.5h1.982V0H38.288l-.1-.786a2.325,2.325,0,0,1-1.9.923A2.511,2.511,0,0,1,34.2-.892,4.6,4.6,0,0,1,33.407-3.753Zm1.976.141a2.936,2.936,0,0,0,.362,1.6,1.179,1.179,0,0,0,1.053.556,1.321,1.321,0,0,0,1.292-.776V-5.164a1.3,1.3,0,0,0-1.278-.776Q35.383-5.94,35.383-3.612ZM45.008.137a3.631,3.631,0,0,1-2.649-1,3.548,3.548,0,0,1-1.022-2.659v-.191A4.468,4.468,0,0,1,41.768-5.7a3.161,3.161,0,0,1,1.22-1.354,3.425,3.425,0,0,1,1.8-.475,3.07,3.07,0,0,1,2.389.957,3.889,3.889,0,0,1,.872,2.714v.807H43.34a1.835,1.835,0,0,0,.578,1.162,1.746,1.746,0,0,0,1.22.438,2.132,2.132,0,0,0,1.784-.827L47.893-1.2a2.966,2.966,0,0,1-1.2.981A3.947,3.947,0,0,1,45.008.137ZM44.782-5.94a1.234,1.234,0,0,0-.954.4A2.062,2.062,0,0,0,43.36-4.4h2.748V-4.56a1.471,1.471,0,0,0-.355-1.02A1.274,1.274,0,0,0,44.782-5.94ZM2.939,14.493V18H.889V8.047H4.771a4.492,4.492,0,0,1,1.972.41A3.022,3.022,0,0,1,8.053,9.623a3.25,3.25,0,0,1,.458,1.719,2.858,2.858,0,0,1-1,2.307,4.171,4.171,0,0,1-2.772.844Zm0-1.661H4.771a1.8,1.8,0,0,0,1.241-.383,1.392,1.392,0,0,0,.427-1.094,1.642,1.642,0,0,0-.431-1.183,1.609,1.609,0,0,0-1.189-.465H2.939Zm10.165,5.3a3.631,3.631,0,0,1-2.649-1,3.548,3.548,0,0,1-1.022-2.659v-.191A4.468,4.468,0,0,1,9.864,12.3a3.161,3.161,0,0,1,1.22-1.354,3.425,3.425,0,0,1,1.8-.475,3.07,3.07,0,0,1,2.389.957,3.889,3.889,0,0,1,.872,2.714v.807h-4.71a1.835,1.835,0,0,0,.578,1.162,1.746,1.746,0,0,0,1.22.438,2.132,2.132,0,0,0,1.784-.827l.971,1.087a2.966,2.966,0,0,1-1.2.981A3.947,3.947,0,0,1,13.1,18.137Zm-.226-6.077a1.234,1.234,0,0,0-.954.4,2.062,2.062,0,0,0-.468,1.14h2.748V13.44a1.471,1.471,0,0,0-.355-1.02A1.274,1.274,0,0,0,12.879,12.06Zm.178-4.56H15.21L13.316,9.619H11.71Zm8.367,4.956a5.367,5.367,0,0,0-.711-.055,1.447,1.447,0,0,0-1.47.759V18H17.268V10.6h1.866l.055.882a1.831,1.831,0,0,1,1.647-1.019,2.07,2.07,0,0,1,.615.089Zm.513,1.791a4.457,4.457,0,0,1,.776-2.755,2.517,2.517,0,0,1,2.123-1.025,2.265,2.265,0,0,1,1.784.807V7.5H28.6V18H26.817l-.1-.786a2.325,2.325,0,0,1-1.9.923,2.511,2.511,0,0,1-2.1-1.029A4.6,4.6,0,0,1,21.937,14.247Zm1.976.141a2.936,2.936,0,0,0,.362,1.6,1.179,1.179,0,0,0,1.053.556,1.321,1.321,0,0,0,1.292-.776V12.836a1.3,1.3,0,0,0-1.278-.776Q23.912,12.06,23.912,14.388ZM32.218,18H30.235V10.6h1.982Zm-2.1-9.311a.973.973,0,0,1,.3-.731,1.281,1.281,0,0,1,1.617,0,1.044,1.044,0,0,1,0,1.47,1.267,1.267,0,0,1-1.606,0A.97.97,0,0,1,30.119,8.689Zm3.418,5.558a4.457,4.457,0,0,1,.776-2.755,2.517,2.517,0,0,1,2.123-1.025,2.265,2.265,0,0,1,1.784.807V7.5H40.2V18H38.418l-.1-.786a2.325,2.325,0,0,1-1.9.923,2.511,2.511,0,0,1-2.1-1.029A4.6,4.6,0,0,1,33.537,14.247Zm1.976.141a2.936,2.936,0,0,0,.362,1.6,1.179,1.179,0,0,0,1.053.556,1.321,1.321,0,0,0,1.292-.776V12.836a1.3,1.3,0,0,0-1.278-.776Q35.513,12.06,35.513,14.388ZM46.02,18a2.194,2.194,0,0,1-.2-.663,2.39,2.39,0,0,1-1.866.8,2.626,2.626,0,0,1-1.8-.629,2.023,2.023,0,0,1-.714-1.586,2.09,2.09,0,0,1,.872-1.8,4.3,4.3,0,0,1,2.519-.636h.909v-.424a1.219,1.219,0,0,0-.263-.82,1.035,1.035,0,0,0-.831-.308,1.177,1.177,0,0,0-.783.239.813.813,0,0,0-.284.656H41.6a1.984,1.984,0,0,1,.4-1.189,2.621,2.621,0,0,1,1.121-.858,4.086,4.086,0,0,1,1.627-.311,3.228,3.228,0,0,1,2.17.687,2.4,2.4,0,0,1,.8,1.931v3.206a3.536,3.536,0,0,0,.294,1.593V18Zm-1.634-1.374a1.7,1.7,0,0,0,.807-.195,1.28,1.28,0,0,0,.547-.523V14.637H45q-1.483,0-1.579,1.025l-.007.116a.791.791,0,0,0,.26.608A1.009,1.009,0,0,0,44.386,16.626Z" transform="translate(637 2811.919)" fill="#12263f"/>
    <path id="Trazado_894656" data-name="Trazado 894656" d="M8.7-3.315A3.522,3.522,0,0,1,7.516-.786,4.165,4.165,0,0,1,4.7.137,3.745,3.745,0,0,1,1.685-1.152a5.284,5.284,0,0,1-1.1-3.538V-5.3a5.966,5.966,0,0,1,.506-2.529A3.791,3.791,0,0,1,2.54-9.505a4.05,4.05,0,0,1,2.184-.584A4.058,4.058,0,0,1,7.5-9.167,3.785,3.785,0,0,1,8.716-6.576H6.665a2.079,2.079,0,0,0-.537-1.4,1.987,1.987,0,0,0-1.4-.434,1.742,1.742,0,0,0-1.535.735,4.118,4.118,0,0,0-.523,2.28v.752a4.408,4.408,0,0,0,.489,2.358A1.71,1.71,0,0,0,4.7-1.538a2.025,2.025,0,0,0,1.418-.434,1.961,1.961,0,0,0,.537-1.343Zm.909-.451a4.387,4.387,0,0,1,.424-1.962,3.1,3.1,0,0,1,1.22-1.333A3.56,3.56,0,0,1,13.1-7.533a3.368,3.368,0,0,1,2.444.916A3.676,3.676,0,0,1,16.6-4.129l.014.506a3.866,3.866,0,0,1-.95,2.731A3.3,3.3,0,0,1,13.118.137,3.319,3.319,0,0,1,10.565-.889a3.934,3.934,0,0,1-.954-2.789Zm1.976.14a2.765,2.765,0,0,0,.4,1.612,1.308,1.308,0,0,0,1.135.558,1.311,1.311,0,0,0,1.121-.551,3.025,3.025,0,0,0,.4-1.763,2.737,2.737,0,0,0-.4-1.6A1.311,1.311,0,0,0,13.1-5.94a1.29,1.29,0,0,0-1.121.565A3.076,3.076,0,0,0,11.587-3.626ZM21.841-2.044a.637.637,0,0,0-.359-.571,4.077,4.077,0,0,0-1.152-.373q-2.639-.554-2.639-2.242a2.032,2.032,0,0,1,.817-1.644,3.3,3.3,0,0,1,2.136-.66A3.547,3.547,0,0,1,22.9-6.87a2.09,2.09,0,0,1,.844,1.723H21.766a.956.956,0,0,0-.273-.7,1.157,1.157,0,0,0-.854-.277,1.182,1.182,0,0,0-.772.226.712.712,0,0,0-.273.574.609.609,0,0,0,.311.53,3.2,3.2,0,0,0,1.049.349,8.571,8.571,0,0,1,1.244.332,2.044,2.044,0,0,1,1.565,1.989,1.929,1.929,0,0,1-.868,1.637,3.745,3.745,0,0,1-2.242.625A3.912,3.912,0,0,1,19-.195,2.77,2.77,0,0,1,17.869-1.1a2.113,2.113,0,0,1-.41-1.248h1.873a1.031,1.031,0,0,0,.39.807,1.546,1.546,0,0,0,.971.28,1.43,1.43,0,0,0,.858-.215A.67.67,0,0,0,21.841-2.044ZM27.4-9.215V-7.4h1.265v1.449H27.4v3.691a.881.881,0,0,0,.157.588.79.79,0,0,0,.6.178,3.151,3.151,0,0,0,.581-.048v1.5a4.067,4.067,0,0,1-1.2.178,1.886,1.886,0,0,1-2.119-2.1V-5.947h-1.08V-7.4h1.08V-9.215Zm1.853,5.448a4.387,4.387,0,0,1,.424-1.962A3.1,3.1,0,0,1,30.9-7.062a3.56,3.56,0,0,1,1.849-.472,3.368,3.368,0,0,1,2.444.916,3.676,3.676,0,0,1,1.056,2.488l.014.506a3.866,3.866,0,0,1-.95,2.731A3.3,3.3,0,0,1,32.758.137,3.319,3.319,0,0,1,30.2-.889a3.934,3.934,0,0,1-.954-2.789Zm1.976.14a2.765,2.765,0,0,0,.4,1.612,1.308,1.308,0,0,0,1.135.558,1.311,1.311,0,0,0,1.121-.551,3.025,3.025,0,0,0,.4-1.763,2.737,2.737,0,0,0-.4-1.6,1.311,1.311,0,0,0-1.135-.568,1.29,1.29,0,0,0-1.121.565A3.076,3.076,0,0,0,31.227-3.626ZM41.48-2.044a.637.637,0,0,0-.359-.571,4.077,4.077,0,0,0-1.152-.373q-2.639-.554-2.639-2.242a2.032,2.032,0,0,1,.817-1.644,3.3,3.3,0,0,1,2.136-.66,3.547,3.547,0,0,1,2.252.663,2.09,2.09,0,0,1,.844,1.723H41.405a.956.956,0,0,0-.273-.7,1.157,1.157,0,0,0-.854-.277A1.182,1.182,0,0,0,39.5-5.9a.712.712,0,0,0-.273.574.609.609,0,0,0,.311.53,3.2,3.2,0,0,0,1.049.349,8.571,8.571,0,0,1,1.244.332A2.044,2.044,0,0,1,43.4-2.126a1.929,1.929,0,0,1-.868,1.637,3.745,3.745,0,0,1-2.242.625A3.912,3.912,0,0,1,38.64-.195,2.77,2.77,0,0,1,37.509-1.1a2.113,2.113,0,0,1-.41-1.248h1.873a1.031,1.031,0,0,0,.39.807,1.546,1.546,0,0,0,.971.28,1.43,1.43,0,0,0,.858-.215A.67.67,0,0,0,41.48-2.044ZM48.638,0V-5.947h-1.1V-7.4h1.1v-.342a2.774,2.774,0,0,1,.858-2.15,3.452,3.452,0,0,1,2.382-.755,7.9,7.9,0,0,1,2.242.4l-.287,1.634a8.748,8.748,0,0,0-1.039-.256A5.105,5.105,0,0,0,52-8.921q-1.381,0-1.381,1.224v.3h1.456v1.449H50.62V0Zm6.405,0H53.061V-7.4h1.982Zm3.726-7.4V.4a2.646,2.646,0,0,1-.649,1.9,2.468,2.468,0,0,1-1.873.68,4.017,4.017,0,0,1-.978-.116V1.306a3.708,3.708,0,0,0,.622.062q.9,0,.9-.95V-7.4Zm-2.14-1.914a.973.973,0,0,1,.3-.731,1.117,1.117,0,0,1,.81-.287,1.117,1.117,0,0,1,.81.287.973.973,0,0,1,.3.731.97.97,0,0,1-.3.738,1.122,1.122,0,0,1-.8.287,1.122,1.122,0,0,1-.8-.287A.97.97,0,0,1,56.629-9.311Zm3.377,5.544a4.387,4.387,0,0,1,.424-1.962,3.1,3.1,0,0,1,1.22-1.333A3.56,3.56,0,0,1,63.5-7.533a3.368,3.368,0,0,1,2.444.916A3.676,3.676,0,0,1,67-4.129l.014.506a3.866,3.866,0,0,1-.95,2.731A3.3,3.3,0,0,1,63.513.137,3.319,3.319,0,0,1,60.959-.889a3.934,3.934,0,0,1-.954-2.789Zm1.976.14a2.765,2.765,0,0,0,.4,1.612,1.308,1.308,0,0,0,1.135.558,1.311,1.311,0,0,0,1.121-.551,3.025,3.025,0,0,0,.4-1.763,2.737,2.737,0,0,0-.4-1.6A1.311,1.311,0,0,0,63.5-5.94a1.29,1.29,0,0,0-1.121.565A3.076,3.076,0,0,0,61.981-3.626ZM72.235-2.044a.637.637,0,0,0-.359-.571,4.077,4.077,0,0,0-1.152-.373q-2.639-.554-2.639-2.242A2.032,2.032,0,0,1,68.9-6.874a3.3,3.3,0,0,1,2.136-.66,3.547,3.547,0,0,1,2.252.663,2.09,2.09,0,0,1,.844,1.723H72.16a.956.956,0,0,0-.273-.7,1.157,1.157,0,0,0-.854-.277,1.182,1.182,0,0,0-.772.226.712.712,0,0,0-.273.574.609.609,0,0,0,.311.53,3.2,3.2,0,0,0,1.049.349,8.571,8.571,0,0,1,1.244.332,2.044,2.044,0,0,1,1.565,1.989,1.929,1.929,0,0,1-.868,1.637,3.745,3.745,0,0,1-2.242.625A3.912,3.912,0,0,1,69.4-.195,2.77,2.77,0,0,1,68.264-1.1a2.113,2.113,0,0,1-.41-1.248h1.873a1.031,1.031,0,0,0,.39.807,1.546,1.546,0,0,0,.971.28,1.43,1.43,0,0,0,.858-.215A.67.67,0,0,0,72.235-2.044Z" transform="translate(909.051 2842.919)" fill="#12263f"/>
    <path id="Trazado_894657" data-name="Trazado 894657" d="M5.3-3.979a2.5,2.5,0,0,1-1.8.759,2.668,2.668,0,0,1-2.112-.906A3.579,3.579,0,0,1,.588-6.569a3.813,3.813,0,0,1,.427-1.794A3.134,3.134,0,0,1,2.208-9.635a3.31,3.31,0,0,1,1.723-.455,3.165,3.165,0,0,1,1.75.492A3.236,3.236,0,0,1,6.87-8.183,5.081,5.081,0,0,1,7.3-6.07v.731a5.757,5.757,0,0,1-1.237,3.91A4.678,4.678,0,0,1,2.557.089L2.071.1V-1.552l.438-.007Q5.086-1.675,5.3-3.979ZM3.979-4.73A1.382,1.382,0,0,0,4.8-4.977a1.644,1.644,0,0,0,.523-.595v-.813a2.716,2.716,0,0,0-.383-1.559A1.188,1.188,0,0,0,3.917-8.5a1.153,1.153,0,0,0-.978.543A2.311,2.311,0,0,0,2.557-6.59a2.249,2.249,0,0,0,.373,1.336A1.214,1.214,0,0,0,3.979-4.73ZM9.3,2.5l-1.032-.54.246-.444A3.552,3.552,0,0,0,8.989-.15V-1.682h1.668L10.65-.314a3.552,3.552,0,0,1-.383,1.531A3.925,3.925,0,0,1,9.3,2.5Zm9.522-6.61a5.042,5.042,0,0,1-.854,3.158A2.983,2.983,0,0,1,15.47.137,3,3,0,0,1,12.981-.937,4.895,4.895,0,0,1,12.1-4.013V-5.845a4.976,4.976,0,0,1,.865-3.165,3,3,0,0,1,2.492-1.08,3.008,3.008,0,0,1,2.488,1.07,4.879,4.879,0,0,1,.882,3.073ZM16.851-6.129a3.645,3.645,0,0,0-.338-1.8A1.144,1.144,0,0,0,15.456-8.5a1.123,1.123,0,0,0-1.029.537,3.411,3.411,0,0,0-.352,1.68v2.422a3.826,3.826,0,0,0,.332,1.81,1.128,1.128,0,0,0,1.063.592,1.109,1.109,0,0,0,1.046-.568,3.734,3.734,0,0,0,.335-1.738ZM26.858-4.115A5.042,5.042,0,0,1,26-.957,2.983,2.983,0,0,1,23.5.137,3,3,0,0,1,21.014-.937a4.895,4.895,0,0,1-.882-3.076V-5.845A4.976,4.976,0,0,1,21-9.01a3,3,0,0,1,2.492-1.08,3.008,3.008,0,0,1,2.488,1.07,4.879,4.879,0,0,1,.882,3.073ZM24.883-6.129a3.645,3.645,0,0,0-.338-1.8A1.144,1.144,0,0,0,23.488-8.5a1.123,1.123,0,0,0-1.029.537,3.411,3.411,0,0,0-.352,1.68v2.422a3.826,3.826,0,0,0,.332,1.81,1.128,1.128,0,0,0,1.063.592,1.109,1.109,0,0,0,1.046-.568,3.734,3.734,0,0,0,.335-1.738Zm7.93,2.151a2.5,2.5,0,0,1-1.8.759A2.668,2.668,0,0,1,28.9-4.125,3.579,3.579,0,0,1,28.1-6.569a3.813,3.813,0,0,1,.427-1.794,3.134,3.134,0,0,1,1.193-1.271,3.31,3.31,0,0,1,1.723-.455A3.165,3.165,0,0,1,33.2-9.6a3.236,3.236,0,0,1,1.189,1.415,5.081,5.081,0,0,1,.431,2.112v.731a5.757,5.757,0,0,1-1.237,3.91A4.678,4.678,0,0,1,30.071.089L29.586.1V-1.552l.438-.007Q32.6-1.675,32.813-3.979ZM31.493-4.73a1.382,1.382,0,0,0,.824-.246,1.644,1.644,0,0,0,.523-.595v-.813a2.717,2.717,0,0,0-.383-1.559A1.188,1.188,0,0,0,31.432-8.5a1.153,1.153,0,0,0-.978.543,2.311,2.311,0,0,0-.383,1.364,2.249,2.249,0,0,0,.373,1.336A1.214,1.214,0,0,0,31.493-4.73Z" transform="translate(846.051 2928.919)" fill="#12263f"/>
    <path id="Trazado_894662" data-name="Trazado 894662" d="M7.376-4.115A5.042,5.042,0,0,1,6.521-.957,2.983,2.983,0,0,1,4.02.137,3,3,0,0,1,1.531-.937,4.895,4.895,0,0,1,.649-4.013V-5.845A4.976,4.976,0,0,1,1.514-9.01a3,3,0,0,1,2.492-1.08A3.008,3.008,0,0,1,6.494-9.02a4.879,4.879,0,0,1,.882,3.073ZM5.4-6.129a3.645,3.645,0,0,0-.338-1.8A1.144,1.144,0,0,0,4.006-8.5a1.123,1.123,0,0,0-1.029.537,3.411,3.411,0,0,0-.352,1.68v2.422a3.826,3.826,0,0,0,.332,1.81,1.128,1.128,0,0,0,1.063.592,1.109,1.109,0,0,0,1.046-.568A3.734,3.734,0,0,0,5.4-3.762ZM9.3,2.5l-1.032-.54.246-.444A3.552,3.552,0,0,0,8.989-.15V-1.682h1.668L10.65-.314a3.552,3.552,0,0,1-.383,1.531A3.925,3.925,0,0,1,9.3,2.5Zm9.522-6.61a5.042,5.042,0,0,1-.854,3.158A2.983,2.983,0,0,1,15.47.137,3,3,0,0,1,12.981-.937,4.895,4.895,0,0,1,12.1-4.013V-5.845a4.976,4.976,0,0,1,.865-3.165,3,3,0,0,1,2.492-1.08,3.008,3.008,0,0,1,2.488,1.07,4.879,4.879,0,0,1,.882,3.073ZM16.851-6.129a3.645,3.645,0,0,0-.338-1.8A1.144,1.144,0,0,0,15.456-8.5a1.123,1.123,0,0,0-1.029.537,3.411,3.411,0,0,0-.352,1.68v2.422a3.826,3.826,0,0,0,.332,1.81,1.128,1.128,0,0,0,1.063.592,1.109,1.109,0,0,0,1.046-.568,3.734,3.734,0,0,0,.335-1.738Z" transform="translate(593.051 2897.919)" fill="#12263f"/>
    <path id="Trazado_894663" data-name="Trazado 894663" d="M7.5,0H.677V-1.354L3.9-4.785A7.943,7.943,0,0,0,4.877-6.05,2.032,2.032,0,0,0,5.2-7.075,1.52,1.52,0,0,0,4.86-8.118,1.209,1.209,0,0,0,3.9-8.5a1.3,1.3,0,0,0-1.056.461,1.828,1.828,0,0,0-.386,1.213H.479A3.263,3.263,0,0,1,.913-8.483,3.059,3.059,0,0,1,2.14-9.663a3.73,3.73,0,0,1,1.8-.427,3.531,3.531,0,0,1,2.389.738,2.612,2.612,0,0,1,.851,2.085,3.347,3.347,0,0,1-.383,1.5A8.357,8.357,0,0,1,5.482-3.979L3.22-1.593H7.5ZM9.3,2.5l-1.032-.54.246-.444A3.552,3.552,0,0,0,8.989-.15V-1.682h1.668L10.65-.314a3.552,3.552,0,0,1-.383,1.531A3.925,3.925,0,0,1,9.3,2.5Zm4.833-8.347h1.053A1.483,1.483,0,0,0,16.3-6.228a1.378,1.378,0,0,0,.362-1,1.218,1.218,0,0,0-.359-.937,1.391,1.391,0,0,0-.988-.335,1.458,1.458,0,0,0-.95.311,1,1,0,0,0-.383.81H12.011a2.43,2.43,0,0,1,.42-1.4,2.8,2.8,0,0,1,1.176-.967,3.924,3.924,0,0,1,1.665-.349,3.722,3.722,0,0,1,2.475.755,2.577,2.577,0,0,1,.9,2.082A2.094,2.094,0,0,1,18.225-6a2.709,2.709,0,0,1-1.094.882,2.473,2.473,0,0,1,1.254.9A2.448,2.448,0,0,1,18.8-2.789a2.62,2.62,0,0,1-.967,2.126,3.889,3.889,0,0,1-2.56.8,3.688,3.688,0,0,1-2.437-.786,2.567,2.567,0,0,1-.947-2.078h1.976a1.145,1.145,0,0,0,.42.916,1.549,1.549,0,0,0,1.036.355,1.556,1.556,0,0,0,1.1-.373,1.286,1.286,0,0,0,.4-.988q0-1.49-1.641-1.49H14.137Zm11.382-4.2v1.627h-.191a3.356,3.356,0,0,0-2.157.7,2.833,2.833,0,0,0-.981,1.88,2.691,2.691,0,0,1,2-.807,2.535,2.535,0,0,1,2.064.93,3.727,3.727,0,0,1,.766,2.447,3.666,3.666,0,0,1-.42,1.757A3.015,3.015,0,0,1,25.413-.3a3.456,3.456,0,0,1-1.74.438,3.227,3.227,0,0,1-2.54-1.094,4.246,4.246,0,0,1-.967-2.919v-.711a6.389,6.389,0,0,1,.612-2.861,4.486,4.486,0,0,1,1.757-1.921,5.148,5.148,0,0,1,2.656-.687Zm-1.928,4.99a1.578,1.578,0,0,0-.868.249,1.5,1.5,0,0,0-.574.658v.6a2.66,2.66,0,0,0,.39,1.545,1.259,1.259,0,0,0,1.094.556,1.245,1.245,0,0,0,1.029-.5,2.045,2.045,0,0,0,.393-1.3,2.041,2.041,0,0,0-.4-1.31A1.292,1.292,0,0,0,23.591-5.065Zm11.3.95a5.042,5.042,0,0,1-.854,3.158,2.983,2.983,0,0,1-2.5,1.094A3,3,0,0,1,29.046-.937a4.895,4.895,0,0,1-.882-3.076V-5.845a4.976,4.976,0,0,1,.865-3.165,3,3,0,0,1,2.492-1.08,3.008,3.008,0,0,1,2.488,1.07,4.879,4.879,0,0,1,.882,3.073ZM32.915-6.129a3.645,3.645,0,0,0-.338-1.8A1.144,1.144,0,0,0,31.521-8.5a1.123,1.123,0,0,0-1.029.537,3.411,3.411,0,0,0-.352,1.68v2.422a3.826,3.826,0,0,0,.332,1.81,1.128,1.128,0,0,0,1.063.592,1.109,1.109,0,0,0,1.046-.568,3.734,3.734,0,0,0,.335-1.738Z" transform="translate(553.051 2799.919)" fill="#12263f"/>
    <path id="Trazado_894664" data-name="Trazado 894664" d="M5.476,0H3.5V-7.626L1.142-6.9V-8.49L5.264-9.967h.212Zm9.078-3.746h1.128v1.593H14.554V0H12.578V-2.153H8.5L8.408-3.4l4.149-6.556h2Zm-4.177,0h2.2V-7.26l-.13.226ZM17.336,2.5,16.3,1.955l.246-.444A3.552,3.552,0,0,0,17.021-.15V-1.682h1.668L18.683-.314A3.552,3.552,0,0,1,18.3,1.217,3.925,3.925,0,0,1,17.336,2.5ZM24.958,0H22.982V-7.626L20.624-6.9V-8.49l4.122-1.477h.212Zm8.593-10.056v1.627h-.191a3.356,3.356,0,0,0-2.157.7,2.833,2.833,0,0,0-.981,1.88,2.691,2.691,0,0,1,2-.807,2.535,2.535,0,0,1,2.064.93,3.727,3.727,0,0,1,.766,2.447,3.666,3.666,0,0,1-.42,1.757A3.015,3.015,0,0,1,33.445-.3a3.456,3.456,0,0,1-1.74.438,3.227,3.227,0,0,1-2.54-1.094A4.246,4.246,0,0,1,28.2-3.876v-.711a6.389,6.389,0,0,1,.612-2.861,4.486,4.486,0,0,1,1.757-1.921,5.148,5.148,0,0,1,2.656-.687Zm-1.928,4.99a1.578,1.578,0,0,0-.868.249,1.5,1.5,0,0,0-.574.658v.6a2.66,2.66,0,0,0,.39,1.545,1.259,1.259,0,0,0,1.094.556,1.245,1.245,0,0,0,1.029-.5,2.045,2.045,0,0,0,.393-1.3,2.041,2.041,0,0,0-.4-1.31A1.292,1.292,0,0,0,31.623-5.065Zm11.3.95a5.042,5.042,0,0,1-.854,3.158,2.983,2.983,0,0,1-2.5,1.094A3,3,0,0,1,37.078-.937,4.895,4.895,0,0,1,36.2-4.013V-5.845a4.976,4.976,0,0,1,.865-3.165,3,3,0,0,1,2.492-1.08,3.008,3.008,0,0,1,2.488,1.07,4.879,4.879,0,0,1,.882,3.073ZM40.947-6.129a3.645,3.645,0,0,0-.338-1.8A1.144,1.144,0,0,0,39.553-8.5a1.123,1.123,0,0,0-1.029.537,3.411,3.411,0,0,0-.352,1.68v2.422a3.826,3.826,0,0,0,.332,1.81,1.128,1.128,0,0,0,1.063.592,1.109,1.109,0,0,0,1.046-.568,3.734,3.734,0,0,0,.335-1.738Z" transform="translate(545.051 2715.919)" fill="#12263f"/>
    <path id="Trazado_894667" data-name="Trazado 894667" d="M3.568-9.953,6.125-2.734,8.668-9.953h2.693V0H9.3V-2.721l.205-4.7L6.822,0H5.414L2.734-7.41l.205,4.689V0H.889V-9.953ZM15.107,0H13.125V-7.4h1.982Zm-2.1-9.311a.973.973,0,0,1,.3-.731,1.117,1.117,0,0,1,.81-.287,1.12,1.12,0,0,1,.807.287.967.967,0,0,1,.3.731.97.97,0,0,1-.3.738,1.122,1.122,0,0,1-.8.287,1.122,1.122,0,0,1-.8-.287A.97.97,0,0,1,13.009-9.311ZM18.819,0H16.837V-10.5h1.982Zm9.755-2.618a1.251,1.251,0,0,0-.311-.892,2.819,2.819,0,0,0-1.056-.612,12.46,12.46,0,0,1-1.285-.557A4.094,4.094,0,0,1,25-5.315a2.554,2.554,0,0,1-.6-.844,2.833,2.833,0,0,1-.215-1.155,2.564,2.564,0,0,1,.738-1.894,3.115,3.115,0,0,1,1.962-.861v-1.463h1.094v1.483a2.855,2.855,0,0,1,1.894,1.008,3.322,3.322,0,0,1,.684,2.17H28.574A1.886,1.886,0,0,0,28.236-8.1,1.118,1.118,0,0,0,27.33-8.5a1.152,1.152,0,0,0-.868.318,1.21,1.21,0,0,0-.308.878,1.156,1.156,0,0,0,.3.834,3.314,3.314,0,0,0,1.118.643,12.413,12.413,0,0,1,1.343.619,3.877,3.877,0,0,1,.889.656,2.542,2.542,0,0,1,.554.834,2.867,2.867,0,0,1,.191,1.09,2.552,2.552,0,0,1-.725,1.887,3.178,3.178,0,0,1-2,.854V1.47H26.742V.116a3.288,3.288,0,0,1-2.17-.995A3.206,3.206,0,0,1,23.8-3.124h1.976a1.818,1.818,0,0,0,.386,1.248,1.409,1.409,0,0,0,1.111.434,1.357,1.357,0,0,0,.95-.318A1.1,1.1,0,0,0,28.574-2.618Z" transform="translate(558.051 2605.919)" fill="#12263f"/>
    <path id="Trazado_894668" data-name="Trazado 894668" d="M.848-4.047a10.491,10.491,0,0,1,.417-2.98A7.865,7.865,0,0,1,2.5-9.533a4.6,4.6,0,0,1,1.764-1.514L4.642-9.98A4.758,4.758,0,0,0,3.083-7.7a10.572,10.572,0,0,0-.561,3.609v.212A10.774,10.774,0,0,0,3.076-.253,4.851,4.851,0,0,0,4.642,2.064L4.259,3.11A4.6,4.6,0,0,1,2.526,1.637,7.734,7.734,0,0,1,1.3-.8,10.428,10.428,0,0,1,.848-3.685ZM9.386-5.469l2.071-4.484H13.7L10.432-3.609V0H8.347V-3.609L5.079-9.953H7.328ZM18.02-3.89a9.955,9.955,0,0,1-.444,2.974A8.072,8.072,0,0,1,16.3,1.606a4.606,4.606,0,0,1-1.784,1.5L14.13,2.064A4.807,4.807,0,0,0,15.661-.191,10.446,10.446,0,0,0,16.242-3.7v-.362a10.682,10.682,0,0,0-.557-3.6A5.011,5.011,0,0,0,14.13-10l.383-1.046a4.607,4.607,0,0,1,1.753,1.463,7.968,7.968,0,0,1,1.278,2.468A9.884,9.884,0,0,1,18.02-4.2Z" transform="translate(595.051 2583.919)" fill="#12263f"/>
    <path id="Trazado_894658" data-name="Trazado 894658" d="M.848-4.047a10.491,10.491,0,0,1,.417-2.98A7.865,7.865,0,0,1,2.5-9.533a4.6,4.6,0,0,1,1.764-1.514L4.642-9.98A4.758,4.758,0,0,0,3.083-7.7a10.572,10.572,0,0,0-.561,3.609v.212A10.774,10.774,0,0,0,3.076-.253,4.851,4.851,0,0,0,4.642,2.064L4.259,3.11A4.6,4.6,0,0,1,2.526,1.637,7.734,7.734,0,0,1,1.3-.8,10.428,10.428,0,0,1,.848-3.685ZM9.365-6.521l1.866-3.432H13.59l-2.9,4.936L13.665,0H11.279L9.365-3.486,7.451,0H5.065L8.039-5.018l-2.9-4.936H7.5ZM17.972-3.89a9.955,9.955,0,0,1-.444,2.974,8.072,8.072,0,0,1-1.278,2.522,4.606,4.606,0,0,1-1.784,1.5l-.383-1.046A4.807,4.807,0,0,0,15.613-.191,10.446,10.446,0,0,0,16.194-3.7v-.362a10.682,10.682,0,0,0-.557-3.6A5.011,5.011,0,0,0,14.082-10l.383-1.046a4.607,4.607,0,0,1,1.753,1.463A7.968,7.968,0,0,1,17.5-7.116,9.884,9.884,0,0,1,17.972-4.2Z" transform="translate(956.051 2928.919)" fill="#12263f"/>
    <path id="Trazado_894659" data-name="Trazado 894659" d="M-13.255-3.315A3.522,3.522,0,0,1-14.441-.786a4.165,4.165,0,0,1-2.82.923,3.745,3.745,0,0,1-3.011-1.289,5.284,5.284,0,0,1-1.1-3.538V-5.3a5.966,5.966,0,0,1,.506-2.529,3.791,3.791,0,0,1,1.446-1.678,4.05,4.05,0,0,1,2.184-.584,4.058,4.058,0,0,1,2.775.923,3.785,3.785,0,0,1,1.217,2.591h-2.051a2.079,2.079,0,0,0-.537-1.4,1.987,1.987,0,0,0-1.4-.434,1.742,1.742,0,0,0-1.535.735,4.118,4.118,0,0,0-.523,2.28v.752A4.408,4.408,0,0,0-18.8-2.283a1.71,1.71,0,0,0,1.542.745,2.025,2.025,0,0,0,1.418-.434,1.961,1.961,0,0,0,.537-1.343Zm.909-.451a4.387,4.387,0,0,1,.424-1.962A3.1,3.1,0,0,1-10.7-7.062a3.56,3.56,0,0,1,1.849-.472,3.368,3.368,0,0,1,2.444.916A3.676,3.676,0,0,1-5.353-4.129l.014.506a3.866,3.866,0,0,1-.95,2.731A3.3,3.3,0,0,1-8.839.137,3.319,3.319,0,0,1-11.392-.889a3.934,3.934,0,0,1-.954-2.789Zm1.976.14a2.765,2.765,0,0,0,.4,1.612,1.308,1.308,0,0,0,1.135.558,1.311,1.311,0,0,0,1.121-.551,3.025,3.025,0,0,0,.4-1.763,2.737,2.737,0,0,0-.4-1.6A1.311,1.311,0,0,0-8.853-5.94a1.29,1.29,0,0,0-1.121.565A3.076,3.076,0,0,0-10.37-3.626ZM-.116-2.044a.637.637,0,0,0-.359-.571,4.077,4.077,0,0,0-1.152-.373q-2.639-.554-2.639-2.242a2.032,2.032,0,0,1,.817-1.644,3.3,3.3,0,0,1,2.136-.66A3.547,3.547,0,0,1,.94-6.87a2.09,2.09,0,0,1,.844,1.723H-.191a.956.956,0,0,0-.273-.7,1.157,1.157,0,0,0-.854-.277,1.182,1.182,0,0,0-.772.226.712.712,0,0,0-.273.574.609.609,0,0,0,.311.53A3.2,3.2,0,0,0-1-4.447a8.571,8.571,0,0,1,1.244.332A2.044,2.044,0,0,1,1.8-2.126,1.929,1.929,0,0,1,.937-.489,3.745,3.745,0,0,1-1.306.137,3.912,3.912,0,0,1-2.957-.195,2.77,2.77,0,0,1-4.088-1.1,2.113,2.113,0,0,1-4.5-2.352h1.873a1.031,1.031,0,0,0,.39.807,1.546,1.546,0,0,0,.971.28A1.43,1.43,0,0,0-.407-1.48.67.67,0,0,0-.116-2.044ZM5.441-9.215V-7.4H6.706v1.449H5.441v3.691a.881.881,0,0,0,.157.588.79.79,0,0,0,.6.178,3.151,3.151,0,0,0,.581-.048v1.5a4.067,4.067,0,0,1-1.2.178,1.886,1.886,0,0,1-2.119-2.1V-5.947H2.386V-7.4h1.08V-9.215ZM7.294-3.767a4.387,4.387,0,0,1,.424-1.962,3.1,3.1,0,0,1,1.22-1.333,3.56,3.56,0,0,1,1.849-.472,3.368,3.368,0,0,1,2.444.916,3.676,3.676,0,0,1,1.056,2.488l.014.506a3.866,3.866,0,0,1-.95,2.731A3.3,3.3,0,0,1,10.8.137,3.319,3.319,0,0,1,8.248-.889a3.934,3.934,0,0,1-.954-2.789Zm1.976.14a2.765,2.765,0,0,0,.4,1.612,1.308,1.308,0,0,0,1.135.558,1.311,1.311,0,0,0,1.121-.551,3.025,3.025,0,0,0,.4-1.763,2.737,2.737,0,0,0-.4-1.6,1.311,1.311,0,0,0-1.135-.568,1.29,1.29,0,0,0-1.121.565A3.076,3.076,0,0,0,9.27-3.626ZM19.523-2.044a.637.637,0,0,0-.359-.571,4.077,4.077,0,0,0-1.152-.373q-2.639-.554-2.639-2.242a2.032,2.032,0,0,1,.817-1.644,3.3,3.3,0,0,1,2.136-.66,3.547,3.547,0,0,1,2.252.663,2.09,2.09,0,0,1,.844,1.723H19.448a.956.956,0,0,0-.273-.7,1.157,1.157,0,0,0-.854-.277,1.182,1.182,0,0,0-.772.226.712.712,0,0,0-.273.574.609.609,0,0,0,.311.53,3.2,3.2,0,0,0,1.049.349,8.571,8.571,0,0,1,1.244.332,2.044,2.044,0,0,1,1.565,1.989,1.929,1.929,0,0,1-.868,1.637,3.745,3.745,0,0,1-2.242.625,3.912,3.912,0,0,1-1.651-.332A2.77,2.77,0,0,1,15.552-1.1a2.113,2.113,0,0,1-.41-1.248h1.873a1.031,1.031,0,0,0,.39.807,1.546,1.546,0,0,0,.971.28,1.43,1.43,0,0,0,.858-.215A.67.67,0,0,0,19.523-2.044ZM-14.554,9.708H-17.6V18h-2.051V9.708h-3.008V8.047h8.107Zm-.69,4.525a4.387,4.387,0,0,1,.424-1.962,3.1,3.1,0,0,1,1.22-1.333,3.56,3.56,0,0,1,1.849-.472,3.368,3.368,0,0,1,2.444.916,3.676,3.676,0,0,1,1.056,2.488l.014.506a3.866,3.866,0,0,1-.95,2.731,3.3,3.3,0,0,1-2.55,1.029,3.319,3.319,0,0,1-2.553-1.025,3.934,3.934,0,0,1-.954-2.789Zm1.976.14a2.765,2.765,0,0,0,.4,1.612,1.308,1.308,0,0,0,1.135.558,1.311,1.311,0,0,0,1.121-.551,3.025,3.025,0,0,0,.4-1.763,2.737,2.737,0,0,0-.4-1.6,1.311,1.311,0,0,0-1.135-.568,1.29,1.29,0,0,0-1.121.565A3.076,3.076,0,0,0-13.269,14.374Zm8.613-5.588V10.6h1.265v1.449H-4.655v3.691a.881.881,0,0,0,.157.588.79.79,0,0,0,.6.178,3.151,3.151,0,0,0,.581-.048v1.5a4.067,4.067,0,0,1-1.2.178,1.886,1.886,0,0,1-2.119-2.1V12.053h-1.08V10.6h1.08V8.785ZM2,18a2.194,2.194,0,0,1-.2-.663,2.39,2.39,0,0,1-1.866.8,2.626,2.626,0,0,1-1.8-.629,2.023,2.023,0,0,1-.714-1.586,2.09,2.09,0,0,1,.872-1.8,4.3,4.3,0,0,1,2.519-.636h.909v-.424a1.219,1.219,0,0,0-.263-.82,1.035,1.035,0,0,0-.831-.308,1.177,1.177,0,0,0-.783.239.813.813,0,0,0-.284.656H-2.42a1.984,1.984,0,0,1,.4-1.189A2.621,2.621,0,0,1-.9,10.778a4.086,4.086,0,0,1,1.627-.311,3.228,3.228,0,0,1,2.17.687,2.4,2.4,0,0,1,.8,1.931v3.206a3.536,3.536,0,0,0,.294,1.593V18ZM.362,16.626a1.7,1.7,0,0,0,.807-.195,1.28,1.28,0,0,0,.547-.523V14.637H.978q-1.483,0-1.579,1.025l-.007.116a.791.791,0,0,0,.26.608A1.009,1.009,0,0,0,.362,16.626ZM7.3,18H5.318V7.5H7.3Zm5.031.137a3.631,3.631,0,0,1-2.649-1,3.548,3.548,0,0,1-1.022-2.659v-.191A4.468,4.468,0,0,1,9.092,12.3a3.161,3.161,0,0,1,1.22-1.354,3.425,3.425,0,0,1,1.8-.475,3.07,3.07,0,0,1,2.389.957,3.889,3.889,0,0,1,.872,2.714v.807h-4.71a1.835,1.835,0,0,0,.578,1.162,1.746,1.746,0,0,0,1.22.438,2.132,2.132,0,0,0,1.784-.827l.971,1.087a2.966,2.966,0,0,1-1.2.981A3.947,3.947,0,0,1,12.332,18.137Zm-.226-6.077a1.234,1.234,0,0,0-.954.4,2.062,2.062,0,0,0-.468,1.14h2.748V13.44a1.471,1.471,0,0,0-.355-1.02A1.274,1.274,0,0,0,12.106,12.06Zm8.395,3.9a.637.637,0,0,0-.359-.571,4.077,4.077,0,0,0-1.152-.373q-2.639-.554-2.639-2.242a2.032,2.032,0,0,1,.817-1.644,3.3,3.3,0,0,1,2.136-.66,3.547,3.547,0,0,1,2.252.663,2.09,2.09,0,0,1,.844,1.723H20.426a.956.956,0,0,0-.273-.7,1.157,1.157,0,0,0-.854-.277,1.182,1.182,0,0,0-.772.226.712.712,0,0,0-.273.574.609.609,0,0,0,.311.53,3.2,3.2,0,0,0,1.049.349,8.571,8.571,0,0,1,1.244.332,2.044,2.044,0,0,1,1.565,1.989,1.929,1.929,0,0,1-.868,1.637,3.745,3.745,0,0,1-2.242.625,3.912,3.912,0,0,1-1.651-.332,2.77,2.77,0,0,1-1.131-.909,2.113,2.113,0,0,1-.41-1.248h1.873a1.031,1.031,0,0,0,.39.807,1.546,1.546,0,0,0,.971.28,1.43,1.43,0,0,0,.858-.215A.67.67,0,0,0,20.5,15.956Z" transform="translate(1032.051 2680.919)" fill="#fff"/>
    <path id="Trazado_894670" data-name="Trazado 894670" d="M-36.511,0h-2.051V-9.953h2.051Zm3.589-7.4.062.854a2.582,2.582,0,0,1,2.126-.991,2.146,2.146,0,0,1,1.75.69A3.221,3.221,0,0,1-28.4-4.778V0h-1.976V-4.741a1.287,1.287,0,0,0-.273-.915,1.222,1.222,0,0,0-.909-.284,1.359,1.359,0,0,0-1.251.713V0h-1.976V-7.4Zm5.735,3.644a4.335,4.335,0,0,1,.81-2.741,2.625,2.625,0,0,1,2.184-1.039A2.3,2.3,0,0,1-22.3-6.7l.082-.7h1.791v7.15a3.161,3.161,0,0,1-.441,1.688,2.832,2.832,0,0,1-1.241,1.094,4.362,4.362,0,0,1-1.873.376,4.056,4.056,0,0,1-1.586-.325,2.815,2.815,0,0,1-1.169-.837l.875-1.2a2.314,2.314,0,0,0,1.791.827,1.694,1.694,0,0,0,1.224-.42,1.577,1.577,0,0,0,.438-1.193v-.4a2.285,2.285,0,0,1-1.8.772A2.618,2.618,0,0,1-26.363-.906a4.334,4.334,0,0,1-.824-2.765Zm1.976.141a2.714,2.714,0,0,0,.4,1.583,1.282,1.282,0,0,0,1.107.573,1.371,1.371,0,0,0,1.292-.68V-5.261a1.368,1.368,0,0,0-1.278-.68,1.29,1.29,0,0,0-1.118.584A3.059,3.059,0,0,0-25.211-3.612Zm10.459-1.932a5.367,5.367,0,0,0-.711-.055,1.447,1.447,0,0,0-1.47.759V0h-1.976V-7.4h1.866l.055.882A1.831,1.831,0,0,1-15.34-7.533a2.07,2.07,0,0,1,.615.089ZM-10.527.137a3.631,3.631,0,0,1-2.649-1A3.548,3.548,0,0,1-14.2-3.521v-.191A4.468,4.468,0,0,1-13.768-5.7a3.161,3.161,0,0,1,1.22-1.354,3.425,3.425,0,0,1,1.8-.475,3.07,3.07,0,0,1,2.389.957,3.889,3.889,0,0,1,.872,2.714v.807H-12.2a1.835,1.835,0,0,0,.578,1.162,1.746,1.746,0,0,0,1.22.438,2.132,2.132,0,0,0,1.784-.827L-7.643-1.2a2.966,2.966,0,0,1-1.2.981A3.947,3.947,0,0,1-10.527.137Zm-.226-6.077a1.234,1.234,0,0,0-.954.4,2.062,2.062,0,0,0-.468,1.14h2.748V-4.56a1.471,1.471,0,0,0-.355-1.02A1.274,1.274,0,0,0-10.753-5.94Zm8.395,3.9a.637.637,0,0,0-.359-.571,4.077,4.077,0,0,0-1.152-.373q-2.639-.554-2.639-2.242a2.032,2.032,0,0,1,.817-1.644,3.3,3.3,0,0,1,2.136-.66A3.547,3.547,0,0,1-1.3-6.87,2.09,2.09,0,0,1-.458-5.147H-2.434a.956.956,0,0,0-.273-.7,1.157,1.157,0,0,0-.854-.277,1.182,1.182,0,0,0-.772.226.712.712,0,0,0-.273.574A.609.609,0,0,0-4.3-4.8a3.2,3.2,0,0,0,1.049.349A8.571,8.571,0,0,1-2-4.115,2.044,2.044,0,0,1-.437-2.126,1.929,1.929,0,0,1-1.306-.489,3.745,3.745,0,0,1-3.548.137,3.912,3.912,0,0,1-5.2-.195,2.77,2.77,0,0,1-6.33-1.1a2.113,2.113,0,0,1-.41-1.248h1.873a1.031,1.031,0,0,0,.39.807,1.546,1.546,0,0,0,.971.28,1.43,1.43,0,0,0,.858-.215A.67.67,0,0,0-2.358-2.044ZM.526-3.767A4.387,4.387,0,0,1,.95-5.729,3.1,3.1,0,0,1,2.17-7.062,3.56,3.56,0,0,1,4.02-7.533a3.368,3.368,0,0,1,2.444.916A3.676,3.676,0,0,1,7.52-4.129l.014.506a3.866,3.866,0,0,1-.95,2.731A3.3,3.3,0,0,1,4.033.137,3.319,3.319,0,0,1,1.48-.889,3.934,3.934,0,0,1,.526-3.678Zm1.976.14a2.765,2.765,0,0,0,.4,1.612,1.308,1.308,0,0,0,1.135.558,1.311,1.311,0,0,0,1.121-.551,3.025,3.025,0,0,0,.4-1.763,2.737,2.737,0,0,0-.4-1.6A1.311,1.311,0,0,0,4.02-5.94,1.29,1.29,0,0,0,2.9-5.376,3.076,3.076,0,0,0,2.5-3.626ZM12.756-2.044a.637.637,0,0,0-.359-.571,4.077,4.077,0,0,0-1.152-.373Q8.606-3.541,8.606-5.229a2.032,2.032,0,0,1,.817-1.644,3.3,3.3,0,0,1,2.136-.66,3.547,3.547,0,0,1,2.252.663,2.09,2.09,0,0,1,.844,1.723H12.681a.956.956,0,0,0-.273-.7,1.157,1.157,0,0,0-.854-.277,1.182,1.182,0,0,0-.772.226.712.712,0,0,0-.273.574.609.609,0,0,0,.311.53,3.2,3.2,0,0,0,1.049.349,8.571,8.571,0,0,1,1.244.332,2.044,2.044,0,0,1,1.565,1.989,1.929,1.929,0,0,1-.868,1.637,3.745,3.745,0,0,1-2.242.625A3.912,3.912,0,0,1,9.916-.195,2.77,2.77,0,0,1,8.784-1.1a2.113,2.113,0,0,1-.41-1.248h1.873a1.031,1.031,0,0,0,.39.807,1.546,1.546,0,0,0,.971.28,1.43,1.43,0,0,0,.858-.215A.67.67,0,0,0,12.756-2.044ZM26.093-3.63a4.436,4.436,0,0,1-.776,2.738,2.488,2.488,0,0,1-2.1,1.029A2.3,2.3,0,0,1,21.41-.643V2.844H19.435V-7.4h1.832l.068.725a2.322,2.322,0,0,1,1.873-.861,2.5,2.5,0,0,1,2.126,1.012,4.556,4.556,0,0,1,.759,2.789ZM24.117-3.78a2.927,2.927,0,0,0-.366-1.6,1.19,1.19,0,0,0-1.063-.562,1.293,1.293,0,0,0-1.278.713V-2.19a1.315,1.315,0,0,0,1.292.734Q24.117-1.456,24.117-3.78Zm2.892.014a4.387,4.387,0,0,1,.424-1.962,3.1,3.1,0,0,1,1.22-1.333A3.56,3.56,0,0,1,30.5-7.533a3.368,3.368,0,0,1,2.444.916A3.676,3.676,0,0,1,34-4.129l.014.506a3.866,3.866,0,0,1-.95,2.731A3.3,3.3,0,0,1,30.516.137,3.319,3.319,0,0,1,27.962-.889a3.934,3.934,0,0,1-.954-2.789Zm1.976.14a2.765,2.765,0,0,0,.4,1.612,1.308,1.308,0,0,0,1.135.558,1.311,1.311,0,0,0,1.121-.551,3.025,3.025,0,0,0,.4-1.763,2.737,2.737,0,0,0-.4-1.6A1.311,1.311,0,0,0,30.5-5.94a1.29,1.29,0,0,0-1.121.565A3.076,3.076,0,0,0,28.984-3.626Zm10.4-1.918a5.367,5.367,0,0,0-.711-.055,1.447,1.447,0,0,0-1.47.759V0H35.232V-7.4H37.1l.055.882A1.831,1.831,0,0,1,38.8-7.533a2.07,2.07,0,0,1,.615.089ZM-28.663,15.532l2.256-7.485h2.283L-27.59,18h-2.14l-3.452-9.953h2.276Zm8.449,2.6a3.631,3.631,0,0,1-2.649-1,3.548,3.548,0,0,1-1.022-2.659v-.191a4.468,4.468,0,0,1,.431-1.993,3.161,3.161,0,0,1,1.22-1.354,3.425,3.425,0,0,1,1.8-.475,3.07,3.07,0,0,1,2.389.957,3.889,3.889,0,0,1,.872,2.714v.807h-4.71a1.835,1.835,0,0,0,.578,1.162,1.746,1.746,0,0,0,1.22.438,2.132,2.132,0,0,0,1.784-.827l.971,1.087a2.966,2.966,0,0,1-1.2.981A3.947,3.947,0,0,1-20.214,18.137Zm-.226-6.077a1.234,1.234,0,0,0-.954.4,2.062,2.062,0,0,0-.468,1.14h2.748V13.44a1.471,1.471,0,0,0-.355-1.02A1.274,1.274,0,0,0-20.439,12.06Zm6.207-1.456.062.854a2.582,2.582,0,0,1,2.126-.991,2.146,2.146,0,0,1,1.75.69,3.221,3.221,0,0,1,.588,2.064V18h-1.976V13.259a1.287,1.287,0,0,0-.273-.915,1.222,1.222,0,0,0-.909-.284,1.359,1.359,0,0,0-1.251.713V18h-1.976V10.6Zm8.388-1.818V10.6H-4.58v1.449H-5.845v3.691a.881.881,0,0,0,.157.588.79.79,0,0,0,.6.178,3.151,3.151,0,0,0,.581-.048v1.5a4.067,4.067,0,0,1-1.2.178,1.886,1.886,0,0,1-2.119-2.1V12.053H-8.9V10.6h1.08V8.785ZM.807,18a2.194,2.194,0,0,1-.2-.663,2.39,2.39,0,0,1-1.866.8,2.626,2.626,0,0,1-1.8-.629,2.023,2.023,0,0,1-.714-1.586,2.09,2.09,0,0,1,.872-1.8,4.3,4.3,0,0,1,2.519-.636H.526v-.424a1.219,1.219,0,0,0-.263-.82,1.035,1.035,0,0,0-.831-.308,1.177,1.177,0,0,0-.783.239.813.813,0,0,0-.284.656H-3.609a1.984,1.984,0,0,1,.4-1.189,2.621,2.621,0,0,1,1.121-.858,4.086,4.086,0,0,1,1.627-.311,3.228,3.228,0,0,1,2.17.687,2.4,2.4,0,0,1,.8,1.931v3.206A3.536,3.536,0,0,0,2.8,17.884V18ZM-.827,16.626a1.7,1.7,0,0,0,.807-.195,1.28,1.28,0,0,0,.547-.523V14.637H-.212q-1.483,0-1.579,1.025l-.007.116a.791.791,0,0,0,.26.608A1.009,1.009,0,0,0-.827,16.626Zm8.859-.67a.637.637,0,0,0-.359-.571,4.077,4.077,0,0,0-1.152-.373q-2.639-.554-2.639-2.242A2.032,2.032,0,0,1,4.7,11.126a3.3,3.3,0,0,1,2.136-.66,3.547,3.547,0,0,1,2.252.663,2.09,2.09,0,0,1,.844,1.723H7.957a.956.956,0,0,0-.273-.7,1.157,1.157,0,0,0-.854-.277,1.182,1.182,0,0,0-.772.226.712.712,0,0,0-.273.574.609.609,0,0,0,.311.53,3.2,3.2,0,0,0,1.049.349,8.571,8.571,0,0,1,1.244.332,2.044,2.044,0,0,1,1.565,1.989,1.929,1.929,0,0,1-.868,1.637,3.745,3.745,0,0,1-2.242.625,3.912,3.912,0,0,1-1.651-.332A2.77,2.77,0,0,1,4.061,16.9a2.113,2.113,0,0,1-.41-1.248H5.523a1.031,1.031,0,0,0,.39.807,1.546,1.546,0,0,0,.971.28,1.43,1.43,0,0,0,.858-.215A.67.67,0,0,0,8.032,15.956Zm6.768-2a10.491,10.491,0,0,1,.417-2.98,7.865,7.865,0,0,1,1.23-2.505,4.6,4.6,0,0,1,1.764-1.514l.383,1.066A4.758,4.758,0,0,0,17.035,10.3a10.572,10.572,0,0,0-.561,3.609v.212a10.774,10.774,0,0,0,.554,3.623,4.851,4.851,0,0,0,1.565,2.317l-.383,1.046a4.6,4.6,0,0,1-1.733-1.473A7.734,7.734,0,0,1,15.251,17.2a10.429,10.429,0,0,1-.451-2.885Zm8.771,1.579,2.256-7.485h2.283L24.644,18H22.5L19.052,8.047h2.276Zm8.887-1.422a9.955,9.955,0,0,1-.444,2.974,8.072,8.072,0,0,1-1.278,2.522,4.606,4.606,0,0,1-1.784,1.5l-.383-1.046A4.807,4.807,0,0,0,30.1,17.809,10.446,10.446,0,0,0,30.68,14.3v-.362a10.682,10.682,0,0,0-.557-3.6A5.011,5.011,0,0,0,28.567,8l.383-1.046A4.607,4.607,0,0,1,30.7,8.416a7.968,7.968,0,0,1,1.278,2.468,9.884,9.884,0,0,1,.475,2.919Z" transform="translate(967.051 2546.919)" fill="#fff"/>
    <path id="Trazado_894665" data-name="Trazado 894665" d="M-25.1-3.507V0h-2.051V-9.953h3.883a4.492,4.492,0,0,1,1.972.41,3.022,3.022,0,0,1,1.309,1.166,3.25,3.25,0,0,1,.458,1.719,2.858,2.858,0,0,1-1,2.307,4.171,4.171,0,0,1-2.772.844Zm0-1.661h1.832a1.8,1.8,0,0,0,1.241-.383A1.392,1.392,0,0,0-21.6-6.645a1.642,1.642,0,0,0-.431-1.183,1.609,1.609,0,0,0-1.189-.465H-25.1ZM-13.826-.752a2.477,2.477,0,0,1-2.023.889,2.337,2.337,0,0,1-1.815-.684,2.918,2.918,0,0,1-.639-2V-7.4h1.976v4.784q0,1.157,1.053,1.157a1.426,1.426,0,0,0,1.381-.7V-7.4h1.982V0h-1.859ZM-8.6-7.4l.062.854a2.582,2.582,0,0,1,2.126-.991,2.146,2.146,0,0,1,1.75.69,3.221,3.221,0,0,1,.588,2.064V0H-6.053V-4.741a1.287,1.287,0,0,0-.273-.915,1.222,1.222,0,0,0-.909-.284,1.359,1.359,0,0,0-1.251.713V0h-1.976V-7.4ZM-.215-9.215V-7.4H1.049v1.449H-.215v3.691a.881.881,0,0,0,.157.588.79.79,0,0,0,.6.178,3.151,3.151,0,0,0,.581-.048v1.5a4.067,4.067,0,0,1-1.2.178,1.886,1.886,0,0,1-2.119-2.1V-5.947h-1.08V-7.4h1.08V-9.215ZM1.637-3.767a4.387,4.387,0,0,1,.424-1.962,3.1,3.1,0,0,1,1.22-1.333A3.56,3.56,0,0,1,5.13-7.533a3.368,3.368,0,0,1,2.444.916A3.676,3.676,0,0,1,8.63-4.129l.014.506a3.866,3.866,0,0,1-.95,2.731A3.3,3.3,0,0,1,5.144.137,3.319,3.319,0,0,1,2.591-.889a3.934,3.934,0,0,1-.954-2.789Zm1.976.14a2.765,2.765,0,0,0,.4,1.612,1.308,1.308,0,0,0,1.135.558,1.311,1.311,0,0,0,1.121-.551,3.025,3.025,0,0,0,.4-1.763,2.737,2.737,0,0,0-.4-1.6A1.311,1.311,0,0,0,5.13-5.94a1.29,1.29,0,0,0-1.121.565A3.076,3.076,0,0,0,3.613-3.626Zm9.427-.127a4.457,4.457,0,0,1,.776-2.755,2.517,2.517,0,0,1,2.123-1.025,2.265,2.265,0,0,1,1.784.807V-10.5H19.7V0H17.92l-.1-.786a2.325,2.325,0,0,1-1.9.923,2.511,2.511,0,0,1-2.1-1.029A4.6,4.6,0,0,1,13.04-3.753Zm1.976.141a2.936,2.936,0,0,0,.362,1.6,1.179,1.179,0,0,0,1.053.556,1.321,1.321,0,0,0,1.292-.776V-5.164a1.3,1.3,0,0,0-1.278-.776Q15.015-5.94,15.015-3.612ZM24.64.137a3.631,3.631,0,0,1-2.649-1,3.548,3.548,0,0,1-1.022-2.659v-.191A4.468,4.468,0,0,1,21.4-5.7a3.161,3.161,0,0,1,1.22-1.354,3.425,3.425,0,0,1,1.8-.475,3.07,3.07,0,0,1,2.389.957,3.889,3.889,0,0,1,.872,2.714v.807h-4.71a1.835,1.835,0,0,0,.578,1.162,1.746,1.746,0,0,0,1.22.438,2.132,2.132,0,0,0,1.784-.827L27.525-1.2a2.966,2.966,0,0,1-1.2.981A3.947,3.947,0,0,1,24.64.137ZM24.415-5.94a1.234,1.234,0,0,0-.954.4,2.062,2.062,0,0,0-.468,1.14h2.748V-4.56a1.471,1.471,0,0,0-.355-1.02A1.274,1.274,0,0,0,24.415-5.94ZM-25.368,18.137a3.631,3.631,0,0,1-2.649-1,3.548,3.548,0,0,1-1.022-2.659v-.191a4.468,4.468,0,0,1,.431-1.993,3.161,3.161,0,0,1,1.22-1.354,3.425,3.425,0,0,1,1.8-.475,3.07,3.07,0,0,1,2.389.957,3.889,3.889,0,0,1,.872,2.714v.807h-4.71a1.835,1.835,0,0,0,.578,1.162,1.746,1.746,0,0,0,1.22.438,2.132,2.132,0,0,0,1.784-.827l.971,1.087a2.966,2.966,0,0,1-1.2.981A3.947,3.947,0,0,1-25.368,18.137Zm-.226-6.077a1.234,1.234,0,0,0-.954.4,2.062,2.062,0,0,0-.468,1.14h2.748V13.44a1.471,1.471,0,0,0-.355-1.02A1.274,1.274,0,0,0-25.594,12.06Zm4.081,2.174a4.421,4.421,0,0,1,.776-2.755,2.537,2.537,0,0,1,2.129-1.012,2.271,2.271,0,0,1,1.894.909l.13-.772h1.736v10.24H-16.83V17.364a2.277,2.277,0,0,1-1.791.772,2.518,2.518,0,0,1-2.105-1.025A4.638,4.638,0,0,1-21.513,14.233Zm1.976.14a2.9,2.9,0,0,0,.373,1.616,1.193,1.193,0,0,0,1.049.555,1.329,1.329,0,0,0,1.285-.726v-3.06a1.318,1.318,0,0,0-1.271-.7,1.207,1.207,0,0,0-1.06.555A3.2,3.2,0,0,0-19.537,14.374Zm10.671,2.874a2.477,2.477,0,0,1-2.023.889,2.337,2.337,0,0,1-1.815-.684,2.918,2.918,0,0,1-.639-2V10.6h1.976v4.784q0,1.157,1.053,1.157a1.426,1.426,0,0,0,1.381-.7V10.6h1.982V18H-8.812ZM-3.377,18H-5.359V10.6h1.982Zm-2.1-9.311a.973.973,0,0,1,.3-.731,1.117,1.117,0,0,1,.81-.287,1.12,1.12,0,0,1,.807.287.967.967,0,0,1,.3.731.97.97,0,0,1-.3.738,1.122,1.122,0,0,1-.8.287,1.122,1.122,0,0,1-.8-.287A.97.97,0,0,1-5.476,8.689ZM.335,18H-1.647V7.5H.335Zm3.712,0H2.064V10.6H4.047Zm-2.1-9.311a.973.973,0,0,1,.3-.731,1.117,1.117,0,0,1,.81-.287,1.12,1.12,0,0,1,.807.287,1.044,1.044,0,0,1,0,1.47,1.122,1.122,0,0,1-.8.287,1.122,1.122,0,0,1-.8-.287A.97.97,0,0,1,1.948,8.689ZM12.339,14.37a4.479,4.479,0,0,1-.759,2.772,2.513,2.513,0,0,1-2.119.995,2.309,2.309,0,0,1-1.921-.923L7.451,18H5.674V7.5H7.649v3.767a2.25,2.25,0,0,1,1.8-.8,2.534,2.534,0,0,1,2.123.995,4.485,4.485,0,0,1,.769,2.8Zm-1.976-.151a2.959,2.959,0,0,0-.355-1.642,1.2,1.2,0,0,0-1.06-.518,1.3,1.3,0,0,0-1.3.775v2.928a1.32,1.32,0,0,0,1.313.782A1.22,1.22,0,0,0,10.22,15.6,4.9,4.9,0,0,0,10.363,14.22Zm7.349-1.763A5.367,5.367,0,0,0,17,12.4a1.447,1.447,0,0,0-1.47.759V18H13.556V10.6h1.866l.055.882a1.831,1.831,0,0,1,1.647-1.019,2.07,2.07,0,0,1,.615.089ZM20.747,18H18.765V10.6h1.982Zm-2.1-9.311a.973.973,0,0,1,.3-.731,1.281,1.281,0,0,1,1.617,0,1.044,1.044,0,0,1,0,1.47,1.267,1.267,0,0,1-1.606,0A.97.97,0,0,1,18.648,8.689Zm3.418,5.544a4.387,4.387,0,0,1,.424-1.962,3.1,3.1,0,0,1,1.22-1.333,3.56,3.56,0,0,1,1.849-.472A3.368,3.368,0,0,1,28,11.383a3.676,3.676,0,0,1,1.056,2.488l.014.506a3.866,3.866,0,0,1-.95,2.731,3.3,3.3,0,0,1-2.55,1.029,3.319,3.319,0,0,1-2.553-1.025,3.934,3.934,0,0,1-.954-2.789Zm1.976.14a2.765,2.765,0,0,0,.4,1.612,1.424,1.424,0,0,0,2.256.007,3.025,3.025,0,0,0,.4-1.763,2.737,2.737,0,0,0-.4-1.6,1.311,1.311,0,0,0-1.135-.568,1.29,1.29,0,0,0-1.121.565A3.076,3.076,0,0,0,24.042,14.374Z" transform="translate(835.551 2643.255)" fill="#fff"/>
    <path id="Trazado_892618" data-name="Trazado 892618" d="M-1101.143-8837.154s9.714,4.048,9.714,9.715v17.647l7.934,4.372-7.934,6.477v16.677s-2.914,8.9-9.714,9.876" transform="translate(1979.051 11643.919)" fill="none" stroke="#275470" stroke-width="2"/>
    <path id="Trazado_892622" data-name="Trazado 892622" d="M-1101.143-8837.154s2.8,1.167,2.8,2.8v5.088l2.287,1.261-2.287,1.867v4.808s-.84,2.567-2.8,2.848" transform="translate(1979.051 11530.169)" fill="none" stroke="#275470" stroke-width="1.5"/>
    <path id="Trazado_894671" data-name="Trazado 894671" d="M7,0l7,12H0Z" transform="translate(1036.826 2550.485) rotate(48)" fill="#e8397c"/>
    <path id="Trazado_894666" data-name="Trazado 894666" d="M7,0l7,12H0Z" transform="translate(1040.53 2611.822) rotate(65)" fill="#37840f"/>
    <path id="Trazado_892619" data-name="Trazado 892619" d="M-1010.292-9072.29l20.242,18.055-8.524-20.561Z" transform="translate(1979.051 11643.919)" fill="#275470"/>
    <path id="Trazado_892621" data-name="Trazado 892621" d="M-1010.292-9072.29l20.242,18.055-8.524-20.561Z" transform="translate(1848.051 11741.255)" fill="#275470"/>
    <path id="Trazado_892620" data-name="Trazado 892620" d="M-1010.292-9072.29l20.242,18.055-8.524-20.561Z" transform="translate(6.708 -6407.879) rotate(180)" fill="#275470"/>
    <path id="Trazado_892623" data-name="Trazado 892623" d="M-1360.735-8846.746h396.393" transform="translate(1979.051 11643.919)" fill="none" stroke="#aecd9e" stroke-width="1"/>
    <path id="Trazado_892605" data-name="Trazado 892605" d="M-1382.9-9042.746h22.164l415.253-174.815" transform="translate(1979.051 11839.919)" fill="none" stroke="#37840f" stroke-width="2"/>
    <path id="Trazado_892600" data-name="Trazado 892600" d="M-1360.409-9105.064V-8759.4h370.359" transform="translate(1979.051 11643.919)" fill="none" stroke="#12263f" stroke-width="2"/>
  </g>
</svg>
