<svg xmlns="http://www.w3.org/2000/svg" width="52" height="52" viewBox="0 0 52 52">
  <g id="Grupo_1103053" data-name="Grupo 1103053" transform="translate(-180.051 -2552.638)">
    <g id="Grupo_1101588" data-name="Grupo 1101588" transform="translate(-1016.73 -1270.362)">
      <circle id="Elipse_11647" data-name="Elipse 11647" cx="26" cy="26" r="26" transform="translate(1196.781 3823)" fill="#aecd9e"/>
      <g id="cohete" transform="translate(1206.159 3832.378)">
        <circle id="Elipse_11647-2" data-name="Elipse 11647" cx="8.792" cy="8.792" r="8.792" transform="translate(15.561 0.322)" fill="#ffc729"/>
        <circle id="Elipse_11648" data-name="Elipse 11648" cx="6.447" cy="6.447" r="6.447" transform="translate(17.906 2.667)" fill="#fcd770"/>
        <g id="Grupo_1101574" data-name="Grupo 1101574" transform="translate(1.619 14.574)">
          <path id="Trazado_891294" data-name="Trazado 891294" d="M5.841,29.318a1.055,1.055,0,0,1,.318.761A1.08,1.08,0,1,1,5.08,29,1.055,1.055,0,0,1,5.841,29.318Z" transform="translate(-4 -28.46)" fill="#ff826e"/>
          <path id="Trazado_891295" data-name="Trazado 891295" d="M13.841,28.318a1.055,1.055,0,0,1,.318.761A1.08,1.08,0,1,1,13.08,28,1.055,1.055,0,0,1,13.841,28.318Z" transform="translate(-7.682 -28)" fill="#ff826e"/>
          <path id="Trazado_891296" data-name="Trazado 891296" d="M32.841,56.318a1.055,1.055,0,0,1,.318.761A1.08,1.08,0,1,1,32.08,56,1.055,1.055,0,0,1,32.841,56.318Z" transform="translate(-16.426 -40.886)" fill="#ff826e"/>
          <path id="Trazado_891297" data-name="Trazado 891297" d="M33.841,48.318a1.055,1.055,0,0,1,.318.761A1.08,1.08,0,1,1,33.08,48,1.055,1.055,0,0,1,33.841,48.318Z" transform="translate(-16.886 -37.204)" fill="#ff826e"/>
        </g>
        <path id="Trazado_891298" data-name="Trazado 891298" d="M8.478,52.159,7.4,56.478h-.54l-.54-2.159L2.54,56.478H2v-.54l2.159-3.779L2,51.619v-.54L6.318,50Z" transform="translate(-1.46 -23.55)" fill="#aab2bd"/>
        <path id="Trazado_891299" data-name="Trazado 891299" d="M21.6,49.41l-1.312,3.935a3.231,3.231,0,0,1-2.434,2.148L17,55.666V51.45A16.936,16.936,0,0,0,21.6,49.41Z" transform="translate(-8.363 -23.278)" fill="#ff826e"/>
        <path id="Trazado_891300" data-name="Trazado 891300" d="M5.321,39.782,9.256,38.47a16.935,16.935,0,0,0-2.04,4.6H3l.173-.858A3.231,3.231,0,0,1,5.321,39.782Z" transform="translate(-1.92 -18.244)" fill="#ff826e"/>
        <path id="Trazado_891301" data-name="Trazado 891301" d="M18.383,38.333a16.935,16.935,0,0,1-4.6,2.04.531.531,0,0,1-.086.027l-1.533.41L10,38.651l.41-1.533a.53.53,0,0,1,.027-.086A16.927,16.927,0,0,1,21.757,25.34a8.105,8.105,0,0,0,.7,1.134,6.309,6.309,0,0,0,.416.524,2.354,2.354,0,0,0,.221.248q.227.243.47.47a2.354,2.354,0,0,0,.248.221,6.311,6.311,0,0,0,.524.416,8.106,8.106,0,0,0,1.134.7,16.463,16.463,0,0,1-1.112,2.731,16.948,16.948,0,0,1-5.976,6.548Z" transform="translate(-5.142 -12.201)" fill="#e6e9ed"/>
        <circle id="Elipse_11649" data-name="Elipse 11649" cx="1.172" cy="1.172" r="1.172" transform="translate(8.528 22.595)" fill="#69d6f4"/>
        <circle id="Elipse_11650" data-name="Elipse 11650" cx="2.638" cy="2.638" r="2.638" transform="translate(11.459 16.734)" fill="#69d6f4"/>
        <path id="Trazado_891302" data-name="Trazado 891302" d="M34.074,24.178l-.054.011c-.022.005-.038.005-.059.011a15.833,15.833,0,0,0-2.181.524,9.425,9.425,0,0,0,.7,1.134c.13.178.27.351.416.524.07.081.146.167.221.248q.227.243.47.47c.081.076.167.151.248.221.173.146.345.286.524.416a9.425,9.425,0,0,0,1.134.7,15.833,15.833,0,0,0,.524-2.181c.005-.022.005-.038.011-.059l.011-.054A12.948,12.948,0,0,0,36.217,24,12.949,12.949,0,0,0,34.074,24.178Z" transform="translate(-15.165 -11.585)" fill="#ff826e"/>
        <path id="Trazado_891303" data-name="Trazado 891303" d="M44.159,16.557a1.081,1.081,0,0,1-1.08-1.08H42a2.157,2.157,0,0,0,1.619,2.083v1.156H44.7v-1.08h1.619V15.478a2.161,2.161,0,0,0-2.159-2.159,1.081,1.081,0,0,1-1.08-1.08v-1.08h1.08a1.081,1.081,0,0,1,1.08,1.08h1.08A2.157,2.157,0,0,0,44.7,10.156V9h-1.08v1.08H42v2.159A2.161,2.161,0,0,0,44.159,14.4a1.081,1.081,0,0,1,1.08,1.08v1.08Z" transform="translate(-19.868 -4.682)"/>
        <path id="Trazado_891304" data-name="Trazado 891304" d="M53,17h1.08v1.08H53Z" transform="translate(-24.931 -8.363)"/>
        <path id="Trazado_891305" data-name="Trazado 891305" d="M37,17h1.08v1.08H37Z" transform="translate(-17.567 -8.363)"/>
        <path id="Trazado_891306" data-name="Trazado 891306" d="M47.035,12.017a7.017,7.017,0,1,0-13.8,1.788l1.045-.274a5.931,5.931,0,1,1,4.258,4.237l-.269,1.046a7.024,7.024,0,0,0,8.772-6.8Z" transform="translate(-15.727 -2.841)"/>
        <path id="Trazado_891307" data-name="Trazado 891307" d="M38.177,1a9.183,9.183,0,0,0-8.867,11.547l1.043-.279a8.086,8.086,0,1,1,5.808,5.753l-.267,1.046A9.178,9.178,0,1,0,38.177,1Z" transform="translate(-13.886 -1)"/>
        <path id="Trazado_891308" data-name="Trazado 891308" d="M24.239,37.478A3.239,3.239,0,1,0,21,34.239,3.242,3.242,0,0,0,24.239,37.478Zm0-5.4a2.159,2.159,0,1,1-2.159,2.159A2.161,2.161,0,0,1,24.239,32.08Z" transform="translate(-10.204 -14.806)"/>
        <path id="Trazado_891309" data-name="Trazado 891309" d="M17.619,45.239A1.619,1.619,0,1,0,16,43.619,1.621,1.621,0,0,0,17.619,45.239Zm0-2.159a.54.54,0,1,1-.54.54A.54.54,0,0,1,17.619,43.08Z" transform="translate(-7.903 -19.868)"/>
        <path id="Trazado_891310" data-name="Trazado 891310" d="M43.113,35.293l-10.8,10.8a1.593,1.593,0,0,0-.694-.162,1.619,1.619,0,1,0,1.619,1.619,1.593,1.593,0,0,0-.162-.694l10.8-10.8ZM31.619,48.09a.54.54,0,1,1,.54-.54A.54.54,0,0,1,31.619,48.09Z" transform="translate(-14.346 -16.782)"/>
        <path id="Trazado_891311" data-name="Trazado 891311" d="M39.255,36.293l-5.942,5.942a1.593,1.593,0,0,0-.694-.162,1.619,1.619,0,1,0,1.619,1.619A1.593,1.593,0,0,0,34.076,43l5.942-5.942Zm-6.636,7.939a.54.54,0,1,1,.54-.54A.54.54,0,0,1,32.619,44.232Z" transform="translate(-14.806 -17.242)"/>
        <path id="Trazado_891312" data-name="Trazado 891312" d="M4.619,22.17A1.621,1.621,0,0,0,6.239,20.55a1.593,1.593,0,0,0-.162-.694l10.8-10.8-.763-.763-10.8,10.8a1.593,1.593,0,0,0-.694-.162,1.619,1.619,0,1,0,0,3.239Zm0-2.159a.54.54,0,1,1-.54.54A.54.54,0,0,1,4.619,20.01Z" transform="translate(-1.92 -4.356)"/>
        <path id="Trazado_891313" data-name="Trazado 891313" d="M19.255,16.293l-5.942,5.942a1.593,1.593,0,0,0-.694-.162,1.619,1.619,0,1,0,1.619,1.619A1.593,1.593,0,0,0,14.076,23l5.942-5.942Zm-6.636,7.939a.54.54,0,1,1,.54-.54A.54.54,0,0,1,12.619,24.232Z" transform="translate(-5.602 -8.038)"/>
        <path id="Trazado_891314" data-name="Trazado 891314" d="M17.512,35.32A17.4,17.4,0,0,0,22.4,25.826l.009-.054a13.618,13.618,0,0,0,.185-2.233V23h-.54a13.6,13.6,0,0,0-2.233.185l-.054.009A17.422,17.422,0,0,0,7.994,30.9L4.232,32.15a3.788,3.788,0,0,0-2.51,2.844l-.3,1.5H5.589l-.17.633L1,38.233v1.383l1.877.469L1,43.369v1.223H2.223l3.284-1.877.469,1.877H7.359l1.1-4.419L9.1,40v4.168l1.5-.3a3.786,3.786,0,0,0,2.844-2.51L14.7,37.6a17.462,17.462,0,0,0,2.816-2.277Zm2.43-11.062L20,24.25a12.65,12.65,0,0,1,1.5-.158,12.512,12.512,0,0,1-.158,1.5l-.009.054c-.086.514-.2,1.018-.334,1.516a8.22,8.22,0,0,1-2.573-2.573c.5-.132,1-.248,1.516-.334Zm-8.908,4.584a16.319,16.319,0,0,1,6.326-3.934,9.294,9.294,0,0,0,3.322,3.322,16.319,16.319,0,0,1-3.934,6.326A16.435,16.435,0,0,1,9.407,38.8l-1.229.33L6.459,37.413l.331-1.229a16.449,16.449,0,0,1,4.244-7.341ZM2.78,35.2a2.708,2.708,0,0,1,1.793-2.032l2.6-.865A17.477,17.477,0,0,0,5.9,35.415H2.738Zm3.888,7.7-.459-1.835-3.938,2.25,2.25-3.938-1.835-.459,3.007-.752L7.42,39.9Zm5.75-1.888a2.7,2.7,0,0,1-2.031,1.793l-.21.042V39.694a17.46,17.46,0,0,0,3.107-1.271Z" transform="translate(-1 -11.124)"/>
      </g>
    </g>
  </g>
</svg>
