<svg id="Grupo_1103046" data-name="Grupo 1103046" xmlns="http://www.w3.org/2000/svg" xmlns:xlink="http://www.w3.org/1999/xlink" width="381.401" height="258.839" viewBox="0 0 381.401 258.839">
  <defs>
    <clipPath id="clip-path">
      <rect id="Rectángulo_402679" data-name="Rectángulo 402679" width="381.401" height="258.839" fill="none"/>
    </clipPath>
    <clipPath id="clip-path-3">
      <rect id="Rectángulo_402636" data-name="Rectángulo 402636" width="145.873" height="81.912" transform="translate(214.227)" fill="none"/>
    </clipPath>
    <clipPath id="clip-path-4">
      <rect id="Rectángulo_402637" data-name="Rectángulo 402637" width="152.049" height="76.684" transform="translate(41.479 39.551)" fill="none"/>
    </clipPath>
    <clipPath id="clip-path-5">
      <rect id="Rectángulo_402640" data-name="Rectángulo 402640" width="52.557" height="24.45" transform="translate(284.012 165.54)" fill="none"/>
    </clipPath>
    <clipPath id="clip-path-6">
      <rect id="Rectángulo_402639" data-name="Rectángulo 402639" width="52.556" height="24.45" transform="translate(284.013 165.54)" fill="none"/>
    </clipPath>
    <clipPath id="clip-path-7">
      <rect id="Rectángulo_402644" data-name="Rectángulo 402644" width="81.924" height="23.368" transform="translate(285.939 197.06)" fill="none"/>
    </clipPath>
    <clipPath id="clip-path-9">
      <rect id="Rectángulo_402648" data-name="Rectángulo 402648" width="55.625" height="65.846" transform="translate(43.321 172.444)" fill="none"/>
    </clipPath>
    <clipPath id="clip-path-10">
      <rect id="Rectángulo_402647" data-name="Rectángulo 402647" width="55.619" height="65.846" transform="translate(43.327 172.444)" fill="none"/>
    </clipPath>
    <clipPath id="clip-path-11">
      <rect id="Rectángulo_402651" data-name="Rectángulo 402651" width="86.386" height="22.229" transform="translate(177.451 125.109)" fill="none"/>
    </clipPath>
    <clipPath id="clip-path-13">
      <rect id="Rectángulo_402671" data-name="Rectángulo 402671" width="4.453" height="4.93" transform="translate(158.07 132.788)" fill="none"/>
    </clipPath>
    <clipPath id="clip-path-15">
      <rect id="Rectángulo_402673" data-name="Rectángulo 402673" width="2.773" height="1.331" transform="translate(155.935 132.868)" fill="none"/>
    </clipPath>
    <clipPath id="clip-path-16">
      <rect id="Rectángulo_402672" data-name="Rectángulo 402672" width="2.773" height="1.328" transform="translate(155.935 132.868)" fill="none"/>
    </clipPath>
    <clipPath id="clip-path-17">
      <rect id="Rectángulo_402675" data-name="Rectángulo 402675" width="1.908" height="2.508" transform="translate(224.458 134.083)" fill="none"/>
    </clipPath>
    <clipPath id="clip-path-19">
      <rect id="Rectángulo_402677" data-name="Rectángulo 402677" width="1.96" height="2.421" transform="translate(217.436 134.523)" fill="none"/>
    </clipPath>
  </defs>
  <g id="Grupo_1103045" data-name="Grupo 1103045" clip-path="url(#clip-path)">
    <g id="Grupo_1103044" data-name="Grupo 1103044">
      <g id="Grupo_1103043" data-name="Grupo 1103043" clip-path="url(#clip-path)">
        <g id="Grupo_1102999" data-name="Grupo 1102999" opacity="0.3">
          <g id="Grupo_1102998" data-name="Grupo 1102998">
            <g id="Grupo_1102997" data-name="Grupo 1102997" clip-path="url(#clip-path-3)">
              <path id="Trazado_894458" data-name="Trazado 894458" d="M324.927,81.9c5.614-.162,11.147-1.413,16.756-1.713,6.1-.326,12.469.432,18.1-1.926.107-.045.211-.1.317-.142a197.339,197.339,0,0,0-6.622-21.791c-.122.035-.246.068-.368.1-3.6,1.081-6.975,2.828-10.583,3.882a29.318,29.318,0,0,1-20.587-1.641c-7.151-3.4-12.881-9.691-20.523-11.759-5.57-1.507-11.49-.57-17.231-1.153s-12.043-3.5-13.429-9.106a4.752,4.752,0,0,1,.154-3.188c.992-2.053,3.7-2.428,5.982-2.533a99.249,99.249,0,0,1,17.435.225c7.345.963,14.766,3.567,21.986,1.907,2.207-.507,4.307-1.4,6.5-1.967,5.833-1.5,11.967-.606,17.9.569-7.658-11.036-18.233-21.6-33.361-30.885q-.648-.4-1.3-.782c-5.811,3.153-10.879,7.742-16.972,10.366-7.31,3.149-15.546,3.243-23.492,2.792-4.749-.27-9.978-.582-13.758,2.306-2.769,2.115-4.195,5.574-6.77,7.92-3.115,2.837-7.479,3.709-11.563,4.744-5.183,1.314-10.425,3.163-14.326,6.82s-6.154,9.508-4.266,14.51c2.4,6.352,10.048,8.856,16.813,9.432,8.655.737,17.562-.312,25.906,2.1,5.67,1.641,10.757,4.8,16.05,7.409,9.155,4.519,19.005,7.442,28.88,10.031,7.324,1.921,14.8,3.682,22.369,3.464" fill="#4b4d92"/>
            </g>
          </g>
        </g>
        <g id="Grupo_1103002" data-name="Grupo 1103002" opacity="0.3">
          <g id="Grupo_1103001" data-name="Grupo 1103001">
            <g id="Grupo_1103000" data-name="Grupo 1103000" clip-path="url(#clip-path-4)">
              <path id="Trazado_894459" data-name="Trazado 894459" d="M41.479,108.87l4.726,2.186c4.375,2.023,8.82,4.068,13.58,4.818,4.386.691,8.862.255,13.28-.182,5.386-.533,10.815-1.075,15.981-2.688,5.693-1.778,10.963-4.828,16.771-6.181,6.39-1.489,13.052-.844,19.609-.623,8.71.293,17.589-.209,25.8-3.132s15.744-8.512,19.56-16.347c2.018-4.143,3.037-8.912,6.179-12.282,3.252-3.489,8.225-4.856,11.781-8.035a15.3,15.3,0,0,0,2.409-19.295,4.153,4.153,0,0,0-1.435-1.445,5.411,5.411,0,0,0-3.153-.178,23.7,23.7,0,0,1-11.479-1.474c-3.052-1.2-5.865-3.044-8.814-4.461-2.407,2.653-4.667,5.254-6.767,7.757a45.538,45.538,0,0,1-9.669,8.555,37.567,37.567,0,0,1,7.209,2.769c1.927.98,3.983,2.465,4.1,4.623.117,2.1-1.678,3.8-3.468,4.9-4.9,3.035-11.082,4.306-14.8,8.717-3.28,3.9-4.2,9.8-8.534,12.471a14.32,14.32,0,0,1-6.534,1.69c-7.539.554-15.427-.385-22.408,2.515-1.531.636-2.99,1.449-4.562,1.976a24.785,24.785,0,0,1-6.412,1,159.494,159.494,0,0,1-37.718-2.236A87.381,87.381,0,0,0,41.479,108.87" fill="#fff"/>
            </g>
          </g>
        </g>
        <path id="Trazado_894460" data-name="Trazado 894460" d="M290.483,61.6c4.713,42.868-19.456,103.75-19.456,103.75s33.036-31.113,32.317-67.962L292.777,97.2s5.443-3.551,10.067-6.446a61.236,61.236,0,0,0-12.356-29.163" fill="#36769d"/>
        <path id="Trazado_894461" data-name="Trazado 894461" d="M252.576,111.187l6.676-3.944-5.765-.842a58.326,58.326,0,0,1,8.573-19.059c4.354,1.321,9.338,2.7,9.338,2.7l-5.507-7.85a88.756,88.756,0,0,1,24.592-20.6c4.713,42.868-19.461,103.754-19.461,103.754-16.511-21.066-20.58-39.208-18.446-54.162" fill="#b7fde9"/>
        <path id="Trazado_894462" data-name="Trazado 894462" d="M307.146,103.934A53.624,53.624,0,0,0,289.429,116.2c.662,2.989,1.379,6.586,1.379,6.586l-4.451-3.1c-16.225,20.01-16,47.089-16,47.089,15.936-6.566,25.461-15.293,31.042-24.148-1.136-1.651-2.859-4.077-2.859-4.077l4.551,1.175a47.506,47.506,0,0,0,4.691-13.057c-2.373-.593-5.033-1.342-5.033-1.342l5.671-2.642a48.749,48.749,0,0,0-1.271-18.753" fill="#242424"/>
        <path id="Trazado_894463" data-name="Trazado 894463" d="M301.4,142.631c-1.136-1.651-2.859-4.077-2.859-4.077l4.551,1.174a47.462,47.462,0,0,0,4.691-13.057c-2.373-.593-5.033-1.341-5.033-1.341l5.671-2.643a48.743,48.743,0,0,0-1.271-18.752c-20.478,22.105-36.793,62.845-36.793,62.845,15.936-6.566,25.461-15.293,31.042-24.149"/>
        <rect id="Rectángulo_402638" data-name="Rectángulo 402638" width="110.154" height="55.978" transform="translate(241.948 218.764) rotate(-60.397)" fill="#e99881"/>
        <path id="Trazado_894464" data-name="Trazado 894464" d="M340.957,152.43,290.07,242l-44.046-25.024,50.888-89.567ZM288.82,237.459l47.6-83.779-38.259-21.736-47.6,83.779Z" fill="#95d8a6"/>
        <path id="Trazado_894465" data-name="Trazado 894465" d="M303.848,166.635c10.965,6.23,15.257,19.372,9.586,29.354s-19.157,13.023-30.122,6.793-15.257-19.372-9.586-29.353,19.158-13.023,30.123-6.793" fill="#95d8a6"/>
        <path id="Trazado_894466" data-name="Trazado 894466" d="M289.2,178.2a3.856,3.856,0,0,0-3.465.41,3.337,3.337,0,0,0,.382.31c1.7.981,3.41,1.945,5.1,2.94a.628.628,0,0,0,.884-.1.155.155,0,0,0,.016-.02,27.318,27.318,0,0,1,2.318-1.909c2.838-2.067,5.794-1.7,8.436.259,3.182,2.356,4.074,5.353,2.883,9.153-.217.693-.055,1.021.55,1.3.44.2.847.477,1.311.744l-1.261,2.192-1.972-1.134c-3.523,4.344-7.791,3.806-10.47,2.533l1.827-4.179a6.058,6.058,0,0,0,4.867-.513L298.03,188.7c-1.114-.64-2.239-1.262-3.337-1.929a.731.731,0,0,0-1.03.087l0,0a9.766,9.766,0,0,1-3.93,2.346,7.5,7.5,0,0,1-7.762-2.355,6.618,6.618,0,0,1-1.314-7.182c.061-.176.125-.352.182-.53a2.413,2.413,0,0,0,.048-.267l-1.647-.947,1.281-2.229c.392.225.807.428,1.183.69.4.276.634.174.924-.181a6.877,6.877,0,0,1,5.005-2.74,7.3,7.3,0,0,1,3.284.557c-.574,1.4-1.127,2.749-1.709,4.167m6.923,6.422,5.9,3.391a3.471,3.471,0,0,0-1.334-4.2c-1.378-.956-3.132-.676-4.567.806m-11.774-3.7a3.341,3.341,0,0,0,1.562,3.509,3.222,3.222,0,0,0,3.653-.513l-5.215-3" fill="#e99881"/>
        <path id="Trazado_894467" data-name="Trazado 894467" d="M276.711,214.236a3.035,3.035,0,1,0,1.138,4.138h0a3.035,3.035,0,0,0-1.139-4.137" fill="#e67565"/>
        <path id="Trazado_894468" data-name="Trazado 894468" d="M313.437,149.594a3.035,3.035,0,1,0,1.139,4.138,3.035,3.035,0,0,0-1.139-4.138" fill="#e67565"/>
        <g id="Grupo_1103007" data-name="Grupo 1103007" style="mix-blend-mode: multiply;isolation: isolate">
          <g id="Grupo_1103006" data-name="Grupo 1103006">
            <g id="Grupo_1103005" data-name="Grupo 1103005" clip-path="url(#clip-path-5)">
              <g id="Grupo_1103004" data-name="Grupo 1103004">
                <g id="Grupo_1103003" data-name="Grupo 1103003" clip-path="url(#clip-path-6)">
                  <path id="Trazado_894469" data-name="Trazado 894469" d="M332.686,172.375c-.169-.139,3.883-6.835,3.883-6.835l-52.557,20.305.7,4.145Z" fill="#e99881"/>
                </g>
              </g>
            </g>
          </g>
        </g>
        <rect id="Rectángulo_402641" data-name="Rectángulo 402641" width="110.154" height="55.978" transform="translate(258.664 199.631) rotate(-20.315)" fill="#e99881"/>
        <path id="Trazado_894470" data-name="Trazado 894470" d="M377.128,212.629l-96.606,35.764-17.588-47.507,96.606-35.764Zm-94.64,31.487,90.363-33.453L357.574,169.4l-90.362,33.45Z" fill="#fff"/>
        <path id="Trazado_894471" data-name="Trazado 894471" d="M339.589,199.6c4.378,11.827-.8,24.646-11.566,28.631s-23.043-2.371-27.422-14.2.8-24.646,11.566-28.631,23.044,2.371,27.422,14.2" fill="#fff"/>
        <path id="Trazado_894472" data-name="Trazado 894472" d="M320.939,199.018a3.856,3.856,0,0,0-2.915-1.917,3.166,3.166,0,0,0,.092.483c.67,1.845,1.357,3.683,2.01,5.534.143.4.332.5.76.487a27.551,27.551,0,0,1,3,.032c3.5.246,5.525,2.432,6.288,5.63.918,3.852-.33,6.719-3.687,8.86-.613.391-.7.746-.415,1.346.208.438.341.91.525,1.413l-2.378.867-.78-2.137c-5.492,1.055-8.412-2.1-9.642-4.8l4.089-2.021a6.058,6.058,0,0,0,4.054,2.741c-.374-1.025-.7-1.909-1.018-2.792-.44-1.207-.9-2.407-1.311-3.625a.731.731,0,0,0-.839-.6l-.009,0a9.764,9.764,0,0,1-4.518-.736,7.5,7.5,0,0,1-4.422-6.8,6.615,6.615,0,0,1,3.618-6.341c.16-.1.322-.189.48-.288a2.666,2.666,0,0,0,.209-.173l-.651-1.785,2.415-.881c.155.425.342.848.461,1.289.126.468.373.541.823.456a6.875,6.875,0,0,1,5.594,1.126,7.307,7.307,0,0,1,2.154,2.541l-3.99,2.088m1.162,9.371c.792,2.172,1.562,4.282,2.332,6.4a3.471,3.471,0,0,0,1.681-4.07c-.438-1.619-1.961-2.534-4.013-2.324m-6.627-10.412a3.339,3.339,0,0,0-1.065,3.691,3.22,3.22,0,0,0,3.125,1.96l-2.06-5.651" fill="#ff753f"/>
        <path id="Trazado_894473" data-name="Trazado 894473" d="M288.177,218.55a3.035,3.035,0,1,0-1.792,3.9,3.035,3.035,0,0,0,1.792-3.9v0" fill="#e67565"/>
        <path id="Trazado_894474" data-name="Trazado 894474" d="M357.9,192.739a3.035,3.035,0,1,0-1.792,3.9,3.035,3.035,0,0,0,1.792-3.9" fill="#fff"/>
        <rect id="Rectángulo_402642" data-name="Rectángulo 402642" width="110.155" height="55.978" transform="translate(253.448 201.953) rotate(-0.176)" fill="#e99881"/>
        <path id="Trazado_894475" data-name="Trazado 894475" d="M360.2,254.943l-103.013.317-.156-50.658,103.013-.317Zm-99.7-3.021,96.356-.3-.136-44-96.356.3Z" fill="#95d8a6"/>
        <path id="Trazado_894476" data-name="Trazado 894476" d="M329.436,229.788c.039,12.612-9.236,22.864-20.716,22.9s-20.818-10.16-20.857-22.771,9.236-22.863,20.716-22.9,20.818,10.159,20.857,22.771" fill="#95d8a6"/>
        <path id="Trazado_894477" data-name="Trazado 894477" d="M312.126,222.817a3.857,3.857,0,0,0-2.076-2.8,3.326,3.326,0,0,0-.08.486c-.006,1.962.006,3.925-.018,5.888-.005.43.138.587.547.719a27.312,27.312,0,0,1,2.808,1.064c3.2,1.437,4.35,4.186,3.965,7.451-.465,3.932-2.623,6.194-6.512,7.048-.71.156-.914.459-.853,1.121.044.483.007.972.006,1.507h-2.532v-2.275c-5.519-.9-7.173-4.872-7.4-7.83l4.534-.49a6.061,6.061,0,0,0,2.862,3.969c0-1.091,0-2.031,0-2.972,0-1.285-.017-2.571.017-3.854a.731.731,0,0,0-.587-.851h0a9.763,9.763,0,0,1-3.988-2.246,7.5,7.5,0,0,1-1.811-7.907,6.617,6.617,0,0,1,5.58-4.708c.184-.035.368-.066.55-.1a2.593,2.593,0,0,0,.256-.091v-1.9h2.571c0,.452.029.914-.011,1.369-.042.483.164.637.616.712a6.876,6.876,0,0,1,4.864,2.983,7.3,7.3,0,0,1,1.147,3.127l-4.465.586m-2.135,9.2c0,2.311-.009,4.557-.013,6.806a3.472,3.472,0,0,0,2.98-3.243c.146-1.671-.969-3.054-2.967-3.563m-2.637-12.057a3.34,3.34,0,0,0-2.271,3.1,3.222,3.222,0,0,0,2.26,2.916c0-1.972.007-3.948.011-6.015" fill="#e99881"/>
        <path id="Trazado_894478" data-name="Trazado 894478" d="M274.642,229.877a3.034,3.034,0,1,0-3.025,3.044,3.033,3.033,0,0,0,3.025-3.044" fill="#e67565"/>
        <path id="Trazado_894479" data-name="Trazado 894479" d="M348.989,229.648a3.035,3.035,0,1,0-3.026,3.044,3.035,3.035,0,0,0,3.026-3.044" fill="#fff"/>
        <g id="Grupo_1103012" data-name="Grupo 1103012" style="mix-blend-mode: multiply;isolation: isolate">
          <g id="Grupo_1103011" data-name="Grupo 1103011">
            <g id="Grupo_1103010" data-name="Grupo 1103010" clip-path="url(#clip-path-7)">
              <g id="Grupo_1103009" data-name="Grupo 1103009">
                <g id="Grupo_1103008" data-name="Grupo 1103008" clip-path="url(#clip-path-7)">
                  <path id="Trazado_894480" data-name="Trazado 894480" d="M363.659,220.428l-.058-18.814-76.913.162-.749-4.456,81.876-.26.047,21.837Z" fill="#e99881"/>
                </g>
              </g>
            </g>
          </g>
        </g>
        <rect id="Rectángulo_402645" data-name="Rectángulo 402645" width="23.428" height="24.291" transform="translate(71.529 107.268) rotate(-14.008)" fill="#fff"/>
        <rect id="Rectángulo_402646" data-name="Rectángulo 402646" width="23.428" height="24.29" transform="translate(0 125.113) rotate(-14.008)" fill="#fff"/>
        <path id="Trazado_894481" data-name="Trazado 894481" d="M116.362,190.19,100.14,125.165l-22.732,5.671,16.43,65.856.116.335a45.016,45.016,0,0,1,1.65,9.519c.3,4.471.034,10.918-2.933,16.242-2.888,5.183-7.982,8.709-15.554,10.763q-1,.229-1.97.4l5.679,22.764q.524-.106,1.048-.221l.006.026c.3-.076.606-.154.908-.234s.607-.144.911-.22l-.006-.026a53.233,53.233,0,0,0,17.579-8.362,42.506,42.506,0,0,0,11.974-13.686,47.425,47.425,0,0,0,5.257-15.938,61.646,61.646,0,0,0,.411-13.956,67.852,67.852,0,0,0-2.552-13.91" fill="#e99881"/>
        <path id="Trazado_894482" data-name="Trazado 894482" d="M58.33,231.356c-5.119-3.307-8.383-8.874-10.218-12.961a45.058,45.058,0,0,1-3.015-9.179l-.055-.35L28.611,143.01,5.88,148.681,22.1,213.706a67.86,67.86,0,0,0,4.281,13.479A61.621,61.621,0,0,0,33.3,239.312a47.407,47.407,0,0,0,12.127,11.6,42.52,42.52,0,0,0,17,6.457,52.709,52.709,0,0,0,18.4-.655L75.149,233.95c-6.745,1.2-12.269.343-16.818-2.6" fill="#242424"/>
        <path id="Trazado_894483" data-name="Trazado 894483" d="M320.8,218.025a39.837,39.837,0,1,1-40.26-39.409,39.837,39.837,0,0,1,40.26,39.409" fill="#fff"/>
        <path id="Trazado_894484" data-name="Trazado 894484" d="M316.792,218.068a35.828,35.828,0,1,1-36.209-35.443A35.828,35.828,0,0,1,316.792,218.068Z" fill="#242424"/>
        <path id="Trazado_894485" data-name="Trazado 894485" d="M281.324,251.992a33.543,33.543,0,1,1,33.183-33.9,33.543,33.543,0,0,1-33.183,33.9m-.7-65.849a32.31,32.31,0,1,0,32.654,31.963,32.31,32.31,0,0,0-32.654-31.963" fill="#fff"/>
        <path id="Trazado_894486" data-name="Trazado 894486" d="M286.424,207.841a5.91,5.91,0,0,0-3.239-4.26,5.092,5.092,0,0,0-.113.746c.028,3.01.084,6.02.085,9.03,0,.66.224.9.852,1.092a41.81,41.81,0,0,1,4.327,1.578c4.941,2.142,6.752,6.337,6.224,11.351-.637,6.04-3.9,9.551-9.852,10.935-1.086.253-1.393.722-1.286,1.736.077.739.029,1.491.038,2.311l-3.883.042c-.013-1.18-.025-2.345-.037-3.489-8.483-1.275-11.1-7.335-11.5-11.866l6.945-.838a9.289,9.289,0,0,0,4.466,6.033c-.018-1.674-.033-3.116-.049-4.558-.021-1.97-.076-3.942-.048-5.912a1.119,1.119,0,0,0-.914-1.293l-.009,0a14.967,14.967,0,0,1-6.16-3.369c-3.53-3.406-4.164-7.651-2.929-12.092,1.153-4.146,4.264-6.479,8.468-7.328.281-.057.562-.109.841-.172a3.894,3.894,0,0,0,.391-.144c-.01-.925-.02-1.877-.031-2.914l3.943-.042c.007.693.062,1.4.01,2.1-.055.741.263.974.959,1.08a10.552,10.552,0,0,1,7.518,4.483,11.209,11.209,0,0,1,1.819,4.774l-6.837.985m-3.1,14.149c.038,3.545.075,6.99.112,10.439a5.325,5.325,0,0,0,4.508-5.03c.192-2.565-1.545-4.665-4.619-5.409m-4.276-18.441a5.125,5.125,0,0,0-3.423,4.8,4.942,4.942,0,0,0,3.521,4.429c-.033-3.024-.065-6.056-.1-9.225" fill="#fff"/>
        <path id="Trazado_894487" data-name="Trazado 894487" d="M89.915,238.29s17.5-24.195,8.416-28.671c0,0-1.623-2.568-8.157,6.613,0,0-4.037,1.328-4.267-3.354s6.4-11.806,2.172-15.866-6.41,3.245-9.389,4.633-1.568-17.28-5.7-19.283-5.256,5.362-7.569,6.222-9.146-20.893-20.2-16.85,1.574,12.187,6.877,17.228-5.644,2.227-6.788,8.671,18.394,1.254,16.624,7.521-7.369,2.7-8.412,7.376c-1.687,7.568,17.67.293,17.234,5.5-.348,4.155-7.368,1.422-8.115,4.634s11.4,14.725,27.272,15.623" fill="#36769d"/>
        <g id="Grupo_1103017" data-name="Grupo 1103017" opacity="0.1" style="mix-blend-mode: color-dodge;isolation: isolate">
          <g id="Grupo_1103016" data-name="Grupo 1103016">
            <g id="Grupo_1103015" data-name="Grupo 1103015" clip-path="url(#clip-path-9)">
              <g id="Grupo_1103014" data-name="Grupo 1103014">
                <g id="Grupo_1103013" data-name="Grupo 1103013" clip-path="url(#clip-path-10)">
                  <path id="Trazado_894488" data-name="Trazado 894488" d="M98.945,209.98c-.08-.055-.163-.109-.249-.16-.332.994-.742,2.08-1.245,3.21C95.6,217.181,92.089,222.785,85.829,226a99.938,99.938,0,0,0-5.919-10.852c1.661-9.459,4.978-14.744,7.469-17.512.216-.24.429-.464.639-.676-.072-.067-.143-.131-.214-.193-.2.207-.411.425-.622.658-2.494,2.764-5.805,8.013-7.5,17.359l-.029-.047c-2.424-3.861-5.235-7.877-8.406-12.012a68.46,68.46,0,0,1-.57-9.185,37.687,37.687,0,0,1,1.6-11.436c-.093-.023-.188-.042-.283-.056a38.036,38.036,0,0,0-1.607,11.49,70.029,70.029,0,0,0,.508,8.733q-3.64-4.718-7.888-9.622c-7.888-9.1-15.469-16.489-19.421-20.2-.091.048-.179.1-.265.145,3.927,3.685,11.542,11.094,19.469,20.244,1.333,1.539,2.71,3.168,4.1,4.872a69.245,69.245,0,0,0-8.475-.886,60.5,60.5,0,0,0-13.1.764l-.009.047c-.015.086-.026.17-.034.252a60.082,60.082,0,0,1,13.13-.777,67.083,67.083,0,0,1,8.772.941c3.084,3.785,6.246,7.927,9.208,12.261-6.8-.847-17.629,1.5-22.955,2.815-.009.1-.012.2-.011.3,5.345-1.328,16.414-3.735,23.184-2.8A102.362,102.362,0,0,1,87.138,229.79c-5.691.925-12.445-1.6-17.132-3.9a68.645,68.645,0,0,1-7-3.984,1.746,1.746,0,0,0-.163.237,69.123,69.123,0,0,0,7.036,4c4.743,2.327,11.591,4.884,17.371,3.917a51.974,51.974,0,0,1,2.514,8.212l.149.01.112-.157a57.821,57.821,0,0,0-4.076-11.875q.612-.313,1.205-.664a23.888,23.888,0,0,0,6.179-5.307,30.517,30.517,0,0,0,4.383-7.148c.494-1.11.9-2.177,1.228-3.159" fill="#fff"/>
                </g>
              </g>
            </g>
          </g>
        </g>
        <path id="Trazado_894489" data-name="Trazado 894489" d="M101.221,244.479S85.774,227.134,56.9,228.313l5.007,6.912-8.068-6.335s-16.741,1.389-28.148,5.475c0,0,24.516,12.914,30.706,14.047l8.263-2.456-4.475,6.175s13.489,7.5,27.364,5.965,13.673-13.617,13.673-13.617" fill="#4b4d92"/>
        <path id="Trazado_894490" data-name="Trazado 894490" d="M175.165,113.124h89.971a7.093,7.093,0,0,1,7.093,7.093V251.746a7.093,7.093,0,0,1-7.093,7.093H175.165a7.1,7.1,0,0,1-7.093-7.093V120.217A7.093,7.093,0,0,1,175.165,113.124Z" fill="#3ae9be"/>
        <rect id="Rectángulo_402649" data-name="Rectángulo 402649" width="86.385" height="22.229" transform="translate(177.451 125.109)" fill="#4b4d92"/>
        <g id="Grupo_1103022" data-name="Grupo 1103022" opacity="0.5" style="mix-blend-mode: multiply;isolation: isolate">
          <g id="Grupo_1103021" data-name="Grupo 1103021">
            <g id="Grupo_1103020" data-name="Grupo 1103020" clip-path="url(#clip-path-11)">
              <g id="Grupo_1103019" data-name="Grupo 1103019">
                <g id="Grupo_1103018" data-name="Grupo 1103018" clip-path="url(#clip-path-11)">
                  <path id="Trazado_894491" data-name="Trazado 894491" d="M179.743,128.309h84.093v-3.2H177.451v22.229h2.292Z" fill="#b7fde9"/>
                </g>
              </g>
            </g>
          </g>
        </g>
        <path id="Trazado_894492" data-name="Trazado 894492" d="M199.135,161.686h-18.58a3.1,3.1,0,0,1-3.1-3.1v-1.8a3.1,3.1,0,0,1,3.1-3.1h18.58a3.1,3.1,0,0,1,3.1,3.1v1.8a3.1,3.1,0,0,1-3.1,3.1" fill="#e99881"/>
        <path id="Trazado_894493" data-name="Trazado 894493" d="M229.934,161.686h-18.58a3.1,3.1,0,0,1-3.1-3.1v-1.8a3.1,3.1,0,0,1,3.1-3.1h18.58a3.1,3.1,0,0,1,3.1,3.1v1.8a3.1,3.1,0,0,1-3.1,3.1" fill="#e99881"/>
        <path id="Trazado_894494" data-name="Trazado 894494" d="M260.733,161.686h-18.58a3.1,3.1,0,0,1-3.1-3.1v-1.8a3.1,3.1,0,0,1,3.1-3.1h18.58a3.1,3.1,0,0,1,3.1,3.1v1.8a3.1,3.1,0,0,1-3.1,3.1" fill="#e99881"/>
        <path id="Trazado_894495" data-name="Trazado 894495" d="M192.29,185.982H181.795a4.344,4.344,0,0,1-4.344-4.344v-9.266a4.344,4.344,0,0,1,4.344-4.344H192.29a4.344,4.344,0,0,1,4.344,4.344v9.266a4.344,4.344,0,0,1-4.344,4.344" fill="#4b4d92"/>
        <path id="Trazado_894496" data-name="Trazado 894496" d="M214.691,185.982H204.2a4.344,4.344,0,0,1-4.344-4.344v-9.266a4.344,4.344,0,0,1,4.344-4.344h10.495a4.344,4.344,0,0,1,4.344,4.344v9.266a4.344,4.344,0,0,1-4.344,4.344" fill="#4b4d92"/>
        <path id="Trazado_894497" data-name="Trazado 894497" d="M237.091,185.982H226.6a4.344,4.344,0,0,1-4.344-4.344v-9.266a4.344,4.344,0,0,1,4.344-4.344h10.5a4.344,4.344,0,0,1,4.344,4.344v9.266a4.344,4.344,0,0,1-4.344,4.344" fill="#4b4d92"/>
        <path id="Trazado_894498" data-name="Trazado 894498" d="M192.29,208.114H181.795a4.344,4.344,0,0,1-4.344-4.344V194.5a4.344,4.344,0,0,1,4.344-4.344H192.29a4.344,4.344,0,0,1,4.344,4.344v9.265a4.344,4.344,0,0,1-4.344,4.344" fill="#4b4d92"/>
        <path id="Trazado_894499" data-name="Trazado 894499" d="M214.691,208.114H204.2a4.344,4.344,0,0,1-4.344-4.344V194.5a4.344,4.344,0,0,1,4.344-4.344h10.495a4.344,4.344,0,0,1,4.344,4.344v9.265a4.344,4.344,0,0,1-4.344,4.344" fill="#4b4d92"/>
        <path id="Trazado_894500" data-name="Trazado 894500" d="M237.091,208.114H226.6a4.344,4.344,0,0,1-4.344-4.344V194.5a4.344,4.344,0,0,1,4.344-4.344h10.5a4.344,4.344,0,0,1,4.344,4.344v9.265a4.344,4.344,0,0,1-4.344,4.344" fill="#4b4d92"/>
        <path id="Trazado_894501" data-name="Trazado 894501" d="M259.928,168.029H248.561a3.908,3.908,0,0,0-3.908,3.908v32.27a3.908,3.908,0,0,0,3.908,3.908h11.367a3.908,3.908,0,0,0,3.908-3.908v-32.27a3.908,3.908,0,0,0-3.908-3.908" fill="#242424"/>
        <path id="Trazado_894502" data-name="Trazado 894502" d="M192.29,230.247H181.795a4.344,4.344,0,0,1-4.344-4.344v-9.265a4.344,4.344,0,0,1,4.344-4.344H192.29a4.344,4.344,0,0,1,4.344,4.344V225.9a4.344,4.344,0,0,1-4.344,4.344" fill="#4b4d92"/>
        <path id="Trazado_894503" data-name="Trazado 894503" d="M214.691,230.247H204.2a4.344,4.344,0,0,1-4.344-4.344v-9.265a4.344,4.344,0,0,1,4.344-4.344h10.495a4.344,4.344,0,0,1,4.344,4.344V225.9a4.344,4.344,0,0,1-4.344,4.344" fill="#4b4d92"/>
        <path id="Trazado_894504" data-name="Trazado 894504" d="M237.091,230.247H226.6a4.344,4.344,0,0,1-4.344-4.344v-9.265a4.344,4.344,0,0,1,4.344-4.344h10.5a4.344,4.344,0,0,1,4.344,4.344V225.9a4.344,4.344,0,0,1-4.344,4.344" fill="#4b4d92"/>
        <path id="Trazado_894505" data-name="Trazado 894505" d="M259.492,230.247H249a4.344,4.344,0,0,1-4.344-4.344v-9.265A4.344,4.344,0,0,1,249,212.294h10.5a4.344,4.344,0,0,1,4.344,4.344V225.9a4.344,4.344,0,0,1-4.344,4.344" fill="#242424"/>
        <path id="Trazado_894506" data-name="Trazado 894506" d="M192.29,252.379H181.795a4.344,4.344,0,0,1-4.344-4.344v-9.266a4.344,4.344,0,0,1,4.344-4.344H192.29a4.344,4.344,0,0,1,4.344,4.344v9.266a4.344,4.344,0,0,1-4.344,4.344" fill="#4b4d92"/>
        <path id="Trazado_894507" data-name="Trazado 894507" d="M214.691,252.379H204.2a4.344,4.344,0,0,1-4.344-4.344v-9.266a4.344,4.344,0,0,1,4.344-4.344h10.495a4.344,4.344,0,0,1,4.344,4.344v9.266a4.344,4.344,0,0,1-4.344,4.344" fill="#4b4d92"/>
        <path id="Trazado_894508" data-name="Trazado 894508" d="M237.091,252.379H226.6a4.344,4.344,0,0,1-4.344-4.344v-9.266a4.344,4.344,0,0,1,4.344-4.344h10.5a4.344,4.344,0,0,1,4.344,4.344v9.266a4.344,4.344,0,0,1-4.344,4.344" fill="#242424"/>
        <path id="Trazado_894509" data-name="Trazado 894509" d="M259.492,252.379H249a4.344,4.344,0,0,1-4.344-4.344v-9.266A4.344,4.344,0,0,1,249,234.425h10.5a4.344,4.344,0,0,1,4.344,4.344v9.266a4.344,4.344,0,0,1-4.344,4.344" fill="#242424"/>
        <path id="Trazado_894510" data-name="Trazado 894510" d="M190.326,216.553v.908l-4.429,9.264h-1.424l4.413-9v-.031H183.91v-1.142Z" fill="#fff"/>
        <path id="Trazado_894511" data-name="Trazado 894511" d="M206.084,224.142a2.9,2.9,0,0,1,2.018-2.723l-.016-.047a2.517,2.517,0,0,1-1.612-2.285c0-1.612,1.361-2.707,3.145-2.707,1.972,0,2.958,1.236,2.958,2.5a2.586,2.586,0,0,1-1.674,2.379v.046a2.82,2.82,0,0,1,2.05,2.629c0,1.768-1.518,2.957-3.458,2.957-2.128,0-3.411-1.268-3.411-2.754m5.477-.062c0-1.236-.861-1.831-2.238-2.222a2.209,2.209,0,0,0-1.83,2.1,1.881,1.881,0,0,0,1.814,1.945,1.79,1.79,0,0,0,.22,0,1.841,1.841,0,0,0,2.024-1.638c.006-.059.009-.118.01-.177m-3.787-5.086c0,1.017.767,1.565,1.94,1.878a2,2,0,0,0,1.549-1.847,1.581,1.581,0,0,0-1.5-1.662,1.537,1.537,0,0,0-.225,0,1.618,1.618,0,0,0-1.761,1.461c-.005.055-.007.111-.007.166" fill="#fff"/>
        <path id="Trazado_894512" data-name="Trazado 894512" d="M212.97,243.39c0,3.458-1.283,5.367-3.537,5.367-1.987,0-3.333-1.862-3.364-5.226,0-3.411,1.47-5.289,3.536-5.289,2.144,0,3.365,1.909,3.365,5.148m-5.524.156c0,2.645.814,4.147,2.066,4.147,1.408,0,2.081-1.643,2.081-4.24,0-2.5-.642-4.147-2.066-4.147-1.2,0-2.081,1.471-2.081,4.24" fill="#fff"/>
        <path id="Trazado_894513" data-name="Trazado 894513" d="M229.731,225.756a5.733,5.733,0,0,0,1.111-.047,3.834,3.834,0,0,0,2.129-.986,4.467,4.467,0,0,0,1.345-2.707h-.047a2.986,2.986,0,0,1-2.394,1.1,2.945,2.945,0,0,1-3-2.887c0-.075,0-.151,0-.227a3.487,3.487,0,0,1,3.357-3.613l.117,0c2.081,0,3.365,1.69,3.365,4.288a6.424,6.424,0,0,1-1.753,4.773A5.092,5.092,0,0,1,231,226.809a6.4,6.4,0,0,1-1.267.078Zm.5-5.852a1.958,1.958,0,0,0,1.743,2.15c.071.007.141.01.212.01a2.277,2.277,0,0,0,2-1.064.914.914,0,0,0,.125-.5c0-1.737-.641-3.067-2.081-3.067-1.174,0-2,1.033-2,2.472" fill="#fff"/>
        <path id="Trazado_894514" data-name="Trazado 894514" d="M187.979,204.158v-2.769h-4.726v-.908l4.538-6.494h1.487v6.322H190.7v1.08h-1.424v2.769Zm0-3.849v-3.4q0-.8.047-1.6h-.047c-.313.594-.564,1.033-.845,1.5l-2.488,3.458v.031Z" fill="#fff"/>
        <path id="Trazado_894515" data-name="Trazado 894515" d="M212.281,195.145H208.4l-.391,2.613a5.48,5.48,0,0,1,.829-.062,4.305,4.305,0,0,1,2.191.547,2.9,2.9,0,0,1,1.455,2.613,3.528,3.528,0,0,1-3.574,3.483q-.106,0-.213-.009a4.968,4.968,0,0,1-2.535-.626l.344-1.048a4.557,4.557,0,0,0,2.175.563,2.244,2.244,0,0,0,2.4-2.071c0-.046,0-.091.006-.136-.016-1.314-.892-2.253-2.926-2.253a10.533,10.533,0,0,0-1.408.109l.657-4.882h4.867Z" fill="#fff"/>
        <path id="Trazado_894516" data-name="Trazado 894516" d="M234.738,194.958a4.961,4.961,0,0,0-1.033.063,4.134,4.134,0,0,0-3.537,3.615h.047a3.1,3.1,0,0,1,5.524,2.112,3.4,3.4,0,0,1-3.212,3.578c-.056,0-.112,0-.168,0-2.175,0-3.6-1.69-3.6-4.335a6.4,6.4,0,0,1,1.721-4.585,5.537,5.537,0,0,1,3.255-1.5,6.7,6.7,0,0,1,1-.078Zm-.391,5.868a2.067,2.067,0,0,0-1.784-2.316,2.091,2.091,0,0,0-.316-.016,2.266,2.266,0,0,0-1.972,1.252,1.164,1.164,0,0,0-.156.61c.031,1.675.8,2.911,2.238,2.911,1.189,0,1.987-.986,1.987-2.441" fill="#fff"/>
        <path id="Trazado_894517" data-name="Trazado 894517" d="M186.711,173.645h-.033l-1.768.955-.266-1.048,2.222-1.189h1.174v10.174h-1.33Z" fill="#fff"/>
        <path id="Trazado_894518" data-name="Trazado 894518" d="M206.21,182.533v-.845l1.08-1.049c2.6-2.472,3.771-3.787,3.787-5.32a1.814,1.814,0,0,0-1.619-1.99,1.774,1.774,0,0,0-.4,0,3.461,3.461,0,0,0-2.16.861l-.438-.97a4.465,4.465,0,0,1,2.879-1.033,2.86,2.86,0,0,1,3.114,2.957c0,1.878-1.361,3.4-3.5,5.461l-.814.751v.031H212.7v1.142Z" fill="#fff"/>
        <path id="Trazado_894519" data-name="Trazado 894519" d="M229.261,180.952a4.6,4.6,0,0,0,2.253.642c1.768,0,2.316-1.127,2.3-1.972-.015-1.424-1.3-2.034-2.629-2.034h-.767v-1.033h.767c1,0,2.269-.516,2.269-1.721,0-.814-.517-1.534-1.784-1.534a3.738,3.738,0,0,0-2.034.673l-.36-1a4.829,4.829,0,0,1,2.66-.782c2,0,2.911,1.189,2.911,2.425a2.526,2.526,0,0,1-1.878,2.394v.031a2.65,2.65,0,0,1,2.269,2.613c0,1.627-1.267,3.051-3.708,3.051a5.176,5.176,0,0,1-2.645-.688Z" fill="#fff"/>
        <path id="Trazado_894520" data-name="Trazado 894520" d="M188.269,247.244a1.227,1.227,0,1,1-1.227-1.227,1.227,1.227,0,0,1,1.227,1.227" fill="#fff"/>
        <path id="Trazado_894521" data-name="Trazado 894521" d="M261.531,188.719h-6.456v-6.457h-1.661v6.457h-6.457v1.66h6.457v6.458h1.661V190.38h6.456Z" fill="#fff"/>
        <path id="Trazado_894522" data-name="Trazado 894522" d="M236.141,247.225l-3.419-3.418,3.419-3.419-.879-.879-3.419,3.418-3.418-3.418-.879.879,3.418,3.419-3.418,3.418.879.879,3.418-3.418,3.419,3.418Z" fill="#fff"/>
        <rect id="Rectángulo_402652" data-name="Rectángulo 402652" width="10.813" height="1.656" transform="translate(248.439 220.918)" fill="#fff"/>
        <rect id="Rectángulo_402653" data-name="Rectángulo 402653" width="10.813" height="1.656" transform="translate(248.838 240.055)" fill="#fff"/>
        <rect id="Rectángulo_402654" data-name="Rectángulo 402654" width="10.813" height="1.656" transform="translate(248.838 244.224)" fill="#fff"/>
        <rect id="Rectángulo_402655" data-name="Rectángulo 402655" width="36.435" height="15.417" transform="translate(155.821 181.258)" fill="#242424"/>
        <rect id="Rectángulo_402656" data-name="Rectángulo 402656" width="36.435" height="15.417" transform="translate(119.386 181.258)" fill="#95d8a6"/>
        <rect id="Rectángulo_402657" data-name="Rectángulo 402657" width="36.435" height="15.417" transform="translate(82.95 181.258)" fill="#fff"/>
        <path id="Trazado_894523" data-name="Trazado 894523" d="M192.542,197.129H82.665V180.8H192.542Zm-109.306-.906H191.971V181.711H83.236Z"/>
        <rect id="Rectángulo_402658" data-name="Rectángulo 402658" width="36.435" height="15.417" transform="translate(150.239 212.094)" fill="#242424"/>
        <rect id="Rectángulo_402659" data-name="Rectángulo 402659" width="36.435" height="15.417" transform="translate(113.804 212.094)" fill="#95d8a6"/>
        <rect id="Rectángulo_402660" data-name="Rectángulo 402660" width="36.435" height="15.417" transform="translate(77.369 212.094)" fill="#fff"/>
        <path id="Trazado_894524" data-name="Trazado 894524" d="M186.961,227.965H77.084V211.641H186.961Zm-109.306-.906H186.39V212.547H77.655Z"/>
        <rect id="Rectángulo_402661" data-name="Rectángulo 402661" width="36.435" height="15.417" transform="translate(155.821 227.512)" fill="#242424"/>
        <rect id="Rectángulo_402662" data-name="Rectángulo 402662" width="36.435" height="15.417" transform="translate(119.386 227.512)" fill="#95d8a6"/>
        <rect id="Rectángulo_402663" data-name="Rectángulo 402663" width="36.435" height="15.417" transform="translate(82.95 227.512)" fill="#fff"/>
        <path id="Trazado_894525" data-name="Trazado 894525" d="M192.542,243.384H82.665V227.063H192.542Zm-109.306-.906H191.971V227.963H83.236Z"/>
        <rect id="Rectángulo_402664" data-name="Rectángulo 402664" width="36.435" height="15.417" transform="translate(164.616 242.93)" fill="#242424"/>
        <rect id="Rectángulo_402665" data-name="Rectángulo 402665" width="36.435" height="15.417" transform="translate(128.181 242.93)" fill="#95d8a6"/>
        <rect id="Rectángulo_402666" data-name="Rectángulo 402666" width="36.435" height="15.417" transform="translate(91.746 242.93)" fill="#fff"/>
        <path id="Trazado_894526" data-name="Trazado 894526" d="M201.337,258.8H91.46V242.48H201.337ZM92.031,257.9H200.766V243.386H92.031Z"/>
        <rect id="Rectángulo_402667" data-name="Rectángulo 402667" width="36.435" height="15.417" transform="translate(161.825 196.676)" fill="#242424"/>
        <rect id="Rectángulo_402668" data-name="Rectángulo 402668" width="36.435" height="15.417" transform="translate(125.39 196.676)" fill="#95d8a6"/>
        <rect id="Rectángulo_402669" data-name="Rectángulo 402669" width="36.435" height="15.417" transform="translate(88.955 196.676)" fill="#fff"/>
        <path id="Trazado_894527" data-name="Trazado 894527" d="M198.546,212.547H88.669V196.223H198.546ZM89.24,211.641H197.975V197.129H89.24Z"/>
        <path id="Trazado_894528" data-name="Trazado 894528" d="M107.438,79.055l1.1,8.282-5.883-4.3-18.006-9.2,13.927,1.275s7.1,1.723,7.479,2.071a17.378,17.378,0,0,1,1.383,1.866" fill="#ffa63f"/>
        <path id="Trazado_894529" data-name="Trazado 894529" d="M218.714,132.2v1.415l3.2.836.089-3.122Z" fill="#af6e7a"/>
        <path id="Trazado_894530" data-name="Trazado 894530" d="M225.973,131.907V133.6s3.073.922,3.062.929.251-2.769.251-2.769Z" fill="#af6e7a"/>
        <path id="Trazado_894531" data-name="Trazado 894531" d="M113.6,74.053l-28.956-.211,22.789,5.213Z" fill="#e99881"/>
        <path id="Trazado_894532" data-name="Trazado 894532" d="M98.127,87.387l7.587-6.094-21.068-7.45Z" fill="#e99881"/>
        <path id="Trazado_894533" data-name="Trazado 894533" d="M143.246,123.819l-.382-.565a7.81,7.81,0,0,0,1.594-1.443l.522.439a8.454,8.454,0,0,1-1.734,1.569" fill="#fff"/>
        <path id="Trazado_894534" data-name="Trazado 894534" d="M147.08,118.259l-.651-.2a19.138,19.138,0,0,0,.776-4.245l.68.052a19.774,19.774,0,0,1-.8,4.4m.782-8.854-.679.069c-.019-.187-.04-.373-.065-.56a17.63,17.63,0,0,0-.361-1.906c-.143-.581-.318-1.165-.521-1.738l.643-.227c.21.594.392,1.2.541,1.8a18.454,18.454,0,0,1,.375,1.979c.025.189.048.384.068.582m-3.5-8.031a25.183,25.183,0,0,0-2.585-3.482l.512-.451a25.967,25.967,0,0,1,2.655,3.577Zm-21.3-1.613a3.792,3.792,0,0,1-2.406-.312,3.608,3.608,0,0,1-1.371-1.544l.612-.3a2.893,2.893,0,0,0,1.1,1.251,3.141,3.141,0,0,0,1.894.236.394.394,0,0,0,.069-.021l.1-.063.379.567-.118.077a.883.883,0,0,1-.263.1m15.613-4.913a34.776,34.776,0,0,0-3.492-2.607l.374-.571a35.613,35.613,0,0,1,3.561,2.658Zm-12.775.9-.668-.14a6.27,6.27,0,0,0,.134-1.274,7.589,7.589,0,0,0-.228-1.837,9.136,9.136,0,0,0-.318-1.021l.638-.24a9.855,9.855,0,0,1,.342,1.1,8.275,8.275,0,0,1,.248,2,6.9,6.9,0,0,1-.149,1.412m-5.994-2.1-.615-.294a6.856,6.856,0,0,1,3.186-3.106l.094-.045.29.617-.087.041a6.166,6.166,0,0,0-2.868,2.786m11.313-3.058a14.068,14.068,0,0,0-2.693-.63c-.545-.026-1.044-.031-1.524-.017l-.021-.682c.5-.015,1.014-.009,1.577.017a15.588,15.588,0,0,1,2.86.659Zm-8.608-2.76a14.552,14.552,0,0,0-3.234-2.813l.368-.575a15.248,15.248,0,0,1,3.384,2.945Z" fill="#fff"/>
        <path id="Trazado_894535" data-name="Trazado 894535" d="M115.461,83.274a13.119,13.119,0,0,0-2.153-.406l.069-.678a13.83,13.83,0,0,1,2.265.427Z" fill="#fff"/>
        <path id="Trazado_894536" data-name="Trazado 894536" d="M207.133,66.427l-.587,3.68-1.24-4.907s1.738-.843,1.814-.537a13.647,13.647,0,0,1,.012,1.763" fill="#3ae9be"/>
        <path id="Trazado_894537" data-name="Trazado 894537" d="M197.272,74.348l-.537,6.362,5.614-.268-.647-5.634Z" fill="#af6e7a"/>
        <path id="Trazado_894538" data-name="Trazado 894538" d="M202.01,77.487l-.308-2.679-4.43-.46-.186,2.2a4.456,4.456,0,0,0,4.924.936" fill="#7e7ba7"/>
        <path id="Trazado_894539" data-name="Trazado 894539" d="M205.453,70.061a1.152,1.152,0,1,0,1.623-.775,1.287,1.287,0,0,0-1.623.775" fill="#7e7ba7"/>
        <path id="Trazado_894540" data-name="Trazado 894540" d="M204.981,74.241a5.856,5.856,0,0,0,.512-.952,11.067,11.067,0,0,0,.774-2.716c.029-.182.069-.362.112-.541a6,6,0,1,0-11.818-1.788,1.3,1.3,0,0,0-1.16-.165,1.809,1.809,0,0,0,1.232,3.307,1.131,1.131,0,0,0,.279-.153,5.626,5.626,0,0,0,5.254,5.5,5.38,5.38,0,0,0,3.741-1.286,2.434,2.434,0,0,0,.215-.177,5.219,5.219,0,0,0,.858-1.028" fill="#af6e7a"/>
        <path id="Trazado_894541" data-name="Trazado 894541" d="M201.894,68.649c.011.344.014.679.032,1.008a2.236,2.236,0,0,0,.185.891l.026.036a.365.365,0,0,0,.032.045.827.827,0,0,1,.09.129.683.683,0,0,1,.09.315.711.711,0,0,1-.262.555,1.159,1.159,0,0,1-1.032.2,1.426,1.426,0,0,0,.844-.394.452.452,0,0,0,.124-.344.382.382,0,0,0-.059-.163.514.514,0,0,0-.056-.076l-.043-.057-.048-.067a1.338,1.338,0,0,1-.162-.549,2.75,2.75,0,0,1,0-.529,3.583,3.583,0,0,1,.236-1" fill="#7e7ba7"/>
        <path id="Trazado_894542" data-name="Trazado 894542" d="M199.9,69.1a.524.524,0,1,1-.5-.548.525.525,0,0,1,.5.548h0" fill="#fff"/>
        <path id="Trazado_894543" data-name="Trazado 894543" d="M204.382,69.608a.524.524,0,1,1-.5-.548.525.525,0,0,1,.5.548h0" fill="#fff"/>
        <path id="Trazado_894544" data-name="Trazado 894544" d="M199.025,72.649a3.74,3.74,0,0,0,.433.329,3.788,3.788,0,0,0,.466.27,3.231,3.231,0,0,0,1.016.312,2.761,2.761,0,0,0,1.055-.078,3.862,3.862,0,0,0,.981-.446,3.317,3.317,0,0,1-.447.317,3.052,3.052,0,0,1-.5.229,2.6,2.6,0,0,1-.544.119,2.748,2.748,0,0,1-.559-.006,2.869,2.869,0,0,1-1.048-.355,3.121,3.121,0,0,1-.85-.692" fill="#7e7ba7"/>
        <path id="Trazado_894545" data-name="Trazado 894545" d="M200.561,67.92a5.439,5.439,0,0,0-.766-.184,2.642,2.642,0,0,0-.727-.016,2.466,2.466,0,0,0-.7.186c-.121.038-.226.109-.348.16s-.228.133-.359.191a2.25,2.25,0,0,1,.232-.349,1.789,1.789,0,0,1,.317-.285,1.689,1.689,0,0,1,.812-.312,1.766,1.766,0,0,1,.86.114,1.616,1.616,0,0,1,.679.495"/>
        <path id="Trazado_894546" data-name="Trazado 894546" d="M202.868,68.181a1.617,1.617,0,0,1,.762-.354,1.767,1.767,0,0,1,.866.055,1.691,1.691,0,0,1,.735.464,1.805,1.805,0,0,1,.255.341,2.185,2.185,0,0,1,.16.388c-.118-.082-.211-.177-.315-.257a2.522,2.522,0,0,0-.311-.225,2.437,2.437,0,0,0-.65-.318,2.646,2.646,0,0,0-.717-.126,5.442,5.442,0,0,0-.787.032"/>
        <path id="Trazado_894547" data-name="Trazado 894547" d="M200.364,104.192s-1.171,7.942,6.5,9.326a92.909,92.909,0,0,0,17.221.971l1.329,18.244,4.006.2s10.315-25.348-3.963-29.31l-12.831.063-5.284-.377s-5.346-1.321-5.409-1.069-1.447,2.076-1.572,1.95"/>
        <path id="Trazado_894548" data-name="Trazado 894548" d="M193.311,104.234s-1.171,7.942,6.5,9.325a92.822,92.822,0,0,0,17.221.971l1.329,18.244,4.006.2s10.315-25.348-3.962-29.31l-12.831.063-5.284-.377s-5.346-1.321-5.409-1.069-1.447,2.076-1.572,1.95" fill="#242424"/>
        <path id="Trazado_894549" data-name="Trazado 894549" d="M202.976,78.177s5.284.671,6.625,1.761,7.8,17.108,7.8,17.108l-5.367,6.29-11.4.084s-8.554,4.613-13.922.252-2.6-19.54.5-22.811,8.638-3.187,8.638-3.187,5.032,3.522,7.128.5" fill="#fff"/>
        <path id="Trazado_894550" data-name="Trazado 894550" d="M192.747,86.14a22.289,22.289,0,0,1,.387,2.648c.046.444.065.891.091,1.337s.024.894.018,1.341a17.638,17.638,0,0,1-.22,2.677,8.8,8.8,0,0,1-.779,2.564,13.149,13.149,0,0,0,.512-2.6,26.22,26.22,0,0,0,.142-2.645q.017-1.326-.031-2.657t-.119-2.665" fill="#36769d"/>
        <path id="Trazado_894551" data-name="Trazado 894551" d="M208.553,85.553c.241,1.3.5,2.594.757,3.886s.54,2.579.852,3.858.652,2.549,1.068,3.8a18.531,18.531,0,0,0,.713,1.833,7.061,7.061,0,0,0,1.014,1.682A6.431,6.431,0,0,1,211.792,99a15.1,15.1,0,0,1-.815-1.818c-.237-.62-.441-1.252-.634-1.886s-.356-1.276-.515-1.919-.3-1.29-.427-1.939-.25-1.3-.354-1.952c-.216-1.3-.384-2.617-.493-3.934" fill="#36769d"/>
        <path id="Trazado_894552" data-name="Trazado 894552" d="M211.208,99.7c-.034-.265-2.049-.562-2.79-.6-.561-.029-4.282-.154-5.548-.21l.093.325-.019,1.437-.208.953c1.11.07,3.825.177,4.39.288a13.828,13.828,0,0,1,2.065.719s.545-.124-.147-.422a3.313,3.313,0,0,1-1.111-.8c-.1-.106.008-.3.077-.277,1.885.494,2.078.576,2.078.576s2.215-.012.013-.51c-1.32-.3-1.793-.472-1.911-.62-.05-.063.04-.278.12-.283,1.144-.071,3.2.335,2.635.069a14.416,14.416,0,0,0-2.464-.544c-.035-.006-.09-.215.063-.228,1.089-.091,2.7.371,2.665.124" fill="#af6e7a"/>
        <path id="Trazado_894553" data-name="Trazado 894553" d="M191.456,96.492c.464.113.921.242,1.387.34s.932.191,1.4.289q1.4.255,2.813.451c.942.123,1.885.237,2.83.329s1.9.174,2.832.226l.126.007.027.109a7.705,7.705,0,0,1,.172.941,7.544,7.544,0,0,1,.056.95,6.179,6.179,0,0,1-.083.951,4.386,4.386,0,0,1-.276.917l-.011.025-.02.014-1.036.695q-.518.348-1.041.687.487-.39.982-.77l.987-.762-.031.039a4.173,4.173,0,0,0,.217-.881,6.169,6.169,0,0,0,.044-.912,8.456,8.456,0,0,0-.083-.913,7.56,7.56,0,0,0-.183-.893l.153.116c-.493-.013-.959-.045-1.439-.08s-.952-.073-1.427-.123c-.95-.1-1.9-.217-2.841-.368s-1.881-.336-2.811-.556c-.463-.119-.927-.233-1.382-.376s-.91-.29-1.358-.45" fill="#36769d"/>
        <path id="Trazado_894554" data-name="Trazado 894554" d="M235.067,89.033H214.438l-5.849,14.278h-7.121a.53.53,0,0,0-.5.5.509.509,0,0,0,.5.5h26.745Z" fill="#e99881"/>
        <path id="Trazado_894555" data-name="Trazado 894555" d="M224.837,97.181a.992.992,0,1,1-.743-1.295,1.061,1.061,0,0,1,.743,1.295" fill="#77b180"/>
        <path id="Trazado_894556" data-name="Trazado 894556" d="M207.247,62.945s1.761.057-.087-1.433-6.811-3.236-9.992-1.556c0,0-.636-1.352-1.556-1.03s.6,1.253.6,1.253-1.174-.038-1.533.538c-.265.426.454.444.847.425-.669.114-3.231,1.732-1.945,6.9.457-.1,3.062-3.878,3.062-3.878s5.957,3.31,5.368.678c0,0,6.172,3.852,5.3.67,0,0,2.387.175-.06-2.568"/>
        <path id="Trazado_894557" data-name="Trazado 894557" d="M193.574,68.074a1.129,1.129,0,0,1,1.024.248c.531.421.472,1.9.472,1.9s2.533,1.633,2.265-5.277c-.284-7.351-2.113.59-2.113.59Z"/>
        <path id="Trazado_894558" data-name="Trazado 894558" d="M79.643,58.747,64.225,79.658l5.57,2.662L63.044,99.167,79.675,79.844,73.14,77.262Z" fill="#fff"/>
        <path id="Trazado_894559" data-name="Trazado 894559" d="M119.118,179.431l3.207-1.979,2.771,1.674-.968.689-3.36.474s-1.311-.168-1.369-.207a4.409,4.409,0,0,1-.281-.651" fill="#af6e7a"/>
        <path id="Trazado_894560" data-name="Trazado 894560" d="M119.119,179.43l-.813.523a.445.445,0,0,0,.236.822l6.154.029a.393.393,0,0,0,.4-.386v-.005l.006-1.288c-4.1,1.286-5.519.882-5.978.3" fill="#3ae9be"/>
        <path id="Trazado_894561" data-name="Trazado 894561" d="M132.619,179.546l3.208-1.979,2.77,1.674-.968.689-3.36.474s-1.311-.168-1.369-.207a4.512,4.512,0,0,1-.282-.65" fill="#af6e7a"/>
        <path id="Trazado_894562" data-name="Trazado 894562" d="M132.619,179.546l-.813.523a.445.445,0,0,0,.235.822l6.154.029a.393.393,0,0,0,.395-.391l.006-1.288c-4.1,1.286-5.519.882-5.978.305" fill="#3ae9be"/>
        <path id="Trazado_894563" data-name="Trazado 894563" d="M0,93.033l11.626,16.442,3.317-3.449L25.692,115.1,15.53,98.156l-3.493,4.177Z" fill="#fff"/>
        <path id="Trazado_894564" data-name="Trazado 894564" d="M36.5,68.691,34.635,83.557l3.553-.231L39.541,93.7,42.46,79.295l-4.015.544Z" fill="#fff"/>
        <path id="Trazado_894565" data-name="Trazado 894565" d="M164.06,125.019a4.2,4.2,0,0,1,4.233,0c2.253,1.3,2.253,5.667,1.366,6.713s.045,2.462-1.73,3.827-4.6,1.867-6.216.271-.43-5.154-.43-5.154Z" fill="#242424"/>
        <path id="Trazado_894566" data-name="Trazado 894566" d="M139.13,139.581a.124.124,0,0,1-.16.071.12.12,0,0,1-.058-.046,14.027,14.027,0,0,0-2-2.534c-.221.088.972,1.885.839,2.062s-1.252-1.6-1.473-1.473.854,1.723.78,1.811-1.266-1.325-1.443-1.325.913,1.664.854,1.8-1.193-.766-1.281-.677-.162.133,1.811,2.886c0,0,.859.867.918,1.22l1.041.326,1.06-1.046s.1-4.359-.044-4.462-.267-.022-.841,1.39" fill="#913d37"/>
        <path id="Trazado_894567" data-name="Trazado 894567" d="M142.856,165.679l-4.03,13.771-4.87-1.362,1.624-11.563,5.035-3.455Z" fill="#3ae9be"/>
        <path id="Trazado_894568" data-name="Trazado 894568" d="M158.585,137.418s-8.452,10.4-9.886,12.054l-8.562-8.452A11.463,11.463,0,0,0,137.528,143s3.454,7.975,6.431,10.069l5.953,4.006-1.139,2.72,2.131,1.654,1.121-2.683,3.068-6.8,2.9-9.04.551-4.483Z" fill="#ffa63f"/>
        <path id="Trazado_894569" data-name="Trazado 894569" d="M158.548,138.448s-3.565,5.806-4.3,8.048-.147,2.425-.478,5.145-2.83,10-2.83,10l4.153,2.793s2.242-7.166,2.242-7.46,2.095-13.414,2.095-13.414l1.727-4.887Z" fill="#fff"/>
        <path id="Trazado_894570" data-name="Trazado 894570" d="M154.689,164.135s-7.129-6.394-12.642-7.681-20.339,21.078-20.339,21.078l3.544,2.552s12.826-9.224,15.251-13.34c0,0,10.42,13.741,13.911,14.071s7.429-.407,12.071-5.986c5.262-6.325-11.8-10.694-11.8-10.694" fill="#36769d"/>
        <path id="Trazado_894571" data-name="Trazado 894571" d="M161.782,132.788l1.58,4.263s-1.144,2.6-4.975,1.64a3.992,3.992,0,0,0-.248-2.729c-.662-1.859,3.643-3.174,3.643-3.174" fill="#af6e7a"/>
        <g id="Grupo_1103027" data-name="Grupo 1103027" opacity="0.6">
          <g id="Grupo_1103026" data-name="Grupo 1103026">
            <g id="Grupo_1103025" data-name="Grupo 1103025" clip-path="url(#clip-path-13)">
              <g id="Grupo_1103024" data-name="Grupo 1103024">
                <g id="Grupo_1103023" data-name="Grupo 1103023" clip-path="url(#clip-path-13)">
                  <path id="Trazado_894572" data-name="Trazado 894572" d="M161.782,132.788l.741,1.991c-.343,1.488-1.6,2.539-4.018,2.939a5.864,5.864,0,0,0-.366-1.756c-.662-1.859,3.643-3.174,3.643-3.174" fill="#7e7ba7"/>
                </g>
              </g>
            </g>
          </g>
        </g>
        <path id="Trazado_894573" data-name="Trazado 894573" d="M139.879,162.573a5.276,5.276,0,0,0-.1,1.064,7.223,7.223,0,0,0,.085,1.069,9.421,9.421,0,0,0,.231,1.048,7.718,7.718,0,0,0,.357,1.014l.083-.072a4.876,4.876,0,0,1-.546-.436c-.174-.157-.343-.321-.5-.493s-.314-.351-.462-.534-.289-.374-.429-.565c.121.2.251.4.389.6s.288.378.441.559a6,6,0,0,0,.493.516,4.945,4.945,0,0,0,.556.455l.16.109-.076-.181a10.1,10.1,0,0,1-.347-1,9.356,9.356,0,0,1-.241-1.032,7.77,7.77,0,0,1-.122-1.053,6.506,6.506,0,0,1,.033-1.063" fill="#fff"/>
        <path id="Trazado_894574" data-name="Trazado 894574" d="M152.993,129.947a1.137,1.137,0,1,1-1.6-.766,1.272,1.272,0,0,1,1.6.766" fill="#7e7ba7"/>
        <path id="Trazado_894575" data-name="Trazado 894575" d="M153.459,134.074a5.788,5.788,0,0,1-.506-.94,10.979,10.979,0,0,1-.764-2.682c-.029-.18-.068-.358-.111-.535a5.924,5.924,0,1,1,11.671-1.766,1.282,1.282,0,0,1,1.145-.163,1.786,1.786,0,0,1-1.217,3.266,1.117,1.117,0,0,1-.275-.151,5.554,5.554,0,0,1-5.189,5.431,5.315,5.315,0,0,1-3.694-1.27,2.738,2.738,0,0,1-.212-.175,5.162,5.162,0,0,1-.848-1.016" fill="#af6e7a"/>
        <path id="Trazado_894576" data-name="Trazado 894576" d="M156.507,128.552c.013.335.024.667.015.994a3.9,3.9,0,0,1-.042.483,1.208,1.208,0,0,1-.136.43l-.029.041c-.01.015-.016.025-.033.047a.818.818,0,0,0-.083.119.563.563,0,0,0-.058.136.5.5,0,0,0-.026.148.66.66,0,0,0,.235.512,1.012,1.012,0,0,0,.478.23,1.4,1.4,0,0,0,.509,0,1.929,1.929,0,0,1-.479-.106,1,1,0,0,1-.387-.249.5.5,0,0,1-.147-.377.343.343,0,0,1,.021-.1.4.4,0,0,1,.042-.092.564.564,0,0,1,.061-.084c.022-.029.058-.076.085-.114a1.347,1.347,0,0,0,.155-.518,2.944,2.944,0,0,0,.007-.514,4.18,4.18,0,0,0-.187-.991" fill="#7e7ba7"/>
        <path id="Trazado_894577" data-name="Trazado 894577" d="M158.473,129a.517.517,0,1,0,.493-.541.518.518,0,0,0-.493.541h0" fill="#fff"/>
        <path id="Trazado_894578" data-name="Trazado 894578" d="M154.051,129.5a.517.517,0,1,0,.493-.541.518.518,0,0,0-.493.541h0" fill="#fff"/>
        <g id="Grupo_1103032" data-name="Grupo 1103032" opacity="0.3" style="mix-blend-mode: multiply;isolation: isolate">
          <g id="Grupo_1103031" data-name="Grupo 1103031">
            <g id="Grupo_1103030" data-name="Grupo 1103030" clip-path="url(#clip-path-15)">
              <g id="Grupo_1103029" data-name="Grupo 1103029">
                <g id="Grupo_1103028" data-name="Grupo 1103028" clip-path="url(#clip-path-16)">
                  <path id="Trazado_894579" data-name="Trazado 894579" d="M158.708,132.927a1.736,1.736,0,0,0-1.428.243,1.28,1.28,0,0,0-1.345.028,1.428,1.428,0,0,0,1.548.989,1.278,1.278,0,0,0,1.224-1.26" fill="#7e7ba7"/>
                </g>
              </g>
            </g>
          </g>
        </g>
        <path id="Trazado_894580" data-name="Trazado 894580" d="M159.34,132.5a4.29,4.29,0,0,1-.888.591,3.191,3.191,0,0,1-1,.308,2.734,2.734,0,0,1-1.042-.077,3.836,3.836,0,0,1-.969-.44,3.186,3.186,0,0,0,.442.314,2.962,2.962,0,0,0,.5.227,2.587,2.587,0,0,0,.537.117,2.679,2.679,0,0,0,.552-.006,2.837,2.837,0,0,0,1.035-.351,3.123,3.123,0,0,0,.839-.683" fill="#7e7ba7"/>
        <path id="Trazado_894581" data-name="Trazado 894581" d="M157.824,127.833a5.3,5.3,0,0,1,.756-.182,2.656,2.656,0,0,1,.718-.016,2.435,2.435,0,0,1,.691.183c.119.037.223.108.344.158s.224.132.355.189a2.227,2.227,0,0,0-.23-.345,1.777,1.777,0,0,0-.313-.281,1.661,1.661,0,0,0-.8-.308,1.738,1.738,0,0,0-.85.113,1.592,1.592,0,0,0-.67.489" fill="#242424"/>
        <path id="Trazado_894582" data-name="Trazado 894582" d="M155.546,128.089a1.6,1.6,0,0,0-.753-.349,1.746,1.746,0,0,0-.855.054,1.674,1.674,0,0,0-.726.458,1.763,1.763,0,0,0-.252.337,2.129,2.129,0,0,0-.158.383c.117-.081.208-.175.311-.254a2.7,2.7,0,0,1,.307-.222,2.407,2.407,0,0,1,.642-.314,2.58,2.58,0,0,1,.708-.124,5.309,5.309,0,0,1,.777.031" fill="#242424"/>
        <path id="Trazado_894583" data-name="Trazado 894583" d="M151.254,140.845a18.15,18.15,0,1,1-23.62-10.048h0a18.15,18.15,0,0,1,23.619,10.048" fill="#fff"/>
        <path id="Trazado_894584" data-name="Trazado 894584" d="M149.56,141.528a16.323,16.323,0,1,1-21.242-9.037,16.324,16.324,0,0,1,21.242,9.037" fill="#242424"/>
        <path id="Trazado_894585" data-name="Trazado 894585" d="M140.133,161.8a15.282,15.282,0,1,1,8.461-19.887,15.282,15.282,0,0,1-8.461,19.887m-11.216-27.826a14.721,14.721,0,1,0,19.157,8.15,14.72,14.72,0,0,0-19.157-8.15" fill="#fff"/>
        <path id="Trazado_894586" data-name="Trazado 894586" d="M134.977,142.223a2.69,2.69,0,0,0-2.081-1.271,2.285,2.285,0,0,0,.076.335c.511,1.273,1.034,2.541,1.533,3.818.109.28.244.344.543.322a19.364,19.364,0,0,1,2.1-.048,4.647,4.647,0,0,1,4.523,3.785,5.26,5.26,0,0,1-2.368,6.274.622.622,0,0,0-.335.815.646.646,0,0,0,.077.135c.155.3.26.628.4.974l-1.641.661-.594-1.474a5.741,5.741,0,0,1-6.847-3.129l2.808-1.507a4.231,4.231,0,0,0,2.9,1.82l-.776-1.926c-.336-.833-.686-1.66-1-2.5a.509.509,0,0,0-.6-.4h-.007a6.836,6.836,0,0,1-3.173-.408,5.24,5.24,0,0,1-3.248-4.646,4.624,4.624,0,0,1,2.379-4.514c.11-.07.221-.14.329-.213a1.54,1.54,0,0,0,.142-.126l-.5-1.231,1.666-.672c.118.293.259.584.353.89.1.323.273.369.586.3a4.806,4.806,0,0,1,3.933.656,5.108,5.108,0,0,1,1.564,1.724l-2.738,1.552m1.031,6.518,1.774,4.42a2.425,2.425,0,0,0,1.079-2.882,2.4,2.4,0,0,0-2.857-1.529m-4.872-7.117a2.334,2.334,0,0,0-.657,2.6,2.25,2.25,0,0,0,2.229,1.3l-1.571-3.9" fill="#fff"/>
        <path id="Trazado_894587" data-name="Trazado 894587" d="M140.849,150.946a.137.137,0,0,1-.076.178.142.142,0,0,1-.079.007c-.827-.174-3.431-.708-3.523-.507-.11.238,2.206.771,2.233,1.013s-2.217-.335-2.294-.062,1.989.731,2,.857-2.017-.1-2.158.034,1.991.639,2.044.79-1.534.291-1.538.429-.029.229,3.636.936l1.455.217,1.283-.464.056-1.64s-3.221-3.564-3.416-3.535-.231.185.38,1.749" fill="#af6e7a"/>
        <path id="Trazado_894588" data-name="Trazado 894588" d="M163.256,136.334s7.276,8.765,6.284,24.2-1.158,15.545-1.158,15.545a16.919,16.919,0,0,1-7.772-3.123,38.73,38.73,0,0,0-7.35-4.447l2.683-8.71a17.047,17.047,0,0,1-6.027-.956c-2.536-1.066-7.828-3.9-7.828-3.9a13.4,13.4,0,0,1,.992-3.418s6.725,2.058,10.106,2.1c0,0,3.932-12.127,10.069-17.291" fill="#e99881"/>
        <path id="Trazado_894589" data-name="Trazado 894589" d="M162.728,139.145a30.926,30.926,0,0,0-3.089,3.118,36.744,36.744,0,0,0-2.671,3.491l-.3.458c-.1.152-.2.3-.3.463l-.571.94c-.1.155-.181.319-.269.48l-.263.483-.262.483c-.086.162-.159.33-.24.5l-.471.993-.414,1.018-.2.51-.172.522q-.174.521-.339,1.044.2-.51.4-1.021l.2-.51.227-.5.449-1,.5-.974c.084-.162.162-.327.251-.485l.269-.476.269-.476c.09-.158.175-.319.275-.472l.574-.93c.093-.157.2-.307.3-.458l.3-.453q1.22-1.813,2.612-3.5l.706-.836c.242-.273.479-.55.725-.819q.729-.818,1.511-1.586" fill="#36769d"/>
        <path id="Trazado_894590" data-name="Trazado 894590" d="M165.87,145.264c-.6,1.348-1.239,2.676-1.9,3.992-.333.656-.672,1.31-1.025,1.956s-.71,1.289-1.088,1.919-.762,1.257-1.172,1.867c-.2.308-.414.606-.625.907s-.435.592-.664.878a16.636,16.636,0,0,1-1.466,1.639,7.727,7.727,0,0,1-1.763,1.312,7.273,7.273,0,0,0,1.845-1.222,14.93,14.93,0,0,0,1.534-1.607c.478-.566.914-1.166,1.333-1.776s.813-1.237,1.191-1.872c.754-1.272,1.439-2.583,2.073-3.917s1.216-2.692,1.726-4.077" fill="#36769d"/>
        <path id="Trazado_894591" data-name="Trazado 894591" d="M151.758,123.141a7.12,7.12,0,0,1,3.938-3.478,7.586,7.586,0,0,1,5.509-.1c5.012,1.882,4.013,7.41,3.777,8.444a1.357,1.357,0,0,0-.97.169,2.264,2.264,0,0,0-.415.285c-.975-.3-1.27-1.916-1.775-2.7-.685-1.058-3.341-.05-4.486-.8a2.976,2.976,0,0,1-1.34-1.532c-4.415.7-4.084,5.669-4.084,5.669-.191-.043-.632-.758-.632-.758s-1.087-1.795.478-5.2" fill="#242424"/>
        <path id="Trazado_894592" data-name="Trazado 894592" d="M315.621,193.273,306.19,199.2l-.7,55.7,1.879,1.291,1.845-.411,5.35-36.625,4.367-23.642Z" fill="#af6e7a"/>
        <path id="Trazado_894593" data-name="Trazado 894593" d="M334.771,247.887a61.825,61.825,0,0,0-11.561-19.053s1.379-3.72,2.8-15.994-4.563-19.983-4.563-19.983l-10.584,3.159s5.383,32.162,6.248,34.207c.678,1.6,9.284,13.118,12.984,18.038l.005.087,1.669,2.132,1.581,2.02,1.868-.846.331-2.332Z" fill="#af6e7a"/>
        <path id="Trazado_894594" data-name="Trazado 894594" d="M306.185,198.414s-2.477,18.909-2.2,33.035c0,0,9.568,1.511,16.594.982l.3-8.083,1.511,7.629s3.474-.151,5.061-1.435a104.61,104.61,0,0,1-.68-14.277c.288-6.2.028-14.011-2.014-19.19s-13.4.494-13.4.494Z" fill="#36769d"/>
        <path id="Trazado_894595" data-name="Trazado 894595" d="M318.962,150.791a8.791,8.791,0,0,1,2.827,4.018c.558,2.01,3.043,1.657,4.6,4.343,1.726,2.983,4.182,7.444-1.449,10.452-3.5,1.869-9.066,3.306-10.329,2.046s-4.273-.756-3.6-14.011c0,0,8.233-4.652,8.316-4.68a18.528,18.528,0,0,0-.366-2.169"/>
        <path id="Trazado_894596" data-name="Trazado 894596" d="M308,188.74l1.007-4.332-2.507-6.73a79.2,79.2,0,0,1-3.43,10.1l-7.555.918-1.6.3s10.339,5.9,13.147,1.556l.482.118.268-1.153a3.745,3.745,0,0,0,.356-.781Z"/>
        <path id="Trazado_894597" data-name="Trazado 894597" d="M317.615,165.265l-.2,3.183-4.339.9h-.767l.16-3.814,4.6-1.625Z" fill="#af6e7a"/>
        <path id="Trazado_894598" data-name="Trazado 894598" d="M310.806,170.362c-.2,2.139.688,2.537.688,2.537l6.553-4.863c-4.068.4-6.7.836-6.7.836s-.338,1.549-.543,1.49" fill="#af6e7a"/>
        <path id="Trazado_894599" data-name="Trazado 894599" d="M321.683,158.341s1.338-5.489-1.849-7.545a8.713,8.713,0,0,0-8.865-.6c-2.3,1.232-3.679,5.526-2.647,7.98l7.636-2.343Z" fill="#3ae9be"/>
        <path id="Trazado_894600" data-name="Trazado 894600" d="M317.709,164.432s-.092.924-.172,2.075c-1.65,1.807-4.743,1.187-5.152,1.012.025-.579,0-1.751,0-1.751Z" fill="#7e7ba7"/>
        <path id="Trazado_894601" data-name="Trazado 894601" d="M309.312,159.15a1.169,1.169,0,1,1-1.562-.944,1.307,1.307,0,0,1,1.562.944" fill="#7e7ba7"/>
        <path id="Trazado_894602" data-name="Trazado 894602" d="M309.375,163.419a5.865,5.865,0,0,1-.423-1.012,11.27,11.27,0,0,1-.513-2.82c-.012-.187-.034-.372-.06-.558a6.088,6.088,0,1,1,12.114-.636,1.317,1.317,0,0,1,1.188-.052,1.836,1.836,0,0,1-1.573,3.218,1.156,1.156,0,0,1-.267-.182,5.708,5.708,0,0,1-5.852,5.035,5.462,5.462,0,0,1-3.651-1.67,2.694,2.694,0,0,1-.2-.2,5.275,5.275,0,0,1-.765-1.124" fill="#af6e7a"/>
        <path id="Trazado_894603" data-name="Trazado 894603" d="M314.85,159.228a.572.572,0,1,0,.6-.542h0a.572.572,0,0,0-.6.542" fill="#fff"/>
        <path id="Trazado_894604" data-name="Trazado 894604" d="M309.772,159.228a.572.572,0,1,0,.6-.542h0a.572.572,0,0,0-.6.542" fill="#fff"/>
        <path id="Trazado_894605" data-name="Trazado 894605" d="M314.369,158.274a3.573,3.573,0,0,1,.805-.309,2.545,2.545,0,0,1,.834-.064,2.172,2.172,0,0,1,.409.078c.068.017.133.042.2.065.033.011.065.027.1.04s.065.026.1.042a4.3,4.3,0,0,1,.732.459,2.291,2.291,0,0,0-.656-.6,1.955,1.955,0,0,0-.412-.192,1.911,1.911,0,0,0-.448-.1,2.087,2.087,0,0,0-.9.115,2.278,2.278,0,0,0-.406.191,1.817,1.817,0,0,0-.353.27"/>
        <path id="Trazado_894606" data-name="Trazado 894606" d="M312.064,158.274a1.815,1.815,0,0,0-.353-.27,2.254,2.254,0,0,0-.407-.191,2.087,2.087,0,0,0-.9-.115,2.024,2.024,0,0,0-.859.288,2.291,2.291,0,0,0-.656.6,4.3,4.3,0,0,1,.732-.459.96.96,0,0,1,.1-.042c.033-.013.064-.029.1-.04.066-.023.131-.048.2-.065a2.2,2.2,0,0,1,.41-.078,2.545,2.545,0,0,1,.834.064,3.572,3.572,0,0,1,.8.309"/>
        <path id="Trazado_894607" data-name="Trazado 894607" d="M325.132,177.5a4.5,4.5,0,0,1-.388-.471,5.177,5.177,0,0,1-.33-.519,4.811,4.811,0,0,1-.271-.554,5.827,5.827,0,0,1-.205-.587,3.383,3.383,0,0,0,.131.613c.029.1.068.2.1.3a1.953,1.953,0,0,0,.13.288,4.245,4.245,0,0,0,.323.543,3.947,3.947,0,0,0,.317.4,2.292,2.292,0,0,1-.775.019c-.076-.009-.149-.027-.223-.042a1.223,1.223,0,0,1-.218-.068,2.376,2.376,0,0,1-.416-.2,1.9,1.9,0,0,0,.839.412,2.1,2.1,0,0,0,.474.048,1.927,1.927,0,0,0,.478-.06l.115-.03Z" fill="#fff"/>
        <path id="Trazado_894608" data-name="Trazado 894608" d="M312.735,158.965a6.845,6.845,0,0,0-.423.81,6.443,6.443,0,0,0-.319.861,2.37,2.37,0,0,0-.086.464.9.9,0,0,0,0,.128c0,.023.008.046.014.069a.292.292,0,0,0,.034.074c.009.013.019.025.028.037l.024.021c.016.013.031.028.048.04.034.023.066.047.1.067a2.191,2.191,0,0,0,.424.193,2.958,2.958,0,0,0,.444.116,5.006,5.006,0,0,1-.787-.431c-.03-.021-.056-.045-.083-.067l-.037-.036-.018-.017v-.01a.36.36,0,0,1-.013-.172,2.479,2.479,0,0,1,.089-.426c.079-.287.178-.571.274-.857s.2-.572.288-.864" fill="#7e7ba7"/>
        <path id="Trazado_894609" data-name="Trazado 894609" d="M324.1,186.578h0c.78-4.337,1.115-8.992,1.115-8.992.044-1.073-1.228-2.554-1.284-3.4a4.228,4.228,0,0,1-1.344-1.607l-1.893-3.931-1.259-.618a5.993,5.993,0,0,0-1.466,0l-3.247,2.444a2.1,2.1,0,0,1-3.365-1.6c-2.848,2.285-4.765,3.315-5.16,6.982-.276,2.56,1.116,4.729,1.27,7.167l-1.276,15.4s10.746.121,18.574-1.338a65.284,65.284,0,0,1-.662-10.5" fill="#242424"/>
        <path id="Trazado_894610" data-name="Trazado 894610" d="M305.3,197.735l-11.214.676a1.9,1.9,0,0,1-1.754-1.015l-5.9-13.651c-.261-.6.1-1.126.81-1.169l11.214-.676a1.894,1.894,0,0,1,1.754,1.014l5.9,13.651c.26.6-.1,1.126-.81,1.169" fill="#3ae9be"/>
        <path id="Trazado_894611" data-name="Trazado 894611" d="M295.132,182.788l-3.818.23a.819.819,0,0,1-.758-.438l-.106-.245c-.113-.26.044-.486.35-.5l3.818-.23a.819.819,0,0,1,.758.438l.106.245c.113.261-.044.487-.35.505" fill="#e99881"/>
        <path id="Trazado_894612" data-name="Trazado 894612" d="M290.957,194.247l-.048.021a.6.6,0,0,1-.768-.251l-1.755-3.056a.442.442,0,0,1,.011-.474c.3-.444.938-1.357,1.157-1.324.289.044-.593,1.561-.472,1.592s1.367-.98,1.472-.815c.1.148-1,1.323-.952,1.415s1.318-.645,1.454-.513-1.071,1.069-1.054,1.136Z" fill="#af6e7a"/>
        <path id="Trazado_894613" data-name="Trazado 894613" d="M289.916,192.018s1.269-.385,1.381-.243-1.387.951-1.381.914,0-.672,0-.672" fill="#af6e7a"/>
        <path id="Trazado_894614" data-name="Trazado 894614" d="M321.27,157.584l-.143-.017-.1-1.191-.533-1.1s-2.086-2.962-2.16-3.035-1.664-1.028-1.762-1.077-2.325.318-2.325.318-3.918-.843-3.255,1.346a5.608,5.608,0,0,0,3.671,3.231,3.84,3.84,0,0,1-.514-1.885c2.2,2.545,6.345,4.219,6.345,4.219a1.269,1.269,0,0,1,1.188-.051Z"/>
        <path id="Trazado_894615" data-name="Trazado 894615" d="M311.465,162.746a1.62,1.62,0,0,0,3.124-.054Z" fill="#fff"/>
        <path id="Trazado_894616" data-name="Trazado 894616" d="M326.046,178.658s-1.593-8.754-6.483-10.578a2.032,2.032,0,0,0-2.744,1.892c-.01,2.014,6.184,16.93,5.548,17.7-.866,1.042-16.761,4.8-17.292,4.922l-1.893-.182a24.114,24.114,0,0,0-3.3-.2c-.128.162-.045.32,1.615,1.1a.15.15,0,0,1,.073.2.152.152,0,0,1-.058.065c-.788.482-3.26,2.017-3.183,2.245.091.272,2.333-1.046,2.537-.875s-2.015,1.4-1.871,1.675,2.13-.914,2.232-.82-1.68,1.437-1.692,1.649,2.063-.989,2.219-.91-1,1.385-.9,1.5-.286.28,3.159-1.914c0,0,.849-.572,1.161-.812,0,0,19.74-2.786,20.967-4.348,2.276-2.9-.087-12.3-.087-12.3" fill="#af6e7a"/>
        <path id="Trazado_894617" data-name="Trazado 894617" d="M326.046,178.658s-1.593-8.754-6.483-10.578a2.032,2.032,0,0,0-2.744,1.892c-.011,2.014,6.184,16.93,5.548,17.7-.867,1.042-16.761,4.8-17.293,4.922h-.036a23.3,23.3,0,0,0,.707,2.637c3.26-.473,19.286-2.862,20.388-4.265,2.276-2.9-.087-12.3-.087-12.3"/>
        <path id="Trazado_894618" data-name="Trazado 894618" d="M287.188,20.826a7.5,7.5,0,0,0-9-5.612c-.063.014-.126.03-.188.046A11.033,11.033,0,0,0,264.735,9.4a13.59,13.59,0,0,0-24.411,2.374,9.323,9.323,0,0,0-13.855,8.147c0,.305.016.607.045.9Z" fill="#4b4d92"/>
        <path id="Trazado_894619" data-name="Trazado 894619" d="M174.644,50.918a3.965,3.965,0,0,1,4.755-2.97l.1.026a5.836,5.836,0,0,1,7.016-3.1,7.187,7.187,0,0,1,12.91,1.256,4.931,4.931,0,0,1,7.328,4.309,4.72,4.72,0,0,1-.024.478Z" fill="#4b4d92"/>
        <path id="Trazado_894620" data-name="Trazado 894620" d="M275.036,47.21a3.964,3.964,0,0,1,4.755-2.97l.105.026a5.835,5.835,0,0,1,7.016-3.1,7.188,7.188,0,0,1,12.911,1.256,4.93,4.93,0,0,1,7.328,4.309c0,.161-.008.321-.023.478Z" fill="#4b4d92"/>
        <path id="Trazado_894621" data-name="Trazado 894621" d="M320.177,96.49a4.8,4.8,0,0,1,5.756-3.6l.132.032a7.068,7.068,0,0,1,8.5-3.755,8.708,8.708,0,0,1,15.644,1.521,5.974,5.974,0,0,1,8.878,5.22,5.8,5.8,0,0,1-.029.58Z" fill="#4b4d92"/>
        <path id="Trazado_894622" data-name="Trazado 894622" d="M301.951,256.209l3.9-2.405,3.367,2.034-1.177.837-4.083.576s-1.594-.2-1.664-.251a5.433,5.433,0,0,1-.343-.791" fill="#af6e7a"/>
        <path id="Trazado_894623" data-name="Trazado 894623" d="M301.951,256.208l-.988.636a.541.541,0,0,0,.286,1l7.481.035a.478.478,0,0,0,.48-.474h0l.008-1.565c-4.99,1.563-6.708,1.072-7.266.371" fill="#3ae9be"/>
        <path id="Trazado_894624" data-name="Trazado 894624" d="M332.33,255.845l-.1-4.789,3.328-1.734.156,1.435-1.49,3.845s-.956,1.292-1.031,1.33a5.368,5.368,0,0,1-.858-.087" fill="#af6e7a"/>
        <path id="Trazado_894625" data-name="Trazado 894625" d="M332.329,255.845l.073,1.172a.541.541,0,0,0,1.012.238l3.682-6.512a.478.478,0,0,0-.18-.651l-1.363-.771c-1.072,5.117-2.339,6.378-3.223,6.523" fill="#3ae9be"/>
        <path id="Trazado_894626" data-name="Trazado 894626" d="M231.065,138.921l-6.683-2.583a.323.323,0,0,1-.186-.417v0l.05-.129a.323.323,0,0,1,.419-.185l6.683,2.583a.323.323,0,0,1,.185.419l-.05.129a.323.323,0,0,1-.419.185" fill="#fff"/>
        <path id="Trazado_894627" data-name="Trazado 894627" d="M225.558,133.389l-1.03,1.946c-.127.24-.074.523.11.594l6.421,2.482a.5.5,0,0,0,.535-.138.956.956,0,0,0,.172-.979c-.26-1.035-2.073-1.963-2.729-3.014l-2.991-1.156a.425.425,0,0,0-.489.265" fill="#3ae9be"/>
        <path id="Trazado_894628" data-name="Trazado 894628" d="M228.126,135.289h0a.147.147,0,0,1,.028-.18,1.329,1.329,0,0,1,1.639-.309.124.124,0,0,1,.019.16c-.032.058-.089.083-.13.057a1.148,1.148,0,0,0-1.431.265.078.078,0,0,1-.109.018l-.014-.013" fill="#fff"/>
        <path id="Trazado_894629" data-name="Trazado 894629" d="M228.692,135.81h0a.148.148,0,0,1,.028-.18,1.33,1.33,0,0,1,1.639-.309.122.122,0,0,1,.018.16c-.031.059-.089.083-.131.058a1.146,1.146,0,0,0-1.43.265.078.078,0,0,1-.109.018l-.014-.013" fill="#fff"/>
        <path id="Trazado_894630" data-name="Trazado 894630" d="M229.217,136.294h0a.147.147,0,0,1,.028-.18,1.329,1.329,0,0,1,1.639-.309.124.124,0,0,1,.019.16.1.1,0,0,1-.131.058,1.147,1.147,0,0,0-1.43.265.078.078,0,0,1-.109.018l-.014-.013" fill="#fff"/>
        <g id="Grupo_1103037" data-name="Grupo 1103037" opacity="0.3" style="mix-blend-mode: multiply;isolation: isolate">
          <g id="Grupo_1103036" data-name="Grupo 1103036">
            <g id="Grupo_1103035" data-name="Grupo 1103035" clip-path="url(#clip-path-17)">
              <g id="Grupo_1103034" data-name="Grupo 1103034">
                <g id="Grupo_1103033" data-name="Grupo 1103033" clip-path="url(#clip-path-17)">
                  <path id="Trazado_894631" data-name="Trazado 894631" d="M226.352,136.591c.131-1.843-.671-2.362-1.162-2.508l-.662,1.252c-.127.24-.075.523.11.594Z" fill="#3ae9be"/>
                </g>
              </g>
            </g>
          </g>
        </g>
        <path id="Trazado_894632" data-name="Trazado 894632" d="M224.259,138.938l-6.847-2.11a.325.325,0,0,1-.214-.4l.041-.133a.324.324,0,0,1,.4-.214l6.847,2.111a.323.323,0,0,1,.214.4l-.041.133a.324.324,0,0,1-.4.214" fill="#fff"/>
        <path id="Trazado_894633" data-name="Trazado 894633" d="M218.384,133.8l-.892,2.013c-.11.248-.038.527.151.585l6.579,2.028a.5.5,0,0,0,.524-.175.956.956,0,0,0,.1-.988c-.333-1.014-2.2-1.814-2.933-2.816l-3.065-.945a.425.425,0,0,0-.469.3" fill="#3ae9be"/>
        <path id="Trazado_894634" data-name="Trazado 894634" d="M221.073,135.521h0a.146.146,0,0,1,.015-.182,1.328,1.328,0,0,1,1.613-.423.124.124,0,0,1,.03.159c-.027.06-.083.089-.126.067a1.147,1.147,0,0,0-1.408.364.078.078,0,0,1-.107.026l-.015-.012" fill="#fff"/>
        <path id="Trazado_894635" data-name="Trazado 894635" d="M221.674,136h0a.149.149,0,0,1,.015-.182,1.328,1.328,0,0,1,1.613-.423.122.122,0,0,1,.03.158c-.027.06-.083.088-.126.066a1.147,1.147,0,0,0-1.409.364.078.078,0,0,1-.107.026l-.015-.012" fill="#fff"/>
        <path id="Trazado_894636" data-name="Trazado 894636" d="M222.232,136.448h0a.149.149,0,0,1,.015-.182,1.33,1.33,0,0,1,1.614-.422.122.122,0,0,1,.03.158c-.028.06-.083.089-.126.067a1.147,1.147,0,0,0-1.409.364.078.078,0,0,1-.107.026l-.015-.012" fill="#fff"/>
        <g id="Grupo_1103042" data-name="Grupo 1103042" opacity="0.3" style="mix-blend-mode: multiply;isolation: isolate">
          <g id="Grupo_1103041" data-name="Grupo 1103041">
            <g id="Grupo_1103040" data-name="Grupo 1103040" clip-path="url(#clip-path-19)">
              <g id="Grupo_1103039" data-name="Grupo 1103039">
                <g id="Grupo_1103038" data-name="Grupo 1103038" clip-path="url(#clip-path-19)">
                  <path id="Trazado_894637" data-name="Trazado 894637" d="M219.4,136.944c0-1.848-.834-2.31-1.334-2.421l-.573,1.295c-.11.248-.038.527.151.585Z" fill="#3ae9be"/>
                </g>
              </g>
            </g>
          </g>
        </g>
      </g>
    </g>
  </g>
</svg>
